<?xml version="1.0" encoding="UTF-8"?>
<!-- Generator: Adobe Illustrator 16.0.0, SVG Export Plug-In . SVG Version: 6.00 Build 0)  -->
<!DOCTYPE svg PUBLIC "-//W3C//DTD SVG 1.1//EN" "http://www.w3.org/Graphics/SVG/1.1/DTD/svg11.dtd">
<svg version="1.1" id="Layer_1" xmlns="http://www.w3.org/2000/svg" xmlns:xlink="http://www.w3.org/1999/xlink" x="0px" y="0px" width="24px" height="24px" viewBox="0 0 24 24" enable-background="new 0 0 24 24" xml:space="preserve">
<path fill="#FFF" d="M24,4.557c-0.883,0.392-1.832,0.656-2.828,0.775c1.018-0.609,1.799-1.574,2.165-2.724  c-0.951,0.564-2.005,0.974-3.126,1.195c-0.898-0.957-2.179-1.555-3.595-1.555c-2.72,0-4.924,2.205-4.924,4.924  c0,0.386,0.044,0.762,0.128,1.122C7.728,8.088,4.1,6.128,1.671,3.149C1.247,3.876,1.004,4.722,1.004,5.625  c0,1.708,0.869,3.216,2.19,4.099c-0.807-0.025-1.566-0.247-2.23-0.616c0,0.021,0,0.041,0,0.062c0,2.386,1.697,4.376,3.95,4.828  c-0.413,0.111-0.848,0.173-1.297,0.173c-0.317,0-0.625-0.03-0.926-0.088c0.626,1.955,2.445,3.379,4.6,3.419  c-1.685,1.321-3.808,2.107-6.115,2.107c-0.397,0-0.79-0.022-1.175-0.068c2.179,1.396,4.768,2.212,7.548,2.212  c9.057,0,14.01-7.502,14.01-14.009c0-0.213-0.004-0.426-0.015-0.637C22.505,6.412,23.34,5.544,24,4.557z"/>
</svg>