<svg data-name="logo Bg" xmlns="http://www.w3.org/2000/svg" width="196" height="48.02">
  <path d="M145.218.982L141.86 2.04v2.893h-1.756v2.79h1.756v5.605a5.81 5.81 0 0 0 1.007 3.823 4.276 4.276 0 0 0 3.384 1.162 9.108 9.108 0 0 0 1.473-.103v-2.842q-.517.052-.75.052a1.694 1.694 0 0 1-1.33-.478 2.72 2.72 0 0 1-.426-1.77v-5.45h2.506v-2.79h-2.506zM122.229 4.598a5.32 5.32 0 0 0-4.172 1.653 6.676 6.676 0 0 0-1.485 4.623v1.24a6.674 6.674 0 0 0 1.485 4.624 6.057 6.057 0 0 0 8.317 0 6.675 6.675 0 0 0 1.486-4.623v-1.24a6.677 6.677 0 0 0-1.486-4.624 5.288 5.288 0 0 0-4.145-1.653zm2.247 7.439a4.623 4.623 0 0 1-.568 2.596 1.942 1.942 0 0 1-1.705.814 1.915 1.915 0 0 1-1.68-.814 4.619 4.619 0 0 1-.567-2.596v-1.085a4.62 4.62 0 0 1 .568-2.596 1.941 1.941 0 0 1 1.705-.814 1.917 1.917 0 0 1 1.679.814 4.624 4.624 0 0 1 .568 2.596zM79.712 4.675a3.76 3.76 0 0 0-3.487 2.273V0h-3.384v18.081h3.384v-9.04a3.178 3.178 0 0 1 .891-1.034 1.98 1.98 0 0 1 1.201-.387 1.517 1.517 0 0 1 1.356.633 3.367 3.367 0 0 1 .427 1.873v7.955h3.384V9.712a6.022 6.022 0 0 0-1.008-3.707 3.278 3.278 0 0 0-2.764-1.33zM113.744 2.376a7.202 7.202 0 0 0-4.637-1.343h-5.347v17.048h3.513v-5.915h1.834a7.248 7.248 0 0 0 4.637-1.33 4.8 4.8 0 0 0 1.666-3.991v-.517a4.777 4.777 0 0 0-1.666-3.952zm-1.847 4.443q0 2.403-2.738 2.402h-1.886V3.978h1.886a3.118 3.118 0 0 1 2.04.581 2.306 2.306 0 0 1 .698 1.873zM91.258 4.624a5.03 5.03 0 0 0-3.99 1.666 6.886 6.886 0 0 0-1.46 4.688v1.034a6.57 6.57 0 0 0 1.589 4.7 5.77 5.77 0 0 0 4.404 1.68 6.69 6.69 0 0 0 4.52-1.602l-1.37-2.17a4.856 4.856 0 0 1-2.918.956 2.697 2.697 0 0 1-2.054-.723 3.723 3.723 0 0 1-.813-2.3h7.361V11.03a7.237 7.237 0 0 0-1.382-4.74 4.77 4.77 0 0 0-3.887-1.666zM89.14 10.41q.129-3.1 2.092-3.1a1.691 1.691 0 0 1 1.511.762 4.74 4.74 0 0 1 .582 2.338zM54.295 15.679a5.41 5.41 0 0 1-3.306-1.188l-1.266 2.299a6.798 6.798 0 0 0 4.598 1.601 5.855 5.855 0 0 0 3.836-1.123 3.91 3.91 0 0 0 1.356-3.19 3.531 3.531 0 0 0-.827-2.415 4.877 4.877 0 0 0-2.505-1.382l-1.266-.336a2.187 2.187 0 0 1-.994-.504 1.102 1.102 0 0 1-.323-.813 1.131 1.131 0 0 1 .439-.956 2.103 2.103 0 0 1 1.291-.336 5.34 5.34 0 0 1 2.92.956l1.162-2.273a6.051 6.051 0 0 0-2.028-1.047 8.275 8.275 0 0 0-2.415-.348 5.125 5.125 0 0 0-3.487 1.085 3.804 3.804 0 0 0-1.24 3.022 3.81 3.81 0 0 0 .788 2.505 4.56 4.56 0 0 0 2.415 1.395l1.291.362a2.765 2.765 0 0 1 1.047.49.98.98 0 0 1 .323.775q0 1.421-1.809 1.421zM68.398 15.214a2.986 2.986 0 0 1-1.188.233 2.431 2.431 0 0 1-1.976-.853 4.11 4.11 0 0 1-.71-2.66v-.904a4.08 4.08 0 0 1 .698-2.596 2.35 2.35 0 0 1 1.937-.865 2.822 2.822 0 0 1 2.144.981l1.653-2.221a5.06 5.06 0 0 0-1.756-1.24 5.99 5.99 0 0 0-2.428-.465 5.672 5.672 0 0 0-2.945.75 5.082 5.082 0 0 0-1.976 2.182 7.632 7.632 0 0 0-.71 3.422v1.033a6.697 6.697 0 0 0 1.537 4.715 5.364 5.364 0 0 0 4.146 1.666 5.305 5.305 0 0 0 4.261-1.783l-1.653-2.118a3.321 3.321 0 0 1-1.034.723zM38.668 18.081V4.934h-3.384v9.04a3.058 3.058 0 0 1-.917 1.033 2.098 2.098 0 0 1-1.227.388 1.312 1.312 0 0 1-1.227-.581 3.656 3.656 0 0 1-.349-1.821v-8.06h-3.383v8.344a6.261 6.261 0 0 0 .956 3.797 3.197 3.197 0 0 0 2.712 1.266q2.427 0 3.642-2.712v2.454zM189.465 14.852V1.033h-3.513v17.048H196v-3.229h-6.535zM6.51 1.033H.903v17.048h5.605a6.58 6.58 0 0 0 5.18-2.04 8.441 8.441 0 0 0 1.82-5.812V8.886a8.434 8.434 0 0 0-1.82-5.825 6.601 6.601 0 0 0-5.18-2.028zm3.486 9.092q0 4.83-3.564 4.83H4.417V4.16h2.015a3.13 3.13 0 0 1 2.673 1.188 6.067 6.067 0 0 1 .891 3.642zM179.029 7.904h-5.476V1.033h-3.512v17.048h3.512v-7.077h5.476v7.077h3.513V1.033h-3.513v6.871zM45.771.982L42.413 2.04v2.893h-1.756v2.79h1.756v5.605a5.81 5.81 0 0 0 1.008 3.823 4.276 4.276 0 0 0 3.383 1.162 9.108 9.108 0 0 0 1.473-.103v-2.842q-.517.052-.75.052a1.694 1.694 0 0 1-1.33-.478 2.72 2.72 0 0 1-.425-1.77v-5.45h2.505v-2.79h-2.506zM135.557 10.28l-1.265-.335q-1.293-.336-1.292-1.318a1.131 1.131 0 0 1 .44-.955 2.054 2.054 0 0 1 1.265-.336 5.34 5.34 0 0 1 2.919.955l1.188-2.273a6.347 6.347 0 0 0-2.054-1.046 8.275 8.275 0 0 0-2.415-.348 5.074 5.074 0 0 0-3.474 1.085 3.823 3.823 0 0 0-1.227 3.022 3.765 3.765 0 0 0 3.177 3.9l1.318.361a2.75 2.75 0 0 1 1.02.491.98.98 0 0 1 .322.775q0 1.42-1.782 1.42a5.41 5.41 0 0 1-3.306-1.187L129.1 16.79a6.834 6.834 0 0 0 4.623 1.601 5.801 5.801 0 0 0 3.823-1.123 3.928 3.928 0 0 0 1.344-3.19 3.531 3.531 0 0 0-.827-2.415 4.878 4.878 0 0 0-2.506-1.383zM21.387 18.391a6.653 6.653 0 0 0 4.495-1.601l-1.343-2.17a4.856 4.856 0 0 1-2.92.956 2.697 2.697 0 0 1-2.053-.724 3.722 3.722 0 0 1-.813-2.298h7.336V11.03a7.293 7.293 0 0 0-1.369-4.727 4.717 4.717 0 0 0-3.874-1.68 5.03 5.03 0 0 0-3.992 1.667 6.886 6.886 0 0 0-1.46 4.688v1.034a6.57 6.57 0 0 0 1.59 4.7 5.77 5.77 0 0 0 4.403 1.68zM20.82 7.31a1.66 1.66 0 0 1 1.498.762 4.855 4.855 0 0 1 .569 2.338h-4.16q.079-3.1 2.093-3.1zM160.51 1.033h-5.58v17.048h5.58a6.58 6.58 0 0 0 5.178-2.04 8.442 8.442 0 0 0 1.821-5.812V8.886a8.434 8.434 0 0 0-1.82-5.825 6.602 6.602 0 0 0-5.18-2.028zm3.486 9.092q0 4.83-3.564 4.83h-1.99V4.16h1.99a3.13 3.13 0 0 1 2.673 1.188 6.068 6.068 0 0 1 .891 3.642zM6.716 36.345h3.151v.155a4.571 4.571 0 0 1-.775 2.841 2.72 2.72 0 0 1-2.299 1.008 2.702 2.702 0 0 1-2.454-1.266 7.329 7.329 0 0 1-.8-3.849v-1.291q0-5.115 3.564-5.115a4.214 4.214 0 0 1 3.255 1.498l2.066-2.299a6.76 6.76 0 0 0-5.45-2.35 7.053 7.053 0 0 0-3.694.943 6.149 6.149 0 0 0-2.428 2.777A10.417 10.417 0 0 0 0 33.813v1.55a9.13 9.13 0 0 0 1.77 6.032A6.198 6.198 0 0 0 6.792 43.5a6.194 6.194 0 0 0 4.766-1.873 7.422 7.422 0 0 0 1.744-5.256v-3.074H6.716zM20.057 30.791a6.802 6.802 0 0 0-1.227 2.532v-3.358h-3.177v13.147h3.384v-8.188a3.366 3.366 0 0 1 1.201-1.24 3.323 3.323 0 0 1 1.795-.49 7.34 7.34 0 0 1 .8.051v-3.332a4.223 4.223 0 0 0-.774-.077 2.482 2.482 0 0 0-2.002.955zM29.498 29.655a5.318 5.318 0 0 0-4.171 1.653 6.674 6.674 0 0 0-1.486 4.623v1.24a6.675 6.675 0 0 0 1.486 4.624 5.288 5.288 0 0 0 4.145 1.653 5.32 5.32 0 0 0 4.172-1.653 6.677 6.677 0 0 0 1.485-4.624v-1.24a6.676 6.676 0 0 0-1.485-4.623 5.287 5.287 0 0 0-4.146-1.653zm2.247 7.439a4.633 4.633 0 0 1-.568 2.583 1.932 1.932 0 0 1-1.705.827 1.906 1.906 0 0 1-1.679-.827 4.63 4.63 0 0 1-.568-2.583v-1.085a4.628 4.628 0 0 1 .568-2.583 1.93 1.93 0 0 1 1.705-.827 1.906 1.906 0 0 1 1.68.827 4.631 4.631 0 0 1 .567 2.583zM44.454 39.005a3.059 3.059 0 0 1-.917 1.033 2.098 2.098 0 0 1-1.227.388 1.317 1.317 0 0 1-1.214-.581 3.48 3.48 0 0 1-.362-1.795v-8.085H37.35v8.343a6.261 6.261 0 0 0 .956 3.797 3.198 3.198 0 0 0 2.712 1.266q2.428 0 3.642-2.713v2.454h3.178V29.965h-3.384zM57.42 29.706a3.333 3.333 0 0 0-2.272.788 4.5 4.5 0 0 0-1.318 2.131v-2.66h-3.177V48.02h3.384v-6.845a4.072 4.072 0 0 0 1.304 1.589 3.41 3.41 0 0 0 2.054.607 3.665 3.665 0 0 0 3.216-1.64 8.146 8.146 0 0 0 1.123-4.637V36.01a8.276 8.276 0 0 0-1.11-4.662 3.632 3.632 0 0 0-3.203-1.64zm.93 7.31a4.7 4.7 0 0 1-.555 2.61 1.819 1.819 0 0 1-1.588.8 2.147 2.147 0 0 1-1.266-.4 2.946 2.946 0 0 1-.904-1.02v-4.934a3.265 3.265 0 0 1 .917-1.02 2.088 2.088 0 0 1 1.253-.4q2.143 0 2.144 3.435z"/>
</svg>
