<?xml version="1.0" encoding="UTF-8" standalone="no"?>
<!DOCTYPE svg PUBLIC "-//W3C//DTD SVG 1.1//EN"
 "http://www.w3.org/Graphics/SVG/1.1/DTD/svg11.dtd">
<!-- Generated by graphviz version 2.40.1 (20161225.0304)
 -->
<!-- Title: dependencies Pages: 1 -->
<svg width="1430pt" height="284pt"
 viewBox="0.00 0.00 1430.00 284.00" xmlns="http://www.w3.org/2000/svg" xmlns:xlink="http://www.w3.org/1999/xlink">
<g id="graph0" class="graph" transform="scale(1 1) rotate(0) translate(4 280)">
<title>dependencies</title>
<polygon fill="#ffffff" stroke="transparent" points="-4,4 -4,-280 1426,-280 1426,4 -4,4"/>
<text text-anchor="start" x="690.0091" y="-42.4" font-family="sans-serif" font-weight="bold" font-size="14.00" fill="#000000">Legend</text>
<polygon fill="#ffffb3" stroke="transparent" points="477,-10 477,-30 497,-30 497,-10 477,-10"/>
<text text-anchor="start" x="500.629" y="-15.4" font-family="sans-serif" font-size="14.00" fill="#000000"> &#160;Declarations</text>
<polygon fill="#8dd3c7" stroke="transparent" points="590,-10 590,-30 610,-30 610,-10 590,-10"/>
<text text-anchor="start" x="613.7251" y="-15.4" font-family="sans-serif" font-size="14.00" fill="#000000"> &#160;Module</text>
<polygon fill="#80b1d3" stroke="transparent" points="676,-10 676,-30 696,-30 696,-10 676,-10"/>
<text text-anchor="start" x="699.7812" y="-15.4" font-family="sans-serif" font-size="14.00" fill="#000000"> &#160;Bootstrap</text>
<polygon fill="#fdb462" stroke="transparent" points="773,-10 773,-30 793,-30 793,-10 773,-10"/>
<text text-anchor="start" x="796.6732" y="-15.4" font-family="sans-serif" font-size="14.00" fill="#000000"> &#160;Providers</text>
<polygon fill="#fb8072" stroke="transparent" points="869,-10 869,-30 889,-30 889,-10 869,-10"/>
<text text-anchor="start" x="892.7258" y="-15.4" font-family="sans-serif" font-size="14.00" fill="#000000"> &#160;Exports</text>
<g id="clust1" class="cluster">
<title>cluster_SharedModule</title>
<polygon fill="none" stroke="#000000" stroke-dasharray="1,5" points="8,-70 8,-268 1414,-268 1414,-70 8,-70"/>
</g>
<g id="clust2" class="cluster">
<title>cluster_SharedModule_declarations</title>
<polygon fill="none" stroke="#000000" points="32,-78 32,-130 1390,-130 1390,-78 32,-78"/>
</g>
<g id="clust13" class="cluster">
<title>cluster_SharedModule_exports</title>
<polygon fill="none" stroke="#000000" points="16,-208 16,-260 1406,-260 1406,-208 16,-208"/>
</g>
<!-- AlertsComponent -->
<g id="node1" class="node">
<title>AlertsComponent</title>
<polygon fill="#ffffb3" stroke="#000000" points="1381.5409,-122 1266.4591,-122 1266.4591,-86 1381.5409,-86 1381.5409,-122"/>
<text text-anchor="middle" x="1324" y="-99.8" font-family="Times,serif" font-size="14.00" fill="#000000">AlertsComponent</text>
</g>
<!-- SharedModule -->
<g id="node10" class="node">
<title>SharedModule</title>
<polygon fill="#8dd3c7" stroke="#000000" points="772.4231,-187 769.4231,-191 748.4231,-191 745.4231,-187 673.5769,-187 673.5769,-151 772.4231,-151 772.4231,-187"/>
<text text-anchor="middle" x="723" y="-164.8" font-family="Times,serif" font-size="14.00" fill="#000000">SharedModule</text>
</g>
<!-- AlertsComponent&#45;&gt;SharedModule -->
<g id="edge1" class="edge">
<title>AlertsComponent&#45;&gt;SharedModule</title>
<path fill="none" stroke="#000000" d="M1272.355,-122.2222C1272.355,-140.8285 1272.355,-167 1272.355,-167 1272.355,-167 782.2351,-167 782.2351,-167"/>
<polygon fill="#000000" stroke="#000000" points="782.2351,-163.5001 772.2351,-167 782.235,-170.5001 782.2351,-163.5001"/>
</g>
<!-- BreadcrumbComponent -->
<g id="node2" class="node">
<title>BreadcrumbComponent</title>
<polygon fill="#ffffb3" stroke="#000000" points="1248.0253,-122 1097.9747,-122 1097.9747,-86 1248.0253,-86 1248.0253,-122"/>
<text text-anchor="middle" x="1173" y="-99.8" font-family="Times,serif" font-size="14.00" fill="#000000">BreadcrumbComponent</text>
</g>
<!-- BreadcrumbComponent&#45;&gt;SharedModule -->
<g id="edge2" class="edge">
<title>BreadcrumbComponent&#45;&gt;SharedModule</title>
<path fill="none" stroke="#000000" d="M1101.8627,-122.0225C1101.8627,-139.3734 1101.8627,-163 1101.8627,-163 1101.8627,-163 782.5297,-163 782.5297,-163"/>
<polygon fill="#000000" stroke="#000000" points="782.5297,-159.5001 772.5297,-163 782.5296,-166.5001 782.5297,-159.5001"/>
</g>
<!-- ClickOutsideDirective -->
<g id="node3" class="node">
<title>ClickOutsideDirective</title>
<polygon fill="#ffffb3" stroke="#000000" points="1079.9622,-122 938.0378,-122 938.0378,-86 1079.9622,-86 1079.9622,-122"/>
<text text-anchor="middle" x="1009" y="-99.8" font-family="Times,serif" font-size="14.00" fill="#000000">ClickOutsideDirective</text>
</g>
<!-- ClickOutsideDirective&#45;&gt;SharedModule -->
<g id="edge3" class="edge">
<title>ClickOutsideDirective&#45;&gt;SharedModule</title>
<path fill="none" stroke="#000000" d="M1034.077,-122.0091C1034.077,-138.0494 1034.077,-159 1034.077,-159 1034.077,-159 782.2911,-159 782.2911,-159"/>
<polygon fill="#000000" stroke="#000000" points="782.2911,-155.5001 772.2911,-159 782.291,-162.5001 782.2911,-155.5001"/>
</g>
<!-- FooterComponent -->
<g id="node4" class="node">
<title>FooterComponent</title>
<polygon fill="#ffffb3" stroke="#000000" points="919.8809,-122 802.1191,-122 802.1191,-86 919.8809,-86 919.8809,-122"/>
<text text-anchor="middle" x="861" y="-99.8" font-family="Times,serif" font-size="14.00" fill="#000000">FooterComponent</text>
</g>
<!-- FooterComponent&#45;&gt;SharedModule -->
<g id="edge4" class="edge">
<title>FooterComponent&#45;&gt;SharedModule</title>
<path fill="none" stroke="#000000" d="M881.0635,-122.1243C881.0635,-136.7832 881.0635,-155 881.0635,-155 881.0635,-155 782.5786,-155 782.5786,-155"/>
<polygon fill="#000000" stroke="#000000" points="782.5786,-151.5001 772.5786,-155 782.5786,-158.5001 782.5786,-151.5001"/>
</g>
<!-- HeaderComponent -->
<g id="node5" class="node">
<title>HeaderComponent</title>
<polygon fill="#ffffb3" stroke="#000000" points="783.7437,-122 662.2563,-122 662.2563,-86 783.7437,-86 783.7437,-122"/>
<text text-anchor="middle" x="723" y="-99.8" font-family="Times,serif" font-size="14.00" fill="#000000">HeaderComponent</text>
</g>
<!-- HeaderComponent&#45;&gt;SharedModule -->
<g id="edge5" class="edge">
<title>HeaderComponent&#45;&gt;SharedModule</title>
<path fill="none" stroke="#000000" d="M723,-122.1061C723,-122.1061 723,-140.991 723,-140.991"/>
<polygon fill="#000000" stroke="#000000" points="719.5001,-140.9909 723,-150.991 726.5001,-140.991 719.5001,-140.9909"/>
</g>
<!-- MatGridComponent -->
<g id="node6" class="node">
<title>MatGridComponent</title>
<polygon fill="#ffffb3" stroke="#000000" points="643.5408,-122 514.4592,-122 514.4592,-86 643.5408,-86 643.5408,-122"/>
<text text-anchor="middle" x="579" y="-99.8" font-family="Times,serif" font-size="14.00" fill="#000000">MatGridComponent</text>
</g>
<!-- MatGridComponent&#45;&gt;SharedModule -->
<g id="edge6" class="edge">
<title>MatGridComponent&#45;&gt;SharedModule</title>
<path fill="none" stroke="#000000" d="M599.7567,-122.1243C599.7567,-136.7832 599.7567,-155 599.7567,-155 599.7567,-155 663.5823,-155 663.5823,-155"/>
<polygon fill="#000000" stroke="#000000" points="663.5824,-158.5001 673.5823,-155 663.5823,-151.5001 663.5824,-158.5001"/>
</g>
<!-- NavbarLeftComponent -->
<g id="node7" class="node">
<title>NavbarLeftComponent</title>
<polygon fill="#ffffb3" stroke="#000000" points="495.8473,-122 350.1527,-122 350.1527,-86 495.8473,-86 495.8473,-122"/>
<text text-anchor="middle" x="423" y="-99.8" font-family="Times,serif" font-size="14.00" fill="#000000">NavbarLeftComponent</text>
</g>
<!-- NavbarLeftComponent&#45;&gt;SharedModule -->
<g id="edge7" class="edge">
<title>NavbarLeftComponent&#45;&gt;SharedModule</title>
<path fill="none" stroke="#000000" d="M444.4745,-122.0091C444.4745,-138.0494 444.4745,-159 444.4745,-159 444.4745,-159 663.5262,-159 663.5262,-159"/>
<polygon fill="#000000" stroke="#000000" points="663.5262,-162.5001 673.5262,-159 663.5261,-155.5001 663.5262,-162.5001"/>
</g>
<!-- NotificationsComponent -->
<g id="node8" class="node">
<title>NotificationsComponent</title>
<polygon fill="#ffffb3" stroke="#000000" points="332.427,-122 177.573,-122 177.573,-86 332.427,-86 332.427,-122"/>
<text text-anchor="middle" x="255" y="-99.8" font-family="Times,serif" font-size="14.00" fill="#000000">NotificationsComponent</text>
</g>
<!-- NotificationsComponent&#45;&gt;SharedModule -->
<g id="edge8" class="edge">
<title>NotificationsComponent&#45;&gt;SharedModule</title>
<path fill="none" stroke="#000000" d="M328.0882,-122.0225C328.0882,-139.3734 328.0882,-163 328.0882,-163 328.0882,-163 663.7826,-163 663.7826,-163"/>
<polygon fill="#000000" stroke="#000000" points="663.7827,-166.5001 673.7826,-163 663.7826,-159.5001 663.7827,-166.5001"/>
</g>
<!-- PopUpComponent -->
<g id="node9" class="node">
<title>PopUpComponent</title>
<polygon fill="#ffffb3" stroke="#000000" points="160.2218,-122 39.7782,-122 39.7782,-86 160.2218,-86 160.2218,-122"/>
<text text-anchor="middle" x="100" y="-99.8" font-family="Times,serif" font-size="14.00" fill="#000000">PopUpComponent</text>
</g>
<!-- PopUpComponent&#45;&gt;SharedModule -->
<g id="edge9" class="edge">
<title>PopUpComponent&#45;&gt;SharedModule</title>
<path fill="none" stroke="#000000" d="M153.9858,-122.2222C153.9858,-140.8285 153.9858,-167 153.9858,-167 153.9858,-167 663.4991,-167 663.4991,-167"/>
<polygon fill="#000000" stroke="#000000" points="663.4992,-170.5001 673.4991,-167 663.4991,-163.5001 663.4992,-170.5001"/>
</g>
<!-- AlertsComponent  -->
<g id="node11" class="node">
<title>AlertsComponent </title>
<polygon fill="#fb8072" stroke="#000000" points="1397.54,-252 1278.46,-252 1278.46,-216 1397.54,-216 1397.54,-252"/>
<text text-anchor="middle" x="1338" y="-229.8" font-family="Times,serif" font-size="14.00" fill="#000000">AlertsComponent </text>
</g>
<!-- SharedModule&#45;&gt;AlertsComponent  -->
<g id="edge10" class="edge">
<title>SharedModule&#45;&gt;AlertsComponent </title>
<path fill="none" stroke="#000000" stroke-dasharray="5,2" d="M772.4262,-171C917.194,-171 1330.125,-171 1330.125,-171 1330.125,-171 1330.125,-205.7778 1330.125,-205.7778"/>
<polygon fill="#000000" stroke="#000000" points="1326.6251,-205.7778 1330.125,-215.7778 1333.6251,-205.7778 1326.6251,-205.7778"/>
</g>
<!-- BreadcrumbComponent  -->
<g id="node12" class="node">
<title>BreadcrumbComponent </title>
<polygon fill="#fb8072" stroke="#000000" points="1260.0246,-252 1105.9754,-252 1105.9754,-216 1260.0246,-216 1260.0246,-252"/>
<text text-anchor="middle" x="1183" y="-229.8" font-family="Times,serif" font-size="14.00" fill="#000000">BreadcrumbComponent </text>
</g>
<!-- SharedModule&#45;&gt;BreadcrumbComponent  -->
<g id="edge11" class="edge">
<title>SharedModule&#45;&gt;BreadcrumbComponent </title>
<path fill="none" stroke="#000000" stroke-dasharray="5,2" d="M772.4638,-175C890.1631,-175 1177.125,-175 1177.125,-175 1177.125,-175 1177.125,-205.9775 1177.125,-205.9775"/>
<polygon fill="#000000" stroke="#000000" points="1173.6251,-205.9774 1177.125,-215.9775 1180.6251,-205.9775 1173.6251,-205.9774"/>
</g>
<!-- ClickOutsideDirective  -->
<g id="node13" class="node">
<title>ClickOutsideDirective </title>
<polygon fill="#fb8072" stroke="#000000" points="1087.9629,-252 942.0371,-252 942.0371,-216 1087.9629,-216 1087.9629,-252"/>
<text text-anchor="middle" x="1015" y="-229.8" font-family="Times,serif" font-size="14.00" fill="#000000">ClickOutsideDirective </text>
</g>
<!-- SharedModule&#45;&gt;ClickOutsideDirective  -->
<g id="edge12" class="edge">
<title>SharedModule&#45;&gt;ClickOutsideDirective </title>
<path fill="none" stroke="#000000" stroke-dasharray="5,2" d="M772.2555,-179C848.9416,-179 988.173,-179 988.173,-179 988.173,-179 988.173,-205.9909 988.173,-205.9909"/>
<polygon fill="#000000" stroke="#000000" points="984.6731,-205.9909 988.173,-215.9909 991.6731,-205.991 984.6731,-205.9909"/>
</g>
<!-- FooterComponent  -->
<g id="node14" class="node">
<title>FooterComponent </title>
<polygon fill="#fb8072" stroke="#000000" points="924.8814,-252 803.1186,-252 803.1186,-216 924.8814,-216 924.8814,-252"/>
<text text-anchor="middle" x="864" y="-229.8" font-family="Times,serif" font-size="14.00" fill="#000000">FooterComponent </text>
</g>
<!-- SharedModule&#45;&gt;FooterComponent  -->
<g id="edge13" class="edge">
<title>SharedModule&#45;&gt;FooterComponent </title>
<path fill="none" stroke="#000000" stroke-dasharray="5,2" d="M772.5104,-183C805.2567,-183 842.1865,-183 842.1865,-183 842.1865,-183 842.1865,-205.8757 842.1865,-205.8757"/>
<polygon fill="#000000" stroke="#000000" points="838.6866,-205.8757 842.1865,-215.8757 845.6866,-205.8757 838.6866,-205.8757"/>
</g>
<!-- HeaderComponent  -->
<g id="node15" class="node">
<title>HeaderComponent </title>
<polygon fill="#fb8072" stroke="#000000" points="785.7436,-252 660.2564,-252 660.2564,-216 785.7436,-216 785.7436,-252"/>
<text text-anchor="middle" x="723" y="-229.8" font-family="Times,serif" font-size="14.00" fill="#000000">HeaderComponent </text>
</g>
<!-- SharedModule&#45;&gt;HeaderComponent  -->
<g id="edge14" class="edge">
<title>SharedModule&#45;&gt;HeaderComponent </title>
<path fill="none" stroke="#000000" stroke-dasharray="5,2" d="M723,-187.1061C723,-187.1061 723,-205.991 723,-205.991"/>
<polygon fill="#000000" stroke="#000000" points="719.5001,-205.9909 723,-215.991 726.5001,-205.991 719.5001,-205.9909"/>
</g>
<!-- MatGridComponent  -->
<g id="node16" class="node">
<title>MatGridComponent </title>
<polygon fill="#fb8072" stroke="#000000" points="642.54,-252 509.46,-252 509.46,-216 642.54,-216 642.54,-252"/>
<text text-anchor="middle" x="576" y="-229.8" font-family="Times,serif" font-size="14.00" fill="#000000">MatGridComponent </text>
</g>
<!-- SharedModule&#45;&gt;MatGridComponent  -->
<g id="edge15" class="edge">
<title>SharedModule&#45;&gt;MatGridComponent </title>
<path fill="none" stroke="#000000" stroke-dasharray="5,2" d="M673.642,-183C624.7077,-183 556.9933,-183 556.9933,-183 556.9933,-183 556.9933,-205.8757 556.9933,-205.8757"/>
<polygon fill="#000000" stroke="#000000" points="553.4934,-205.8757 556.9933,-215.8757 560.4934,-205.8757 553.4934,-205.8757"/>
</g>
<!-- NavbarLeftComponent  -->
<g id="node17" class="node">
<title>NavbarLeftComponent </title>
<polygon fill="#fb8072" stroke="#000000" points="491.8476,-252 342.1524,-252 342.1524,-216 491.8476,-216 491.8476,-252"/>
<text text-anchor="middle" x="417" y="-229.8" font-family="Times,serif" font-size="14.00" fill="#000000">NavbarLeftComponent </text>
</g>
<!-- SharedModule&#45;&gt;NavbarLeftComponent  -->
<g id="edge16" class="edge">
<title>SharedModule&#45;&gt;NavbarLeftComponent </title>
<path fill="none" stroke="#000000" stroke-dasharray="5,2" d="M673.5295,-179C582.409,-179 397.2755,-179 397.2755,-179 397.2755,-179 397.2755,-205.9909 397.2755,-205.9909"/>
<polygon fill="#000000" stroke="#000000" points="393.7756,-205.9909 397.2755,-215.9909 400.7756,-205.991 393.7756,-205.9909"/>
</g>
<!-- NotificationsComponent  -->
<g id="node18" class="node">
<title>NotificationsComponent </title>
<polygon fill="#fb8072" stroke="#000000" points="323.9264,-252 166.0736,-252 166.0736,-216 323.9264,-216 323.9264,-252"/>
<text text-anchor="middle" x="245" y="-229.8" font-family="Times,serif" font-size="14.00" fill="#000000">NotificationsComponent </text>
</g>
<!-- SharedModule&#45;&gt;NotificationsComponent  -->
<g id="edge17" class="edge">
<title>SharedModule&#45;&gt;NotificationsComponent </title>
<path fill="none" stroke="#000000" stroke-dasharray="5,2" d="M673.3667,-175C552.1504,-175 250.875,-175 250.875,-175 250.875,-175 250.875,-205.9775 250.875,-205.9775"/>
<polygon fill="#000000" stroke="#000000" points="247.3751,-205.9774 250.875,-215.9775 254.3751,-205.9775 247.3751,-205.9774"/>
</g>
<!-- PopUpComponent  -->
<g id="node19" class="node">
<title>PopUpComponent </title>
<polygon fill="#fb8072" stroke="#000000" points="147.7219,-252 24.2781,-252 24.2781,-216 147.7219,-216 147.7219,-252"/>
<text text-anchor="middle" x="86" y="-229.8" font-family="Times,serif" font-size="14.00" fill="#000000">PopUpComponent </text>
</g>
<!-- SharedModule&#45;&gt;PopUpComponent  -->
<g id="edge18" class="edge">
<title>SharedModule&#45;&gt;PopUpComponent </title>
<path fill="none" stroke="#000000" stroke-dasharray="5,2" d="M673.6336,-171C525.3233,-171 93.875,-171 93.875,-171 93.875,-171 93.875,-205.7778 93.875,-205.7778"/>
<polygon fill="#000000" stroke="#000000" points="90.3751,-205.7778 93.875,-215.7778 97.3751,-205.7778 90.3751,-205.7778"/>
</g>
</g>
</svg>
