<?xml version="1.0" encoding="UTF-8" standalone="no"?>
<!DOCTYPE svg PUBLIC "-//W3C//DTD SVG 1.1//EN"
 "http://www.w3.org/Graphics/SVG/1.1/DTD/svg11.dtd">
<!-- Generated by graphviz version 2.40.1 (20161225.0304)
 -->
<!-- Title: dependencies Pages: 1 -->
<svg width="504pt" height="211pt"
 viewBox="0.00 0.00 504.00 211.00" xmlns="http://www.w3.org/2000/svg" xmlns:xlink="http://www.w3.org/1999/xlink">
<g id="graph0" class="graph" transform="scale(1 1) rotate(0) translate(4 207)">
<title>dependencies</title>
<polygon fill="#ffffff" stroke="transparent" points="-4,4 -4,-207 500,-207 500,4 -4,4"/>
<text text-anchor="start" x="227.0091" y="-42.4" font-family="sans-serif" font-weight="bold" font-size="14.00" fill="#000000">Legend</text>
<polygon fill="#ffffb3" stroke="transparent" points="14,-10 14,-30 34,-30 34,-10 14,-10"/>
<text text-anchor="start" x="37.629" y="-15.4" font-family="sans-serif" font-size="14.00" fill="#000000"> &#160;Declarations</text>
<polygon fill="#8dd3c7" stroke="transparent" points="127,-10 127,-30 147,-30 147,-10 127,-10"/>
<text text-anchor="start" x="150.7251" y="-15.4" font-family="sans-serif" font-size="14.00" fill="#000000"> &#160;Module</text>
<polygon fill="#80b1d3" stroke="transparent" points="213,-10 213,-30 233,-30 233,-10 213,-10"/>
<text text-anchor="start" x="236.7812" y="-15.4" font-family="sans-serif" font-size="14.00" fill="#000000"> &#160;Bootstrap</text>
<polygon fill="#fdb462" stroke="transparent" points="310,-10 310,-30 330,-30 330,-10 310,-10"/>
<text text-anchor="start" x="333.6732" y="-15.4" font-family="sans-serif" font-size="14.00" fill="#000000"> &#160;Providers</text>
<polygon fill="#fb8072" stroke="transparent" points="406,-10 406,-30 426,-30 426,-10 406,-10"/>
<text text-anchor="start" x="429.7258" y="-15.4" font-family="sans-serif" font-size="14.00" fill="#000000"> &#160;Exports</text>
<g id="clust1" class="cluster">
<title>cluster_NotificationsModule</title>
<polygon fill="none" stroke="#000000" stroke-dasharray="1,5" points="60,-70 60,-195 436,-195 436,-70 60,-70"/>
</g>
<g id="clust2" class="cluster">
<title>cluster_NotificationsModule_declarations</title>
<polygon fill="none" stroke="#000000" points="264,-78 264,-130 428,-130 428,-78 264,-78"/>
</g>
<g id="clust4" class="cluster">
<title>cluster_NotificationsModule_imports</title>
<polygon fill="none" stroke="#000000" points="68,-78 68,-130 256,-130 256,-78 68,-78"/>
</g>
<!-- NotificationComponent -->
<g id="node1" class="node">
<title>NotificationComponent</title>
<polygon fill="#ffffb3" stroke="#000000" points="420.4818,-122 271.5182,-122 271.5182,-86 420.4818,-86 420.4818,-122"/>
<text text-anchor="middle" x="346" y="-99.8" font-family="Times,serif" font-size="14.00" fill="#000000">NotificationComponent</text>
</g>
<!-- NotificationsModule -->
<g id="node2" class="node">
<title>NotificationsModule</title>
<polygon fill="#8dd3c7" stroke="#000000" points="320.1443,-187 317.1443,-191 296.1443,-191 293.1443,-187 187.8557,-187 187.8557,-151 320.1443,-151 320.1443,-187"/>
<text text-anchor="middle" x="254" y="-164.8" font-family="Times,serif" font-size="14.00" fill="#000000">NotificationsModule</text>
</g>
<!-- NotificationComponent&#45;&gt;NotificationsModule -->
<g id="edge1" class="edge">
<title>NotificationComponent&#45;&gt;NotificationsModule</title>
<path fill="none" stroke="#000000" d="M295.9155,-122.1061C295.9155,-122.1061 295.9155,-140.991 295.9155,-140.991"/>
<polygon fill="#000000" stroke="#000000" points="292.4156,-140.9909 295.9155,-150.991 299.4156,-140.991 292.4156,-140.9909"/>
</g>
<!-- NotificationRoutingModule -->
<g id="node3" class="node">
<title>NotificationRoutingModule</title>
<polygon fill="#8dd3c7" stroke="#000000" points="248.3173,-122 245.3173,-126 224.3173,-126 221.3173,-122 75.6827,-122 75.6827,-86 248.3173,-86 248.3173,-122"/>
<text text-anchor="middle" x="162" y="-99.8" font-family="Times,serif" font-size="14.00" fill="#000000">NotificationRoutingModule</text>
</g>
<!-- NotificationRoutingModule&#45;&gt;NotificationsModule -->
<g id="edge2" class="edge">
<title>NotificationRoutingModule&#45;&gt;NotificationsModule</title>
<path fill="none" stroke="#000000" d="M217.9183,-122.1061C217.9183,-122.1061 217.9183,-140.991 217.9183,-140.991"/>
<polygon fill="#000000" stroke="#000000" points="214.4184,-140.9909 217.9183,-150.991 221.4184,-140.991 214.4184,-140.9909"/>
</g>
</g>
</svg>
