<?xml version="1.0" standalone="no"?>
<!DOCTYPE svg PUBLIC "-//W3C//DTD SVG 1.1//EN" "http://www.w3.org/Graphics/SVG/1.1/DTD/svg11.dtd" >
<svg xmlns="http://www.w3.org/2000/svg" xmlns:xlink="http://www.w3.org/1999/xlink" version="1.1">
<metadata>
Created by FontForge 20170731 at Fri Feb 22 19:51:32 2019
 By Aleksey,,,
Copyright 2018 Deutsche Post AG
</metadata>
<defs>
<font id="Delivery-Light" horiz-adv-x="0" >
  <font-face 
    font-family="Delivery Light"
    font-weight="300"
    font-stretch="normal"
    units-per-em="1000"
    panose-1="2 15 4 3 2 2 4 2 2 4"
    ascent="700"
    descent="-300"
    x-height="496"
    cap-height="660"
    bbox="-220 -247 1000 921"
    underline-thickness="50"
    underline-position="-155"
    unicode-range="U+000D-FFFD"
  />
<missing-glyph horiz-adv-x="500" 
d="M50 696h400v-696h-400v696zM400 50v596h-300v-596h300z" />
    <glyph glyph-name="f_f" unicode="ff" horiz-adv-x="631" 
d="M120 0v448h-88v48h88v36q0 180 156 180q22 0 41 -4v-51q-15 4 -36 4q-56 0 -79.5 -30t-23.5 -101v-34h240v36q0 180 156 180q22 0 41 -4v-51q-17 4 -36 4q-56 0 -79.5 -30t-23.5 -101v-34h140v-48h-140v-448h-58v448h-240v-448h-58z" />
    <glyph glyph-name="f_i" unicode="fi" horiz-adv-x="561" 
d="M120 0v448h-88v48h88v36q0 180 156 180q22 0 41 -4v-51q-15 4 -36 4q-56 0 -79.5 -30t-23.5 -101v-34h140v-48h-140v-448h-58zM447 591q-20 0 -32 12.5t-12 30.5t12 30t32 12t32 -12t12 -30t-12 -30.5t-32 -12.5zM418 0v496h58v-496h-58z" />
    <glyph glyph-name="f_l" unicode="fl" horiz-adv-x="585" 
d="M120 0v448h-88v48h88v36q0 180 156 180q22 0 41 -4v-51q-15 4 -36 4q-56 0 -79.5 -30t-23.5 -101v-34h140v-48h-140v-448h-58zM519 -10q-56 0 -78.5 28.5t-22.5 75.5v606h58v-600q0 -33 12.5 -46.5t41.5 -13.5q7 0 13.5 0.5t13.5 1.5v-49q-21 -3 -38 -3z" />
    <glyph glyph-name="f_f_i" unicode="ffi" horiz-adv-x="859" 
d="M120 0v448h-88v48h88v36q0 180 156 180q22 0 41 -4v-51q-15 4 -36 4q-56 0 -79.5 -30t-23.5 -101v-34h240v36q0 180 156 180q22 0 41 -4v-51q-17 4 -36 4q-56 0 -79.5 -30t-23.5 -101v-34h140v-48h-140v-448h-58v448h-240v-448h-58zM745 591q-20 0 -32 12.5t-12 30.5
t12 30t32 12t32 -12t12 -30t-12 -30.5t-32 -12.5zM716 0v496h58v-496h-58z" />
    <glyph glyph-name="f_f_l" unicode="ffl" horiz-adv-x="883" 
d="M120 0v448h-88v48h88v36q0 180 156 180q22 0 41 -4v-51q-15 4 -36 4q-56 0 -79.5 -30t-23.5 -101v-34h240v36q0 180 156 180q22 0 41 -4v-51q-17 4 -36 4q-56 0 -79.5 -30t-23.5 -101v-34h140v-48h-140v-448h-58v448h-240v-448h-58zM817 -10q-56 0 -78.5 28.5t-22.5 75.5
v606h58v-600q0 -33 12.5 -46.5t41.5 -13.5q7 0 13.5 0.5t13.5 1.5v-49q-21 -3 -38 -3z" />
    <glyph glyph-name=".notdef" horiz-adv-x="500" 
d="M50 696h400v-696h-400v696zM400 50v596h-300v-596h300z" />
    <glyph glyph-name="uni0000" 
 />
    <glyph glyph-name="uni0000" 
 />
    <glyph glyph-name="uni000D" unicode="&#xd;" horiz-adv-x="212" 
 />
    <glyph glyph-name="space" unicode=" " horiz-adv-x="212" 
 />
    <glyph glyph-name="exclam" unicode="!" horiz-adv-x="312" 
d="M133 166l-11 494h68l-11 -494h-46zM156 -10q-20 0 -34 13.5t-14 33.5t14 33.5t34 13.5t34 -13.5t14 -33.5t-14 -33.5t-34 -13.5z" />
    <glyph glyph-name="quotedbl" unicode="&#x22;" horiz-adv-x="281" 
d="M50 491l-6 209h59l-6 -209h-47zM184 491l-6 209h59l-6 -209h-47z" />
    <glyph glyph-name="numbersign" unicode="#" horiz-adv-x="590" 
d="M87 0l39 188h-92v50h103l38 184h-93v50h104l39 188h55l-39 -188h168l39 188h55l-39 -188h92v-50h-103l-38 -184h93v-50h-104l-39 -188h-55l39 188h-168l-39 -188h-55zM192 238h168l38 184h-168z" />
    <glyph glyph-name="dollar" unicode="$" horiz-adv-x="590" 
d="M262 -70v83q-53 3 -99 20.5t-83 47.5l29 41q79 -60 179 -60q70 0 113.5 30t43.5 83q0 37 -24.5 65.5t-79.5 47.5l-93 31q-68 23 -108 59.5t-40 97.5q0 46 23.5 80t63 54t88.5 26v84h55v-83q45 -2 88.5 -18.5t83.5 -48.5l-29 -40q-40 29 -80 43.5t-87 14.5q-63 0 -105 -27
t-42 -77q0 -45 29.5 -70.5t81.5 -42.5l89 -30q67 -23 105.5 -60t38.5 -100q0 -72 -51.5 -116.5t-134.5 -51.5v-83h-55z" />
    <glyph glyph-name="percent" unicode="%" horiz-adv-x="690" 
d="M96 0l440 660h58l-440 -660h-58zM158 330q-64 0 -96 40.5t-32 114.5v28q0 74 32 115t96 41t96 -41t32 -115v-28q0 -74 -32 -114.5t-96 -40.5zM158 374q75 0 75 113v24q0 114 -75 114t-75 -114v-24q0 -113 75 -113zM532 -9q-64 0 -96 40.5t-32 114.5v28q0 74 32 115t96 41
t96 -41t32 -115v-28q0 -74 -32 -114.5t-96 -40.5zM532 35q75 0 75 113v24q0 114 -75 114t-75 -114v-24q0 -113 75 -113z" />
    <glyph glyph-name="ampersand" unicode="&#x26;" horiz-adv-x="686" 
d="M267 -15q-95 0 -151.5 45.5t-56.5 122.5q0 60 38 105.5t123 85.5q-91 92 -91 174q0 44 22.5 80t61.5 56.5t88 20.5q72 0 118 -41.5t46 -106.5q0 -58 -38.5 -102t-124.5 -83l189 -180q28 43 44.5 99t19.5 122h56q-4 -77 -25 -142.5t-56 -115.5l104 -99l-39 -37l-99 93
q-44 -46 -102.5 -71.5t-126.5 -25.5zM188 519q0 -37 20.5 -72.5t67.5 -79.5q50 28 79 51.5t41 47.5t12 54q0 47 -29.5 76t-77.5 29q-49 0 -81 -29.5t-32 -76.5zM117 161q0 -59 39.5 -91.5t111.5 -32.5q57 0 105 21t85 61l-211 198q-71 -37 -100.5 -72.5t-29.5 -83.5z" />
    <glyph glyph-name="quotesingle" unicode="'" horiz-adv-x="147" 
d="M50 491l-6 209h59l-6 -209h-47z" />
    <glyph glyph-name="parenleft" unicode="(" horiz-adv-x="333" 
d="M215 -190q-56 108 -81.5 215t-25.5 212v62q0 105 25.5 212t81.5 215h61q-56 -110 -80 -218t-24 -213v-54q0 -105 24 -213t80 -218h-61z" />
    <glyph glyph-name="parenright" unicode=")" horiz-adv-x="333" 
d="M57 -190q55 110 79.5 218t24.5 213v54q0 105 -24.5 213t-79.5 218h61q56 -108 81.5 -215t25.5 -212v-62q0 -105 -25.5 -212t-81.5 -215h-61z" />
    <glyph glyph-name="asterisk" unicode="*" horiz-adv-x="392" 
d="M121 423l-42 30l84 108l-131 36l16 50l127 -48l-5 136h52l-5 -136l127 48l16 -50l-131 -36l84 -108l-42 -30l-75 113z" />
    <glyph glyph-name="plus" unicode="+" horiz-adv-x="590" 
d="M268 114v191h-186v50h186v191h54v-191h186v-50h-186v-191h-54z" />
    <glyph glyph-name="comma" unicode="," horiz-adv-x="212" 
d="M64 -121l-25 27q49 44 63 84q-19 1 -31.5 14.5t-12.5 32.5q0 20 14 33.5t34 13.5q22 0 35 -14.5t13 -38.5q0 -35 -25 -77t-65 -75z" />
    <glyph glyph-name="hyphen" unicode="-" horiz-adv-x="381" 
d="M39 279v57h303v-57h-303z" />
    <glyph glyph-name="period" unicode="." horiz-adv-x="212" 
d="M106 -10q-20 0 -34 13.5t-14 33.5t14 33.5t34 13.5t34 -13.5t14 -33.5t-14 -33.5t-34 -13.5z" />
    <glyph glyph-name="slash" unicode="/" horiz-adv-x="401" 
d="M35 0l283 700h60l-283 -700h-60z" />
    <glyph glyph-name="zero" unicode="0" horiz-adv-x="590" 
d="M295 -15q-118 0 -180 81.5t-62 230.5v66q0 149 62 230.5t180 81.5t180 -81.5t62 -230.5v-66q0 -149 -62 -230.5t-180 -81.5zM295 39q89 0 135 66.5t46 195.5v58q0 129 -46 195.5t-135 66.5t-135 -66.5t-46 -195.5v-58q0 -129 46 -195.5t135 -66.5z" />
    <glyph glyph-name="one" unicode="1" horiz-adv-x="590" 
d="M116 0v53h153v554h-148v53h208v-607h159v-53h-372z" />
    <glyph glyph-name="two" unicode="2" horiz-adv-x="590" 
d="M64 0v52l265 271q48 49 67.5 88.5t19.5 82.5q0 66 -39.5 96t-95.5 30q-51 0 -88.5 -22.5t-67.5 -62.5l-42 36q30 41 79.5 72.5t122.5 31.5q85 0 139 -46.5t54 -128.5q0 -55 -26.5 -105.5t-83.5 -108.5l-227 -233h358v-53h-435z" />
    <glyph glyph-name="three" unicode="3" horiz-adv-x="590" 
d="M262 -15q-143 0 -222 90l38 38q35 -37 80.5 -55.5t104.5 -18.5q72 0 120 34.5t48 104.5q0 71 -47.5 107t-129.5 36h-78v48l217 238h-308v53h380v-52l-218 -237h30q105 0 160.5 -53.5t55.5 -139.5q0 -85 -60 -139t-171 -54z" />
    <glyph glyph-name="four" unicode="4" horiz-adv-x="590" 
d="M382 0v169h-346v49l322 442h83v-438h108v-53h-108v-169h-59zM372 596l-274 -374h284v374h-10z" />
    <glyph glyph-name="five" unicode="5" horiz-adv-x="590" 
d="M275 -15q-72 0 -126 23.5t-93 68.5l38 38q33 -37 77.5 -56.5t103.5 -19.5q44 0 81.5 16t60.5 48.5t23 81.5q0 76 -45 111t-122 35h-163v329h370v-53h-312v-223h112q109 0 165.5 -54t56.5 -145q0 -59 -28 -104t-79 -70.5t-120 -25.5z" />
    <glyph glyph-name="six" unicode="6" horiz-adv-x="590" 
d="M301 -15q-106 0 -168.5 59.5t-62.5 159.5q0 68 31 140.5t102 167.5l110 148h67l-128 -173q-31 -42 -53 -76.5t-36 -64.5q61 69 155 69q61 0 108 -27t74 -74.5t27 -109.5q0 -66 -28 -115t-79 -76.5t-119 -27.5zM131 204q0 -77 46 -122t124 -45q74 0 119.5 45.5t45.5 121.5
q0 74 -45 116.5t-121 42.5q-97 0 -158 -74q-11 -40 -11 -85z" />
    <glyph glyph-name="seven" unicode="7" horiz-adv-x="590" 
d="M154 0l283 604h-368v56h433v-51l-281 -609h-67z" />
    <glyph glyph-name="eight" unicode="8" horiz-adv-x="590" 
d="M295 -15q-66 0 -119.5 22t-84.5 64.5t-31 103.5q0 126 130 171q-50 17 -79.5 55t-29.5 94q0 57 28 97t76.5 61.5t109.5 21.5t109.5 -21.5t76.5 -61.5t28 -97q0 -56 -29.5 -94t-79.5 -55q130 -45 130 -171q0 -61 -31 -103.5t-84.5 -64.5t-119.5 -22zM295 367
q66 0 111.5 31.5t45.5 96.5t-45.5 96.5t-111.5 31.5t-111.5 -31.5t-45.5 -96.5t45.5 -96.5t111.5 -31.5zM295 37q75 0 124.5 35.5t49.5 104.5t-49.5 104.5t-124.5 35.5t-124.5 -35.5t-49.5 -104.5t49.5 -104.5t124.5 -35.5z" />
    <glyph glyph-name="nine" unicode="9" horiz-adv-x="590" 
d="M210 0l128 173q31 42 53 76.5t36 64.5q-60 -69 -155 -69q-62 0 -109 27t-73.5 74.5t-26.5 109.5q0 66 28 115t79 76.5t119 27.5q106 0 168.5 -59.5t62.5 -159.5q0 -68 -31 -140.5t-102 -167.5l-110 -148h-67zM124 456q0 -74 44.5 -116.5t121.5 -42.5q98 0 158 73
q11 40 11 86q0 77 -46 122t-124 45q-74 0 -119.5 -45.5t-45.5 -121.5z" />
    <glyph glyph-name="colon" unicode=":" horiz-adv-x="212" 
d="M106 -10q-20 0 -34 13.5t-14 33.5t14 33.5t34 13.5t34 -13.5t14 -33.5t-14 -33.5t-34 -13.5zM106 414q-20 0 -34 13.5t-14 33.5t14 33.5t34 13.5t34 -13.5t14 -33.5t-14 -33.5t-34 -13.5z" />
    <glyph glyph-name="semicolon" unicode=";" horiz-adv-x="212" 
d="M64 -121l-25 27q49 44 63 84q-19 1 -31.5 14.5t-12.5 32.5q0 20 14 33.5t34 13.5q22 0 35 -14.5t13 -38.5q0 -35 -25 -77t-65 -75zM105 414q-20 0 -34 13.5t-14 33.5t14 33.5t34 13.5t34 -13.5t14 -33.5t-14 -33.5t-34 -13.5z" />
    <glyph glyph-name="less" unicode="&#x3c;" horiz-adv-x="590" 
d="M508 122l-426 169v78l426 170v-54l-375 -149v-10l375 -150v-54z" />
    <glyph glyph-name="equal" unicode="=" horiz-adv-x="590" 
d="M82 402v50h426v-50h-426zM82 199v50h426v-50h-426z" />
    <glyph glyph-name="greater" unicode="&#x3e;" horiz-adv-x="590" 
d="M82 122v54l375 150v10l-375 149v54l426 -170v-78z" />
    <glyph glyph-name="question" unicode="?" horiz-adv-x="477" 
d="M179 166l-5 157l42 12q144 42 144 155q0 65 -42 99t-106 34q-88 0 -145 -63l-37 33q32 40 77 61t106 21q94 0 150 -48t56 -137q0 -76 -45.5 -125.5t-141.5 -75.5l-7 -123h-46zM202 -10q-20 0 -34 13.5t-14 33.5t14 33.5t34 13.5t34 -13.5t14 -33.5t-14 -33.5t-34 -13.5z
" />
    <glyph glyph-name="at" unicode="@" horiz-adv-x="1048" 
d="M502 16q-82 0 -131.5 59t-49.5 157v34q0 98 49 157.5t131 59.5q49 0 88 -23.5t64 -66.5v80h52v-305q0 -47 23.5 -74t64.5 -27q55 0 84.5 50.5t29.5 146.5v30q0 110 -47.5 192.5t-133.5 128.5t-200 46q-117 0 -203 -48t-132.5 -136.5t-46.5 -208.5v-30q0 -118 45.5 -205.5
t128.5 -135.5t196 -48q132 0 214 58l28 -42q-92 -67 -242 -67q-131 0 -226.5 53t-147.5 151.5t-52 233.5v34q0 137 53 236t151 152.5t234 53.5q132 0 230.5 -51.5t153 -145t54.5 -219.5v-35q0 -113 -47 -179t-127 -66q-51 0 -87 25.5t-46 69.5q-25 -46 -65 -70.5t-90 -24.5z
M378 235q0 -79 35.5 -123.5t99.5 -44.5q44 0 79 22.5t57 65.5v188q-22 43 -57 66t-79 23q-63 0 -99 -44.5t-36 -123.5v-29z" />
    <glyph glyph-name="A" unicode="A" horiz-adv-x="591" 
d="M14 0l232 660h99l232 -660h-64l-65 187h-306l-65 -187h-63zM289 607l-129 -368h270l-129 368h-12z" />
    <glyph glyph-name="B" unicode="B" horiz-adv-x="620" 
d="M95 0v660h244q86 0 139 -46t53 -119v-19q0 -49 -25.5 -83.5t-70.5 -51.5q56 -14 87.5 -53t31.5 -97v-19q0 -51 -25.5 -89.5t-71 -60.5t-105.5 -22h-257zM337 608h-181v-245h181q65 0 99.5 30t34.5 85v15q0 55 -34.5 85t-99.5 30zM156 52h196q67 0 104 32t37 90v15
q0 58 -37 90t-104 32h-196v-259z" />
    <glyph glyph-name="C" unicode="C" horiz-adv-x="605" 
d="M339 -15q-83 0 -144.5 39t-96 109.5t-34.5 163.5v66q0 93 34.5 163.5t96 109.5t144.5 39q129 0 217 -102l-39 -39q-76 86 -177 86q-66 0 -114 -32t-74.5 -91t-26.5 -138v-58q0 -79 26.5 -138t74.5 -91t113 -32q107 0 182 86l39 -39q-44 -51 -100.5 -76.5t-120.5 -25.5z
" />
    <glyph glyph-name="D" unicode="D" horiz-adv-x="671" 
d="M95 0v660h216q140 0 218 -80t78 -224v-52q0 -144 -78 -224t-218 -80h-216zM311 607h-155v-554h155q114 0 174.5 65.5t60.5 189.5v44q0 124 -60.5 189.5t-174.5 65.5z" />
    <glyph glyph-name="E" unicode="E" horiz-adv-x="558" 
d="M95 0v660h398v-53h-337v-244h307v-52h-307v-258h347v-53h-408z" />
    <glyph glyph-name="F" unicode="F" horiz-adv-x="530" 
d="M95 0v660h395v-53h-334v-263h304v-53h-304v-291h-61z" />
    <glyph glyph-name="G" unicode="G" horiz-adv-x="652" 
d="M339 -15q-87 0 -148.5 39.5t-94 110t-32.5 162.5v66q0 92 34.5 162.5t97 110t147.5 39.5q70 0 124.5 -26t97.5 -71l-38 -39q-42 43 -87 62t-97 19q-66 0 -115 -31.5t-76 -90t-27 -139.5v-58q0 -121 57 -191t158 -70q84 0 138 50t54 145v65h-176v52h236v-117
q0 -76 -32 -132t-89 -87t-132 -31z" />
    <glyph glyph-name="H" unicode="H" horiz-adv-x="696" 
d="M95 0v660h61v-300h384v300h61v-660h-61v307h-384v-307h-61z" />
    <glyph glyph-name="I" unicode="I" horiz-adv-x="251" 
d="M95 0v660h61v-660h-61z" />
    <glyph glyph-name="J" unicode="J" horiz-adv-x="459" 
d="M175 -15q-55 0 -93 17.5t-67 46.5l32 42q24 -23 54 -37t73 -14q62 0 100.5 35.5t38.5 123.5v461h61v-462q0 -76 -25.5 -123t-70 -68.5t-103.5 -21.5z" />
    <glyph glyph-name="K" unicode="K" horiz-adv-x="615" 
d="M95 0v660h61v-300h130l232 300h69l-251 -324l259 -336h-76l-236 307h-127v-307h-61z" />
    <glyph glyph-name="L" unicode="L" horiz-adv-x="524" 
d="M95 0v660h61v-607h334v-53h-395z" />
    <glyph glyph-name="M" unicode="M" horiz-adv-x="847" 
d="M95 0v660h108l217 -494h11l217 494h104v-660h-60v601h-11l-220 -494h-76l-220 494h-11v-601h-59z" />
    <glyph glyph-name="N" unicode="N" horiz-adv-x="700" 
d="M95 0v660h100l339 -600h11v600h60v-660h-100l-339 600h-11v-600h-60z" />
    <glyph glyph-name="O" unicode="O" horiz-adv-x="676" 
d="M338 -15q-87 0 -148 39.5t-93.5 110t-32.5 162.5v66q0 92 32.5 162.5t93.5 110t148 39.5q86 0 147.5 -39.5t94 -110t32.5 -162.5v-66q0 -92 -32.5 -162.5t-94 -110t-147.5 -39.5zM338 40q98 0 155.5 70t57.5 191v58q0 121 -57.5 191t-155.5 70t-155.5 -70t-57.5 -191v-58
q0 -121 57.5 -191t155.5 -70z" />
    <glyph glyph-name="P" unicode="P" horiz-adv-x="579" 
d="M95 0v660h231q97 0 155 -50.5t58 -133.5v-20q0 -83 -58 -133.5t-155 -50.5h-170v-272h-61zM326 608h-170v-284h170q73 0 112.5 35t39.5 99v16q0 64 -39.5 99t-112.5 35z" />
    <glyph glyph-name="Q" unicode="Q" horiz-adv-x="676" 
d="M573 -90l-310 84q-91 25 -145 104.5t-54 198.5v66q0 92 32.5 162.5t94 110t147.5 39.5t147.5 -39.5t94 -110t32.5 -162.5v-66q0 -108 -47.5 -186t-145.5 -108l167 -43zM338 39q98 0 155.5 70.5t57.5 191.5v58q0 121 -57.5 191t-155.5 70t-155.5 -70t-57.5 -191v-58
q0 -121 57.5 -191.5t155.5 -70.5z" />
    <glyph glyph-name="R" unicode="R" horiz-adv-x="603" 
d="M95 0v660h235q62 0 108.5 -22.5t72.5 -63t26 -94.5v-19q0 -65 -39 -111t-104 -62l173 -288h-72l-166 281h-173v-281h-61zM330 608h-174v-275h174q70 0 108 34.5t38 95.5v15q0 62 -38 96t-108 34z" />
    <glyph glyph-name="S" unicode="S" horiz-adv-x="563" 
d="M268 -15q-63 0 -116 17.5t-109 58.5l31 46q48 -35 94 -51t99 -16q84 0 129 34t45 96q0 47 -29.5 79.5t-97.5 49.5l-85 21q-158 39 -158 174q0 85 60.5 133t163.5 48q61 0 110 -18t99 -58l-32 -45q-46 34 -88 50t-89 16q-75 0 -118.5 -33t-43.5 -92q0 -45 28.5 -74
t95.5 -46l85 -21q162 -40 162 -181q0 -87 -62.5 -137.5t-173.5 -50.5z" />
    <glyph glyph-name="T" unicode="T" horiz-adv-x="561" 
d="M250 0v607h-228v53h517v-53h-228v-607h-61z" />
    <glyph glyph-name="U" unicode="U" horiz-adv-x="668" 
d="M334 -15q-116 0 -182.5 72t-66.5 217v386h61v-385q0 -85 23.5 -137t66 -75t99.5 -23t99 23t65.5 75t23.5 137v385h60v-386q0 -145 -67 -217t-182 -72z" />
    <glyph glyph-name="V" unicode="V" horiz-adv-x="583" 
d="M242 0l-227 660h65l207 -607h12l207 607h62l-227 -660h-99z" />
    <glyph glyph-name="W" unicode="W" horiz-adv-x="868" 
d="M181 0l-156 660h62l140 -606h12l147 586h98l147 -586h12l140 606h60l-156 -660h-99l-148 586h-12l-148 -586h-99z" />
    <glyph glyph-name="X" unicode="X" horiz-adv-x="599" 
d="M20 0l239 333l-226 327h75l189 -280h10l189 280h70l-226 -325l239 -335h-75l-202 288h-10l-202 -288h-70z" />
    <glyph glyph-name="Y" unicode="Y" horiz-adv-x="564" 
d="M252 0v265l-232 395h69l190 -327h12l188 327h65l-232 -395v-265h-60z" />
    <glyph glyph-name="Z" unicode="Z" horiz-adv-x="550" 
d="M42 0v52l387 555h-365v53h438v-52l-388 -555h390v-53h-462z" />
    <glyph glyph-name="bracketleft" unicode="[" horiz-adv-x="365" 
d="M137 -190v916h208v-51h-147v-814h147v-51h-208z" />
    <glyph glyph-name="backslash" unicode="\" horiz-adv-x="401" 
d="M366 0h-60l-283 700h60z" />
    <glyph glyph-name="bracketright" unicode="]" horiz-adv-x="365" 
d="M20 -190v51h147v814h-147v51h208v-916h-208z" />
    <glyph glyph-name="asciicircum" unicode="^" horiz-adv-x="590" 
d="M96 279l168 381h62l168 -381h-57l-138 311h-10l-138 -311h-55z" />
    <glyph glyph-name="underscore" unicode="_" horiz-adv-x="500" 
d="M0 -130v50h500v-50h-500z" />
    <glyph glyph-name="grave" unicode="`" horiz-adv-x="552" 
d="M320 575l-121 143l40 32l115 -148z" />
    <glyph glyph-name="a" unicode="a" horiz-adv-x="497" 
d="M187 -10q-69 0 -111.5 38.5t-42.5 101.5q0 70 51.5 111t137.5 41h129v29q0 146 -128 146q-79 0 -132 -52l-32 37q66 66 166 66q90 0 136.5 -50t46.5 -147v-214q0 -57 43 -57q5 0 11 0.5t11 1.5v-49q-12 -3 -34 -3q-86 0 -86 102q-29 -49 -72 -75.5t-94 -26.5zM202 40
q47 0 86 27.5t63 77.5v90h-125q-63 0 -98.5 -27t-35.5 -76q0 -43 29 -67.5t81 -24.5z" />
    <glyph glyph-name="b" unicode="b" horiz-adv-x="557" 
d="M85 0v700h58v-294q27 48 69 74t95 26q59 0 103.5 -29.5t68.5 -83t24 -125.5v-40q0 -72 -24 -125.5t-68.5 -83t-103.5 -29.5q-55 0 -98 28t-70 80v-98h-54zM294 454q-48 0 -88 -28t-63 -77v-202q23 -49 63 -77t88 -28q70 0 110.5 50.5t40.5 138.5v34q0 88 -40.5 138.5
t-110.5 50.5z" />
    <glyph glyph-name="c" unicode="c" horiz-adv-x="463" 
d="M266 -12q-98 0 -155 65t-57 175v40q0 72 26 126t73 84t110 30q99 0 165 -75l-36 -36q-52 60 -127 60q-71 0 -112 -51.5t-41 -140.5v-34q0 -88 42.5 -140t113.5 -52q76 0 128 60l36 -34q-68 -77 -166 -77z" />
    <glyph glyph-name="d" unicode="d" horiz-adv-x="557" 
d="M250 -10q-60 0 -104 29.5t-68 83t-24 125.5v40q0 72 24 125.5t68 83t104 29.5q53 0 95 -26t69 -74v294h58v-700h-54v98q-27 -52 -70 -80t-98 -28zM112 231q0 -88 40 -138.5t111 -50.5q48 0 88 28t63 77v202q-23 49 -63 77t-88 28q-71 0 -111 -50.5t-40 -138.5v-34z" />
    <glyph glyph-name="e" unicode="e" horiz-adv-x="510" 
d="M271 -12q-71 0 -119 31t-73 85.5t-25 124.5v40q0 70 24 124t70 84.5t113 30.5t112 -32t68 -87t23 -123v-30h-353v-4q0 -89 41.5 -141t120.5 -52q47 0 81 17t60 43l35 -36q-33 -35 -77 -55t-101 -20zM260 457q-68 0 -106.5 -44t-42.5 -130h296q-3 81 -41.5 127.5
t-105.5 46.5z" />
    <glyph glyph-name="f" unicode="f" horiz-adv-x="333" 
d="M120 0v448h-88v48h88v36q0 180 156 180q22 0 41 -4v-51q-15 4 -36 4q-56 0 -79.5 -30t-23.5 -101v-34h140v-48h-140v-448h-58z" />
    <glyph glyph-name="g" unicode="g" horiz-adv-x="557" 
d="M250 -6q-60 0 -104 29t-68 82t-24 125v40q0 71 24.5 124t68.5 82.5t103 29.5q55 0 98.5 -28t69.5 -79v97h54v-486q0 -103 -57 -157.5t-163 -54.5t-174 65l31 40q60 -53 144 -53q79 0 120 40.5t41 119.5v83q-27 -47 -69 -73t-95 -26zM112 233q0 -87 40 -137t111 -50
q48 0 88 27.5t63 75.5v202q-23 48 -63 75.5t-88 27.5q-71 0 -111 -50t-40 -137v-34z" />
    <glyph glyph-name="h" unicode="h" horiz-adv-x="552" 
d="M85 0v700h58v-296q23 43 64 72.5t102 29.5q75 0 119.5 -48t44.5 -148v-310h-58v304q0 78 -32 114t-89 36t-94 -32.5t-57 -72.5v-349h-58z" />
    <glyph glyph-name="i" unicode="i" horiz-adv-x="228" 
d="M114 591q-20 0 -32 12.5t-12 30.5t12 30t32 12t32 -12t12 -30t-12 -30.5t-32 -12.5zM85 0v496h58v-496h-58z" />
    <glyph glyph-name="j" unicode="j" horiz-adv-x="228" 
d="M114 591q-20 0 -32 12.5t-12 30.5t12 30t32 12t32 -12t12 -30t-12 -30.5t-32 -12.5zM42 -202q-17 0 -38 3v49q7 -1 13.5 -1.5t13.5 -0.5q29 0 41.5 13.5t12.5 46.5v588h58v-588q0 -47 -22.5 -78.5t-78.5 -31.5z" />
    <glyph glyph-name="k" unicode="k" horiz-adv-x="491" 
d="M85 0v700h58v-413h89l161 209h68l-181 -232l191 -264h-71l-169 236h-88v-236h-58z" />
    <glyph glyph-name="l" unicode="l" horiz-adv-x="252" 
d="M186 -10q-56 0 -78.5 28.5t-22.5 75.5v606h58v-600q0 -33 12.5 -46.5t41.5 -13.5q7 0 13.5 0.5t13.5 1.5v-49q-21 -3 -38 -3z" />
    <glyph glyph-name="m" unicode="m" horiz-adv-x="866" 
d="M85 0v496h54v-96q23 44 63 75t102 31q57 0 96 -27.5t55 -85.5q22 46 64 79.5t109 33.5q74 0 116.5 -48t42.5 -148v-310h-58v305q0 77 -29.5 113t-85.5 36q-57 0 -93.5 -32t-55.5 -73v-349h-58v305q0 77 -31 113t-87 36t-91.5 -32t-54.5 -72v-350h-58z" />
    <glyph glyph-name="n" unicode="n" horiz-adv-x="552" 
d="M85 0v496h54v-98q23 44 64 76t105 32q75 0 120 -48t45 -147v-311h-58v304q0 78 -32 114t-89 36t-94 -32.5t-57 -72.5v-349h-58z" />
    <glyph glyph-name="o" unicode="o" horiz-adv-x="534" 
d="M267 -12q-67 0 -115 30t-73 84t-25 126v40q0 72 25 126t73 84t115 30t115 -30t73 -84t25 -126v-40q0 -72 -25 -126t-73 -84t-115 -30zM267 39q71 0 113 51t42 141v34q0 90 -42 141t-113 51t-113 -51t-42 -141v-34q0 -90 42 -141t113 -51z" />
    <glyph glyph-name="p" unicode="p" horiz-adv-x="557" 
d="M85 -190v686h54v-98q27 52 70 80t98 28q59 0 103.5 -29.5t68.5 -83t24 -125.5v-40q0 -72 -24 -125.5t-68.5 -83t-103.5 -29.5q-53 0 -95 26t-69 74v-280h-58zM294 454q-48 0 -88 -28t-63 -77v-202q23 -49 63 -77t88 -28q70 0 110.5 50.5t40.5 138.5v34q0 88 -40.5 138.5
t-110.5 50.5z" />
    <glyph glyph-name="q" unicode="q" horiz-adv-x="557" 
d="M250 -10q-60 0 -104 29.5t-68 83t-24 125.5v40q0 72 24 125.5t68.5 83t103.5 29.5q55 0 98 -28t70 -80v98h54v-686h-58v280q-27 -48 -69 -74t-95 -26zM112 231q0 -88 40 -138.5t111 -50.5q48 0 88 28t63 77v202q-23 49 -63 77t-88 28q-71 0 -111 -50.5t-40 -138.5v-34z
" />
    <glyph glyph-name="r" unicode="r" horiz-adv-x="370" 
d="M85 0v496h54v-112q12 31 35.5 58t58 44t82.5 17q19 0 35 -3v-53q-8 1 -17 1.5t-19 0.5q-67 0 -108.5 -35t-62.5 -80v-334h-58z" />
    <glyph glyph-name="s" unicode="s" horiz-adv-x="441" 
d="M208 -12q-104 0 -175 70l31 39q60 -57 144 -57q59 0 93 23.5t34 65.5q0 66 -88 87l-68 16q-61 14 -93 49.5t-32 87.5q0 64 46 101.5t125 37.5q49 0 89.5 -15t80.5 -48l-29 -41q-66 53 -140 53q-53 0 -84 -22.5t-31 -62.5q0 -68 89 -89l68 -16q62 -14 94 -49t32 -87
q0 -65 -50.5 -104t-135.5 -39z" />
    <glyph glyph-name="t" unicode="t" horiz-adv-x="330" 
d="M248 -10q-76 0 -106.5 39t-30.5 128v291h-92v48h92v117l58 14v-131h137v-48h-137v-289q0 -70 21.5 -94t70.5 -24q10 0 21 1t24 3v-50q-28 -5 -58 -5z" />
    <glyph glyph-name="u" unicode="u" horiz-adv-x="551" 
d="M243 -10q-76 0 -120 48t-44 148v310h58v-305q0 -77 31.5 -113t88.5 -36q58 0 95 33t56 74v347h58v-496h-54v98q-23 -45 -64.5 -76.5t-104.5 -31.5z" />
    <glyph glyph-name="v" unicode="v" horiz-adv-x="473" 
d="M191 0l-177 496h63l156 -445h10l156 445h60l-177 -496h-91z" />
    <glyph glyph-name="w" unicode="w" horiz-adv-x="766" 
d="M165 0l-145 496h63l124 -444h10l124 434h87l124 -434h10l124 444h60l-145 -496h-88l-125 434h-10l-125 -434h-88z" />
    <glyph glyph-name="x" unicode="x" horiz-adv-x="456" 
d="M13 0l176 250l-170 246h69l137 -204h10l137 204h65l-170 -244l176 -252h-69l-143 210h-10l-143 -210h-65z" />
    <glyph glyph-name="y" unicode="y" horiz-adv-x="472" 
d="M152 -190l70 190h-30l-178 496h63l156 -445h9l156 445h60l-248 -686h-58z" />
    <glyph glyph-name="z" unicode="z" horiz-adv-x="437" 
d="M34 0v47l296 399h-283v50h351v-47l-296 -399h301v-50h-369z" />
    <glyph glyph-name="braceleft" unicode="{" horiz-adv-x="375" 
d="M295 -190q-76 0 -110 35t-34 112v170q0 59 -19 86t-62 27h-12v56h12q43 0 62 27t19 86v170q0 77 34 112t110 35h60v-51h-57q-47 0 -68 -23.5t-21 -72.5v-170q0 -50 -16.5 -84.5t-53.5 -51.5v-10q37 -17 53.5 -51.5t16.5 -84.5v-170q0 -49 21 -72.5t68 -23.5h57v-51h-60z
" />
    <glyph glyph-name="bar" unicode="|" horiz-adv-x="261" 
d="M100 -190v916h61v-916h-61z" />
    <glyph glyph-name="braceright" unicode="}" horiz-adv-x="375" 
d="M20 -190v51h57q47 0 68 23.5t21 72.5v170q0 50 16.5 84.5t53.5 51.5v10q-37 17 -53.5 51.5t-16.5 84.5v170q0 49 -21 72.5t-68 23.5h-57v51h60q76 0 110 -35t34 -112v-170q0 -59 19 -86t62 -27h12v-56h-12q-43 0 -62 -27t-19 -86v-170q0 -77 -34 -112t-110 -35h-60z" />
    <glyph glyph-name="asciitilde" unicode="~" horiz-adv-x="590" 
d="M406 242q-26 0 -49 10t-51 35l-53 46q-23 19 -37.5 25.5t-28.5 6.5q-36 0 -51 -28.5t-15 -85.5h-51q0 79 29 122.5t85 43.5q26 0 49 -10t51 -35l53 -46q23 -20 37.5 -26t28.5 -6q36 0 51 28.5t15 85.5h51q0 -80 -29 -123t-85 -43z" />
    <glyph glyph-name="uni00A0" unicode="&#xa0;" horiz-adv-x="212" 
 />
    <glyph glyph-name="exclamdown" unicode="&#xa1;" horiz-adv-x="312" 
d="M156 508q20 0 34 -13.5t14 -33.5t-14 -33.5t-34 -13.5t-34 13.5t-14 33.5t14 33.5t34 13.5zM133 332h46l11 -494h-68z" />
    <glyph glyph-name="cent" unicode="&#xa2;" horiz-adv-x="590" 
d="M293 0v104q-71 11 -116.5 63.5t-45.5 137.5v50q0 82 44.5 136.5t117.5 64.5v104h55v-103q39 -5 70 -21.5t54 -41.5l-35 -36q-22 22 -49.5 35.5t-61.5 13.5q-58 0 -97.5 -40.5t-39.5 -114.5v-44q0 -74 41.5 -114.5t98.5 -40.5q37 0 65 14.5t49 36.5l35 -34
q-24 -27 -56.5 -45t-73.5 -22v-103h-55z" />
    <glyph glyph-name="sterling" unicode="&#xa3;" horiz-adv-x="590" 
d="M84 0v49q33 40 58 88t25 105q0 17 -2 35.5t-6 38.5h-88v53h79q-5 28 -9 56.5t-4 54.5q0 64 26 107.5t70 65.5t98 22q71 0 119.5 -31.5t79.5 -72.5l-42 -36q-30 40 -67.5 62.5t-86.5 22.5q-36 0 -66.5 -13.5t-49.5 -45t-19 -84.5q0 -25 4 -52.5t9 -55.5h187v-53h-177
q3 -19 5 -37.5t2 -35.5q0 -48 -18.5 -98t-51.5 -92h350v-53h-425z" />
    <glyph glyph-name="currency" unicode="&#xa4;" horiz-adv-x="590" 
d="M295 146q-66 0 -116 37l-73 -73l-38 38l74 74q-36 49 -36 114t36 114l-74 74l38 38l73 -73q50 37 116 37t116 -37l73 73l38 -38l-74 -74q36 -49 36 -114t-36 -114l74 -74l-38 -38l-73 73q-50 -37 -116 -37zM295 198q56 0 92 40t36 98t-36 98t-92 40t-92 -40t-36 -98
t36 -98t92 -40z" />
    <glyph glyph-name="yen" unicode="&#xa5;" horiz-adv-x="590" 
d="M75 124v53h190v90h-190v53h158l-190 340h69l180 -327h12l178 327h65l-190 -340h158v-53h-190v-90h190v-53h-190v-124h-60v124h-190z" />
    <glyph glyph-name="section" unicode="&#xa7;" horiz-adv-x="510" 
d="M242 -86q-105 0 -175 70l31 39q60 -57 144 -57q59 0 93 23.5t34 65.5q0 66 -88 87l-68 16q-61 14 -93 49.5t-32 87.5q0 36 22.5 64.5t60.5 49.5q-83 38 -83 123q0 64 47 101.5t126 37.5q48 0 88 -15t80 -48l-29 -41q-66 53 -140 53q-54 0 -84.5 -23t-30.5 -63
q0 -67 89 -88l68 -16q62 -14 94 -49t32 -87q0 -36 -20.5 -66.5t-60.5 -49.5q38 -18 59.5 -48t21.5 -72q0 -66 -50.5 -105t-135.5 -39zM302 193q5 -1 9 -2q58 39 58 100q0 67 -88 88l-68 16q-6 1 -11 3q-57 -40 -57 -99q0 -69 89 -90z" />
    <glyph glyph-name="dieresis" unicode="&#xa8;" horiz-adv-x="552" 
d="M374 595q-20 0 -31 12t-11 29t11 28.5t31 11.5t31 -11.5t11 -28.5t-11 -29t-31 -12zM178 595q-20 0 -31 12t-11 29t11 28.5t31 11.5t31 -11.5t11 -28.5t-11 -29t-31 -12z" />
    <glyph glyph-name="copyright" unicode="&#xa9;" horiz-adv-x="816" 
d="M406 -15q-74 0 -136.5 26t-109 72.5t-72 109.5t-25.5 137t25.5 137t72 109.5t109 72.5t136.5 26t137.5 -26t110.5 -72.5t73 -109.5t26 -137t-26 -137t-73 -109.5t-110.5 -72.5t-137.5 -26zM406 34q86 0 152 38t102.5 104.5t36.5 153.5q0 86 -37 153t-102.5 105t-151.5 38
t-150.5 -38t-100.5 -105t-36 -153q0 -87 36 -153.5t100.5 -104.5t150.5 -38zM415 162q-64 0 -102 42t-38 111v30q0 69 38 111t102 42q66 0 109 -50l-32 -34q-32 36 -75 36q-41 0 -64 -29t-23 -79v-24q0 -50 23 -79t64 -29q43 0 75 36l32 -34q-43 -50 -109 -50z" />
    <glyph glyph-name="ordfeminine" unicode="&#xaa;" horiz-adv-x="329" 
d="M122 349q-40 0 -65.5 24t-25.5 64q0 44 32 69.5t87 25.5h65v11q0 74 -68 74q-44 0 -74 -28l-28 37q41 40 105 40q118 0 118 -122v-113q0 -31 25 -31q5 0 11 1v-47q-8 -1 -15 -1.5t-12 -0.5q-52 0 -59 52q-33 -55 -96 -55zM138 396q50 0 77 46v49h-59q-32 0 -50.5 -13.5
t-18.5 -37.5q0 -44 51 -44z" />
    <glyph glyph-name="guillemotleft" unicode="&#xab;" horiz-adv-x="508" 
d="M220 45l-175 173v60l175 173l33 -33l-150 -164v-12l150 -164zM430 45l-175 173v60l175 173l33 -33l-150 -164v-12l150 -164z" />
    <glyph glyph-name="logicalnot" unicode="&#xac;" horiz-adv-x="590" 
d="M488 395v-226h-54v176h-352v50h406z" />
    <glyph glyph-name="uni00AD" unicode="&#xad;" horiz-adv-x="381" 
d="M39 279v57h303v-57h-303z" />
    <glyph glyph-name="registered" unicode="&#xae;" horiz-adv-x="590" 
d="M294 241q-62 0 -110.5 28.5t-77 77.5t-28.5 111t28.5 111t77 77.5t110.5 28.5t111.5 -28.5t78 -77.5t28.5 -111t-28.5 -111t-78 -77.5t-111.5 -28.5zM294 282q50 0 88 23t60 62.5t22 90.5t-22 90.5t-60 62.5t-88 23q-49 0 -87 -22.5t-59.5 -62t-21.5 -91.5
q0 -51 21.5 -90.5t59.5 -62.5t87 -23zM225 361v201h77q32 0 54 -15t22 -45v-6q0 -21 -10.5 -34.5t-28.5 -19.5l48 -81h-48l-40 75h-33v-75h-41zM302 529h-36v-61h36q34 0 34 28v5q0 28 -34 28z" />
    <glyph glyph-name="macron" unicode="&#xaf;" horiz-adv-x="552" 
d="M146 652h260v-44h-260v44z" />
    <glyph glyph-name="degree" unicode="&#xb0;" horiz-adv-x="450" 
d="M225 413q-65 0 -99.5 37.5t-34.5 93.5t34.5 93.5t99.5 37.5t99.5 -37.5t34.5 -93.5t-34.5 -93.5t-99.5 -37.5zM225 458q41 0 62.5 25t21.5 61t-21.5 61t-62.5 25t-62.5 -25t-21.5 -61t21.5 -61t62.5 -25z" />
    <glyph glyph-name="plusminus" unicode="&#xb1;" horiz-adv-x="590" 
d="M268 218v177h-186v50h186v177h54v-177h186v-50h-186v-177h-54zM82 85v50h426v-50h-426z" />
    <glyph glyph-name="uni00B2" unicode="&#xb2;" horiz-adv-x="281" 
d="M25 439v42l121 123q20 19 28 35t8 33q0 26 -15.5 39.5t-38.5 13.5q-22 0 -38 -10.5t-30 -29.5l-34 29q17 23 42 39t64 16q46 0 75 -24t29 -68q0 -29 -14.5 -53.5t-43.5 -53.5l-86 -87h152v-44h-219z" />
    <glyph glyph-name="uni00B3" unicode="&#xb3;" horiz-adv-x="304" 
d="M137 430q-68 0 -112 41l28 35q32 -32 84 -32q32 0 50 15t18 41q0 55 -72 55h-41v36l90 95h-134v44h196v-42l-89 -92q47 -1 75.5 -26.5t28.5 -69.5q0 -45 -33.5 -72.5t-88.5 -27.5z" />
    <glyph glyph-name="acute" unicode="&#xb4;" horiz-adv-x="552" 
d="M233 575l-34 27l115 148l40 -32z" />
    <glyph glyph-name="paragraph" unicode="&#xb6;" horiz-adv-x="560" 
d="M386 700h60v-828h-60v828zM285 700h36v-828h-60v410q-94 6 -150 59t-56 139v21q0 61 28.5 105.5t80.5 69t121 24.5z" />
    <glyph glyph-name="periodcentered" unicode="&#xb7;" horiz-adv-x="212" 
d="M106 206q-20 0 -34 13.5t-14 33.5t14 33.5t34 13.5t34 -13.5t14 -33.5t-14 -33.5t-34 -13.5z" />
    <glyph glyph-name="cedilla" unicode="&#xb8;" horiz-adv-x="552" 
d="M246 -202q-18 0 -46 4v46q22 -5 48 -5q52 0 52 36t-56 36h-23l26 108h42l-18 -69q81 -9 81 -75q0 -81 -106 -81z" />
    <glyph glyph-name="uni00B9" unicode="&#xb9;" horiz-adv-x="209" 
d="M86 439v277h-64v44h118v-321h-54z" />
    <glyph glyph-name="ordmasculine" unicode="&#xba;" horiz-adv-x="348" 
d="M174 349q-64 0 -100 40t-36 107v23q0 67 36 107t100 40t100 -40t36 -107v-23q0 -67 -36 -107t-100 -40zM174 399q38 0 59 25.5t21 72.5v21q0 47 -21 72.5t-59 25.5t-59 -25.5t-21 -72.5v-21q0 -47 21 -72.5t59 -25.5z" />
    <glyph glyph-name="guillemotright" unicode="&#xbb;" horiz-adv-x="508" 
d="M78 45l-33 33l150 164v12l-150 164l33 33l175 -173v-60zM288 45l-33 33l150 164v12l-150 164l33 33l175 -173v-60z" />
    <glyph glyph-name="onequarter" unicode="&#xbc;" horiz-adv-x="591" 
d="M119 339v277h-64v44h118v-321h-54zM22 0l440 660h58l-440 -660h-58zM467 0v75h-157v41l139 205h70v-202h47v-44h-47v-75h-52zM461 271l-104 -152h110v152h-6z" />
    <glyph glyph-name="onehalf" unicode="&#xbd;" horiz-adv-x="581" 
d="M22 0l440 660h58l-440 -660h-58zM119 339v277h-64v44h118v-321h-54zM325 0v42l121 123q20 19 28 35t8 33q0 26 -15.5 39.5t-38.5 13.5q-22 0 -38 -10.5t-30 -29.5l-34 29q17 23 42 39t64 16q46 0 75 -24t29 -68q0 -29 -14.5 -53.5t-43.5 -53.5l-86 -87h152v-44h-219z" />
    <glyph glyph-name="threequarters" unicode="&#xbe;" horiz-adv-x="653" 
d="M137 330q-68 0 -112 41l28 35q32 -32 84 -32q32 0 50 15t18 41q0 55 -72 55h-41v36l90 95h-134v44h196v-42l-89 -92q47 -1 75.5 -26.5t28.5 -69.5q0 -45 -33.5 -72.5t-88.5 -27.5zM84 0l440 660h58l-440 -660h-58zM529 0v75h-157v41l139 205h70v-202h47v-44h-47v-75h-52z
M523 271l-104 -152h110v152h-6z" />
    <glyph glyph-name="questiondown" unicode="&#xbf;" horiz-adv-x="457" 
d="M275 414q-20 0 -34 13.5t-14 33.5t14 33.5t34 13.5t34 -13.5t14 -33.5t-14 -33.5t-34 -13.5zM264 -177q-94 0 -150 48t-56 137q0 76 45.5 125.5t141.5 75.5l7 123h46l5 -157l-42 -12q-144 -42 -144 -155q0 -65 42 -99t106 -34q88 0 145 63l37 -33q-31 -40 -76.5 -61
t-106.5 -21z" />
    <glyph glyph-name="Agrave" unicode="&#xc0;" horiz-adv-x="591" 
d="M14 0l232 660h99l232 -660h-64l-65 187h-306l-65 -187h-63zM289 607l-129 -368h270l-129 368h-12zM304 720l-147 122l34 39l142 -128z" />
    <glyph glyph-name="Aacute" unicode="&#xc1;" horiz-adv-x="591" 
d="M14 0l232 660h99l232 -660h-64l-65 187h-306l-65 -187h-63zM289 607l-129 -368h270l-129 368h-12zM288 720l-29 33l142 128l34 -39z" />
    <glyph glyph-name="Acircumflex" unicode="&#xc2;" horiz-adv-x="591" 
d="M14 0l232 660h99l232 -660h-64l-65 187h-306l-65 -187h-63zM289 607l-129 -368h270l-129 368h-12zM171 720l-29 34l131 108h46l131 -108l-29 -34l-120 92h-10z" />
    <glyph glyph-name="Atilde" unicode="&#xc3;" horiz-adv-x="591" 
d="M14 0l232 660h99l232 -660h-64l-65 187h-306l-65 -187h-63zM289 607l-129 -368h270l-129 368h-12zM370 715q-32 0 -71 28l-34 24q-25 18 -43 18t-26 -14.5t-9 -49.5h-44q0 108 79 108q32 0 71 -28l34 -24q25 -18 43 -18t26 14.5t9 49.5h44q0 -108 -79 -108z" />
    <glyph glyph-name="Adieresis" unicode="&#xc4;" horiz-adv-x="591" 
d="M14 0l232 660h99l232 -660h-64l-65 187h-306l-65 -187h-63zM289 607l-129 -368h270l-129 368h-12zM395 730q-20 0 -31.5 12.5t-11.5 29.5t11.5 29t31.5 12q19 0 31 -12t12 -29t-12 -29.5t-31 -12.5zM197 730q-19 0 -31 12.5t-12 29.5t12 29t31 12q20 0 31.5 -12t11.5 -29
t-11.5 -29.5t-31.5 -12.5z" />
    <glyph glyph-name="Aring" unicode="&#xc5;" horiz-adv-x="591" 
d="M14 0l232 660h99l232 -660h-64l-65 187h-306l-65 -187h-63zM289 607l-129 -368h270l-129 368h-12zM296 720q-44 0 -74 26t-30 69t30 69t74 26t74 -26t30 -69t-30 -69t-74 -26zM296 756q28 0 44.5 16t16.5 43t-16.5 43t-44.5 16t-44.5 -16t-16.5 -43t16.5 -43t44.5 -16z
" />
    <glyph glyph-name="AE" unicode="&#xc6;" horiz-adv-x="890" 
d="M14 0l292 660h519v-53h-337v-244h307v-52h-307v-258h347v-53h-408v208h-259l-91 -208h-63zM344 607l-153 -347h236v347h-83z" />
    <glyph glyph-name="Ccedilla" unicode="&#xc7;" horiz-adv-x="605" 
d="M339 -15q-83 0 -144.5 39t-96 109.5t-34.5 163.5v66q0 93 34.5 163.5t96 109.5t144.5 39q129 0 217 -102l-39 -39q-76 86 -177 86q-66 0 -114 -32t-74.5 -91t-26.5 -138v-58q0 -79 26.5 -138t74.5 -91t113 -32q107 0 182 86l39 -39q-44 -51 -100.5 -76.5t-120.5 -25.5z
M322 -202q-20 0 -47 4v47q23 -5 48 -5q52 0 52 36q0 35 -56 35h-23l26 109h43l-18 -69q82 -9 82 -76q0 -40 -27.5 -60.5t-79.5 -20.5z" />
    <glyph glyph-name="Egrave" unicode="&#xc8;" horiz-adv-x="558" 
d="M95 0v660h398v-53h-337v-244h307v-52h-307v-258h347v-53h-408zM302 720l-147 122l34 39l142 -128z" />
    <glyph glyph-name="Eacute" unicode="&#xc9;" horiz-adv-x="558" 
d="M95 0v660h398v-53h-337v-244h307v-52h-307v-258h347v-53h-408zM286 720l-29 33l142 128l34 -39z" />
    <glyph glyph-name="Ecircumflex" unicode="&#xca;" horiz-adv-x="558" 
d="M95 0v660h398v-53h-337v-244h307v-52h-307v-258h347v-53h-408zM169 720l-29 34l131 108h46l131 -108l-29 -34l-120 92h-10z" />
    <glyph glyph-name="Edieresis" unicode="&#xcb;" horiz-adv-x="558" 
d="M95 0v660h398v-53h-337v-244h307v-52h-307v-258h347v-53h-408zM393 730q-20 0 -31.5 12.5t-11.5 29.5t11.5 29t31.5 12q19 0 31 -12t12 -29t-12 -29.5t-31 -12.5zM195 730q-19 0 -31 12.5t-12 29.5t12 29t31 12q20 0 31.5 -12t11.5 -29t-11.5 -29.5t-31.5 -12.5z" />
    <glyph glyph-name="Igrave" unicode="&#xcc;" horiz-adv-x="251" 
d="M95 0v660h61v-660h-61zM133 720l-147 122l34 39l142 -128z" />
    <glyph glyph-name="Iacute" unicode="&#xcd;" horiz-adv-x="251" 
d="M95 0v660h61v-660h-61zM117 720l-29 33l142 128l34 -39z" />
    <glyph glyph-name="Icircumflex" unicode="&#xce;" horiz-adv-x="251" 
d="M95 0v660h61v-660h-61zM0 720l-29 34l131 108h46l131 -108l-29 -34l-120 92h-10z" />
    <glyph glyph-name="Idieresis" unicode="&#xcf;" horiz-adv-x="251" 
d="M95 0v660h61v-660h-61zM224 730q-20 0 -31.5 12.5t-11.5 29.5t11.5 29t31.5 12q19 0 31 -12t12 -29t-12 -29.5t-31 -12.5zM26 730q-19 0 -31 12.5t-12 29.5t12 29t31 12q20 0 31.5 -12t11.5 -29t-11.5 -29.5t-31.5 -12.5z" />
    <glyph glyph-name="Eth" unicode="&#xd0;" horiz-adv-x="671" 
d="M95 0v307h-85v53h85v300h216q145 0 220.5 -82t75.5 -222v-52q0 -140 -75.5 -222t-220.5 -82h-216zM281 307h-125v-254h155q114 0 174.5 65.5t60.5 189.5v44q0 124 -60.5 189.5t-174.5 65.5h-155v-247h125v-53z" />
    <glyph glyph-name="Ntilde" unicode="&#xd1;" horiz-adv-x="700" 
d="M95 0v660h100l339 -600h11v600h60v-660h-100l-339 600h-11v-600h-60zM424 715q-32 0 -71 28l-34 24q-25 18 -43 18t-26 -14.5t-9 -49.5h-44q0 108 79 108q32 0 71 -28l34 -24q25 -18 43 -18t26 14.5t9 49.5h44q0 -108 -79 -108z" />
    <glyph glyph-name="Ograve" unicode="&#xd2;" horiz-adv-x="676" 
d="M338 -15q-87 0 -148 39.5t-93.5 110t-32.5 162.5v66q0 92 32.5 162.5t93.5 110t148 39.5q86 0 147.5 -39.5t94 -110t32.5 -162.5v-66q0 -92 -32.5 -162.5t-94 -110t-147.5 -39.5zM338 40q98 0 155.5 70t57.5 191v58q0 121 -57.5 191t-155.5 70t-155.5 -70t-57.5 -191v-58
q0 -121 57.5 -191t155.5 -70zM346 720l-147 122l34 39l142 -128z" />
    <glyph glyph-name="Oacute" unicode="&#xd3;" horiz-adv-x="676" 
d="M338 -15q-87 0 -148 39.5t-93.5 110t-32.5 162.5v66q0 92 32.5 162.5t93.5 110t148 39.5q86 0 147.5 -39.5t94 -110t32.5 -162.5v-66q0 -92 -32.5 -162.5t-94 -110t-147.5 -39.5zM338 40q98 0 155.5 70t57.5 191v58q0 121 -57.5 191t-155.5 70t-155.5 -70t-57.5 -191v-58
q0 -121 57.5 -191t155.5 -70zM330 720l-29 33l142 128l34 -39z" />
    <glyph glyph-name="Ocircumflex" unicode="&#xd4;" horiz-adv-x="676" 
d="M338 -15q-87 0 -148 39.5t-93.5 110t-32.5 162.5v66q0 92 32.5 162.5t93.5 110t148 39.5q86 0 147.5 -39.5t94 -110t32.5 -162.5v-66q0 -92 -32.5 -162.5t-94 -110t-147.5 -39.5zM338 40q98 0 155.5 70t57.5 191v58q0 121 -57.5 191t-155.5 70t-155.5 -70t-57.5 -191v-58
q0 -121 57.5 -191t155.5 -70zM213 720l-29 34l131 108h46l131 -108l-29 -34l-120 92h-10z" />
    <glyph glyph-name="Otilde" unicode="&#xd5;" horiz-adv-x="676" 
d="M338 -15q-87 0 -148 39.5t-93.5 110t-32.5 162.5v66q0 92 32.5 162.5t93.5 110t148 39.5q86 0 147.5 -39.5t94 -110t32.5 -162.5v-66q0 -92 -32.5 -162.5t-94 -110t-147.5 -39.5zM338 40q98 0 155.5 70t57.5 191v58q0 121 -57.5 191t-155.5 70t-155.5 -70t-57.5 -191v-58
q0 -121 57.5 -191t155.5 -70zM412 715q-32 0 -71 28l-34 24q-25 18 -43 18t-26 -14.5t-9 -49.5h-44q0 108 79 108q32 0 71 -28l34 -24q25 -18 43 -18t26 14.5t9 49.5h44q0 -108 -79 -108z" />
    <glyph glyph-name="Odieresis" unicode="&#xd6;" horiz-adv-x="676" 
d="M338 -15q-87 0 -148 39.5t-93.5 110t-32.5 162.5v66q0 92 32.5 162.5t93.5 110t148 39.5q86 0 147.5 -39.5t94 -110t32.5 -162.5v-66q0 -92 -32.5 -162.5t-94 -110t-147.5 -39.5zM338 40q98 0 155.5 70t57.5 191v58q0 121 -57.5 191t-155.5 70t-155.5 -70t-57.5 -191v-58
q0 -121 57.5 -191t155.5 -70zM437 730q-20 0 -31.5 12.5t-11.5 29.5t11.5 29t31.5 12q19 0 31 -12t12 -29t-12 -29.5t-31 -12.5zM239 730q-19 0 -31 12.5t-12 29.5t12 29t31 12q20 0 31.5 -12t11.5 -29t-11.5 -29.5t-31.5 -12.5z" />
    <glyph glyph-name="multiply" unicode="&#xd7;" horiz-adv-x="590" 
d="M140 137l-38 38l154 155l-154 154l38 38l154 -154l155 154l38 -38l-155 -154l155 -155l-38 -38l-155 155z" />
    <glyph glyph-name="Oslash" unicode="&#xd8;" horiz-adv-x="694" 
d="M347 -15q-67 0 -119.5 24.5t-87.5 68.5l-91 -93l-39 37l100 103q-37 73 -37 172v66q0 92 32.5 162.5t93.5 110t148 39.5q67 0 119.5 -24.5t87.5 -68.5l91 93l39 -37l-100 -103q37 -73 37 -172v-66q0 -92 -32.5 -162.5t-93.5 -110t-148 -39.5zM134 301q0 -73 22 -129
l356 366q-58 82 -165 82q-98 0 -155.5 -70t-57.5 -191v-58zM347 40q98 0 155.5 70t57.5 191v58q0 73 -22 129l-356 -366q58 -82 165 -82z" />
    <glyph glyph-name="Ugrave" unicode="&#xd9;" horiz-adv-x="668" 
d="M334 -15q-116 0 -182.5 72t-66.5 217v386h61v-385q0 -85 23.5 -137t66 -75t99.5 -23t99 23t65.5 75t23.5 137v385h60v-386q0 -145 -67 -217t-182 -72zM343 720l-147 122l34 39l142 -128z" />
    <glyph glyph-name="Uacute" unicode="&#xda;" horiz-adv-x="668" 
d="M334 -15q-116 0 -182.5 72t-66.5 217v386h61v-385q0 -85 23.5 -137t66 -75t99.5 -23t99 23t65.5 75t23.5 137v385h60v-386q0 -145 -67 -217t-182 -72zM327 720l-29 33l142 128l34 -39z" />
    <glyph glyph-name="Ucircumflex" unicode="&#xdb;" horiz-adv-x="668" 
d="M334 -15q-116 0 -182.5 72t-66.5 217v386h61v-385q0 -85 23.5 -137t66 -75t99.5 -23t99 23t65.5 75t23.5 137v385h60v-386q0 -145 -67 -217t-182 -72zM210 720l-29 34l131 108h46l131 -108l-29 -34l-120 92h-10z" />
    <glyph glyph-name="Udieresis" unicode="&#xdc;" horiz-adv-x="668" 
d="M334 -15q-116 0 -182.5 72t-66.5 217v386h61v-385q0 -85 23.5 -137t66 -75t99.5 -23t99 23t65.5 75t23.5 137v385h60v-386q0 -145 -67 -217t-182 -72zM434 730q-20 0 -31.5 12.5t-11.5 29.5t11.5 29t31.5 12q19 0 31 -12t12 -29t-12 -29.5t-31 -12.5zM236 730
q-19 0 -31 12.5t-12 29.5t12 29t31 12q20 0 31.5 -12t11.5 -29t-11.5 -29.5t-31.5 -12.5z" />
    <glyph glyph-name="Yacute" unicode="&#xdd;" horiz-adv-x="564" 
d="M252 0v265l-232 395h69l190 -327h12l188 327h65l-232 -395v-265h-60zM274 720l-29 33l142 128l34 -39z" />
    <glyph glyph-name="Thorn" unicode="&#xde;" horiz-adv-x="579" 
d="M95 0v660h61v-132h170q97 0 155 -50.5t58 -133.5v-20q0 -83 -58 -133.5t-155 -50.5h-170v-140h-61zM326 476h-170v-284h170q73 0 112.5 35t39.5 99v16q0 64 -39.5 99t-112.5 35z" />
    <glyph glyph-name="germandbls" unicode="&#xdf;" horiz-adv-x="566" 
d="M306 -12q-26 0 -47.5 4t-46.5 15l16 47q22 -7 40 -11t41 -4q37 0 69 13.5t52 43.5t20 79v24q0 49 -20 79t-54 44t-74 14h-32v51h25q49 0 83 33t34 98v19q0 61 -37 92.5t-97 31.5q-62 0 -98.5 -35.5t-36.5 -108.5v-517h-58v517q0 97 52.5 146t140.5 49t139.5 -45.5
t51.5 -127.5v-23q0 -62 -30.5 -100t-80.5 -51q40 -5 74.5 -23.5t55 -53.5t20.5 -87v-28q0 -90 -56 -137.5t-146 -47.5z" />
    <glyph glyph-name="agrave" unicode="&#xe0;" horiz-adv-x="497" 
d="M187 -10q-69 0 -111.5 38.5t-42.5 101.5q0 70 51.5 111t137.5 41h129v29q0 146 -128 146q-79 0 -132 -52l-32 37q66 66 166 66q90 0 136.5 -50t46.5 -147v-214q0 -57 43 -57q5 0 11 0.5t11 1.5v-49q-12 -3 -34 -3q-86 0 -86 102q-29 -49 -72 -75.5t-94 -26.5zM202 40
q47 0 86 27.5t63 77.5v90h-125q-63 0 -98.5 -27t-35.5 -76q0 -43 29 -67.5t81 -24.5zM253 575l-121 143l40 32l115 -148z" />
    <glyph glyph-name="aacute" unicode="&#xe1;" horiz-adv-x="497" 
d="M187 -10q-69 0 -111.5 38.5t-42.5 101.5q0 70 51.5 111t137.5 41h129v29q0 146 -128 146q-79 0 -132 -52l-32 37q66 66 166 66q90 0 136.5 -50t46.5 -147v-214q0 -57 43 -57q5 0 11 0.5t11 1.5v-49q-12 -3 -34 -3q-86 0 -86 102q-29 -49 -72 -75.5t-94 -26.5zM202 40
q47 0 86 27.5t63 77.5v90h-125q-63 0 -98.5 -27t-35.5 -76q0 -43 29 -67.5t81 -24.5zM239 575l-34 27l115 148l40 -32z" />
    <glyph glyph-name="acircumflex" unicode="&#xe2;" horiz-adv-x="497" 
d="M187 -10q-69 0 -111.5 38.5t-42.5 101.5q0 70 51.5 111t137.5 41h129v29q0 146 -128 146q-79 0 -132 -52l-32 37q66 66 166 66q90 0 136.5 -50t46.5 -147v-214q0 -57 43 -57q5 0 11 0.5t11 1.5v-49q-12 -3 -34 -3q-86 0 -86 102q-29 -49 -72 -75.5t-94 -26.5zM202 40
q47 0 86 27.5t63 77.5v90h-125q-63 0 -98.5 -27t-35.5 -76q0 -43 29 -67.5t81 -24.5zM126 575l-30 31l127 132h46l127 -132l-30 -31l-115 112h-10z" />
    <glyph glyph-name="atilde" unicode="&#xe3;" horiz-adv-x="497" 
d="M187 -10q-69 0 -111.5 38.5t-42.5 101.5q0 70 51.5 111t137.5 41h129v29q0 146 -128 146q-79 0 -132 -52l-32 37q66 66 166 66q90 0 136.5 -50t46.5 -147v-214q0 -57 43 -57q5 0 11 0.5t11 1.5v-49q-12 -3 -34 -3q-86 0 -86 102q-29 -49 -72 -75.5t-94 -26.5zM202 40
q47 0 86 27.5t63 77.5v90h-125q-63 0 -98.5 -27t-35.5 -76q0 -43 29 -67.5t81 -24.5zM324 580q-17 0 -32 6t-38 22l-33 23q-26 18 -43 18t-25 -14.5t-9 -48.5h-43q0 106 77 106q17 0 32 -6t38 -22l33 -23q26 -18 43 -18t25 14.5t9 48.5h43q0 -106 -77 -106z" />
    <glyph glyph-name="adieresis" unicode="&#xe4;" horiz-adv-x="497" 
d="M187 -10q-69 0 -111.5 38.5t-42.5 101.5q0 70 51.5 111t137.5 41h129v29q0 146 -128 146q-79 0 -132 -52l-32 37q66 66 166 66q90 0 136.5 -50t46.5 -147v-214q0 -57 43 -57q5 0 11 0.5t11 1.5v-49q-12 -3 -34 -3q-86 0 -86 102q-29 -49 -72 -75.5t-94 -26.5zM202 40
q47 0 86 27.5t63 77.5v90h-125q-63 0 -98.5 -27t-35.5 -76q0 -43 29 -67.5t81 -24.5zM344 595q-20 0 -31 12t-11 29t11 28.5t31 11.5t31 -11.5t11 -28.5t-11 -29t-31 -12zM148 595q-20 0 -31 12t-11 29t11 28.5t31 11.5t31 -11.5t11 -28.5t-11 -29t-31 -12z" />
    <glyph glyph-name="aring" unicode="&#xe5;" horiz-adv-x="497" 
d="M187 -10q-69 0 -111.5 38.5t-42.5 101.5q0 70 51.5 111t137.5 41h129v29q0 146 -128 146q-79 0 -132 -52l-32 37q66 66 166 66q90 0 136.5 -50t46.5 -147v-214q0 -57 43 -57q5 0 11 0.5t11 1.5v-49q-12 -3 -34 -3q-86 0 -86 102q-29 -49 -72 -75.5t-94 -26.5zM202 40
q47 0 86 27.5t63 77.5v90h-125q-63 0 -98.5 -27t-35.5 -76q0 -43 29 -67.5t81 -24.5zM246 575q-43 0 -72.5 25t-29.5 68t29.5 68t72.5 25t72.5 -25t29.5 -68t-29.5 -68t-72.5 -25zM246 610q27 0 43.5 16t16.5 42t-16.5 42t-43.5 16t-43.5 -16t-16.5 -42t16.5 -42t43.5 -16z
" />
    <glyph glyph-name="ae" unicode="&#xe6;" horiz-adv-x="808" 
d="M187 -10q-73 0 -113.5 41t-40.5 99q0 42 21 77.5t63.5 56.5t104.5 21h130v26q0 71 -32 108.5t-97 37.5q-47 0 -78 -15t-54 -37l-32 37q29 29 69 47.5t97 18.5q61 0 102 -24t61 -78q53 102 171 102q67 0 112 -32t68 -87t23 -123v-30h-353v-4q0 -89 41.5 -141t120.5 -52
q47 0 81 17t60 43l35 -36q-33 -35 -77 -55t-101 -20q-73 0 -122 33.5t-73 90.5q-23 -46 -55 -73t-67 -38t-65 -11zM558 457q-68 0 -106.5 -44t-42.5 -130h296q-3 81 -41.5 127.5t-105.5 46.5zM202 40q42 0 87.5 26t70.5 87q-8 36 -8 76v9h-126q-66 0 -100 -30t-34 -76
q0 -43 29 -67.5t81 -24.5z" />
    <glyph glyph-name="ccedilla" unicode="&#xe7;" horiz-adv-x="463" 
d="M266 -12q-98 0 -155 65t-57 175v40q0 72 26 126t73 84t110 30q99 0 165 -75l-36 -36q-52 60 -127 60q-71 0 -112 -51.5t-41 -140.5v-34q0 -88 42.5 -140t113.5 -52q76 0 128 60l36 -34q-68 -77 -166 -77zM246 -202q-18 0 -46 4v46q22 -5 48 -5q52 0 52 36t-56 36h-23
l26 108h42l-18 -69q81 -9 81 -75q0 -81 -106 -81z" />
    <glyph glyph-name="egrave" unicode="&#xe8;" horiz-adv-x="510" 
d="M271 -12q-71 0 -119 31t-73 85.5t-25 124.5v40q0 70 24 124t70 84.5t113 30.5t112 -32t68 -87t23 -123v-30h-353v-4q0 -89 41.5 -141t120.5 -52q47 0 81 17t60 43l35 -36q-33 -35 -77 -55t-101 -20zM260 457q-68 0 -106.5 -44t-42.5 -130h296q-3 81 -41.5 127.5
t-105.5 46.5zM262 575l-121 143l40 32l115 -148z" />
    <glyph glyph-name="eacute" unicode="&#xe9;" horiz-adv-x="510" 
d="M271 -12q-71 0 -119 31t-73 85.5t-25 124.5v40q0 70 24 124t70 84.5t113 30.5t112 -32t68 -87t23 -123v-30h-353v-4q0 -89 41.5 -141t120.5 -52q47 0 81 17t60 43l35 -36q-33 -35 -77 -55t-101 -20zM260 457q-68 0 -106.5 -44t-42.5 -130h296q-3 81 -41.5 127.5
t-105.5 46.5zM248 575l-34 27l115 148l40 -32z" />
    <glyph glyph-name="ecircumflex" unicode="&#xea;" horiz-adv-x="510" 
d="M271 -12q-71 0 -119 31t-73 85.5t-25 124.5v40q0 70 24 124t70 84.5t113 30.5t112 -32t68 -87t23 -123v-30h-353v-4q0 -89 41.5 -141t120.5 -52q47 0 81 17t60 43l35 -36q-33 -35 -77 -55t-101 -20zM260 457q-68 0 -106.5 -44t-42.5 -130h296q-3 81 -41.5 127.5
t-105.5 46.5zM135 575l-30 31l127 132h46l127 -132l-30 -31l-115 112h-10z" />
    <glyph glyph-name="edieresis" unicode="&#xeb;" horiz-adv-x="510" 
d="M271 -12q-71 0 -119 31t-73 85.5t-25 124.5v40q0 70 24 124t70 84.5t113 30.5t112 -32t68 -87t23 -123v-30h-353v-4q0 -89 41.5 -141t120.5 -52q47 0 81 17t60 43l35 -36q-33 -35 -77 -55t-101 -20zM260 457q-68 0 -106.5 -44t-42.5 -130h296q-3 81 -41.5 127.5
t-105.5 46.5zM353 595q-20 0 -31 12t-11 29t11 28.5t31 11.5t31 -11.5t11 -28.5t-11 -29t-31 -12zM157 595q-20 0 -31 12t-11 29t11 28.5t31 11.5t31 -11.5t11 -28.5t-11 -29t-31 -12z" />
    <glyph glyph-name="igrave" unicode="&#xec;" horiz-adv-x="228" 
d="M85 0v496h58v-496h-58zM121 575l-121 143l40 32l115 -148z" />
    <glyph glyph-name="iacute" unicode="&#xed;" horiz-adv-x="228" 
d="M85 0v496h58v-496h-58zM107 575l-34 27l115 148l40 -32z" />
    <glyph glyph-name="icircumflex" unicode="&#xee;" horiz-adv-x="228" 
d="M85 0v496h58v-496h-58zM6 575l-31 29l116 134h46l116 -134l-31 -29l-103 112h-10z" />
    <glyph glyph-name="idieresis" unicode="&#xef;" horiz-adv-x="228" 
d="M85 0v496h58v-496h-58zM197 595q-19 0 -30.5 12t-11.5 29t11.5 28.5t30.5 11.5t30.5 -11.5t11.5 -28.5t-11.5 -29t-30.5 -12zM31 595q-19 0 -30.5 12t-11.5 29t11.5 28.5t30.5 11.5t30.5 -11.5t11.5 -28.5t-11.5 -29t-30.5 -12z" />
    <glyph glyph-name="eth" unicode="&#xf0;" horiz-adv-x="536" 
d="M265 -12q-62 0 -109.5 29t-74.5 80t-27 116v39q0 64 26.5 113.5t73 77.5t106.5 28q77 0 130 -56q-33 72 -104 152l-155 -50v48l120 39q-43 44 -101 96h73q46 -40 82 -78l177 57v-48l-143 -46q76 -87 109.5 -167t33.5 -164q0 -128 -56.5 -197t-160.5 -69zM112 213
q0 -51 19.5 -90t54 -61.5t79.5 -22.5q78 0 118.5 54.5t40.5 160.5q0 42 -8 80q-50 86 -138 86q-76 0 -121 -45t-45 -123v-39z" />
    <glyph glyph-name="ntilde" unicode="&#xf1;" horiz-adv-x="552" 
d="M85 0v496h54v-98q23 44 64 76t105 32q75 0 120 -48t45 -147v-311h-58v304q0 78 -32 114t-89 36t-94 -32.5t-57 -72.5v-349h-58zM357 580q-17 0 -32 6t-38 22l-33 23q-26 18 -43 18t-25 -14.5t-9 -48.5h-43q0 106 77 106q17 0 32 -6t38 -22l33 -23q26 -18 43 -18t25 14.5
t9 48.5h43q0 -106 -77 -106z" />
    <glyph glyph-name="ograve" unicode="&#xf2;" horiz-adv-x="534" 
d="M267 -12q-67 0 -115 30t-73 84t-25 126v40q0 72 25 126t73 84t115 30t115 -30t73 -84t25 -126v-40q0 -72 -25 -126t-73 -84t-115 -30zM267 39q71 0 113 51t42 141v34q0 90 -42 141t-113 51t-113 -51t-42 -141v-34q0 -90 42 -141t113 -51zM274 575l-121 143l40 32
l115 -148z" />
    <glyph glyph-name="oacute" unicode="&#xf3;" horiz-adv-x="534" 
d="M267 -12q-67 0 -115 30t-73 84t-25 126v40q0 72 25 126t73 84t115 30t115 -30t73 -84t25 -126v-40q0 -72 -25 -126t-73 -84t-115 -30zM267 39q71 0 113 51t42 141v34q0 90 -42 141t-113 51t-113 -51t-42 -141v-34q0 -90 42 -141t113 -51zM260 575l-34 27l115 148l40 -32z
" />
    <glyph glyph-name="ocircumflex" unicode="&#xf4;" horiz-adv-x="534" 
d="M267 -12q-67 0 -115 30t-73 84t-25 126v40q0 72 25 126t73 84t115 30t115 -30t73 -84t25 -126v-40q0 -72 -25 -126t-73 -84t-115 -30zM267 39q71 0 113 51t42 141v34q0 90 -42 141t-113 51t-113 -51t-42 -141v-34q0 -90 42 -141t113 -51zM147 575l-30 31l127 132h46
l127 -132l-30 -31l-115 112h-10z" />
    <glyph glyph-name="otilde" unicode="&#xf5;" horiz-adv-x="534" 
d="M267 -12q-67 0 -115 30t-73 84t-25 126v40q0 72 25 126t73 84t115 30t115 -30t73 -84t25 -126v-40q0 -72 -25 -126t-73 -84t-115 -30zM267 39q71 0 113 51t42 141v34q0 90 -42 141t-113 51t-113 -51t-42 -141v-34q0 -90 42 -141t113 -51zM345 580q-17 0 -32 6t-38 22
l-33 23q-26 18 -43 18t-25 -14.5t-9 -48.5h-43q0 106 77 106q17 0 32 -6t38 -22l33 -23q26 -18 43 -18t25 14.5t9 48.5h43q0 -106 -77 -106z" />
    <glyph glyph-name="odieresis" unicode="&#xf6;" horiz-adv-x="534" 
d="M267 -12q-67 0 -115 30t-73 84t-25 126v40q0 72 25 126t73 84t115 30t115 -30t73 -84t25 -126v-40q0 -72 -25 -126t-73 -84t-115 -30zM267 39q71 0 113 51t42 141v34q0 90 -42 141t-113 51t-113 -51t-42 -141v-34q0 -90 42 -141t113 -51zM365 595q-20 0 -31 12t-11 29
t11 28.5t31 11.5t31 -11.5t11 -28.5t-11 -29t-31 -12zM169 595q-20 0 -31 12t-11 29t11 28.5t31 11.5t31 -11.5t11 -28.5t-11 -29t-31 -12z" />
    <glyph glyph-name="divide" unicode="&#xf7;" horiz-adv-x="590" 
d="M295 476q-19 0 -31.5 12t-12.5 31t12.5 30.5t31.5 11.5t31.5 -11.5t12.5 -30.5t-12.5 -31t-31.5 -12zM82 305v50h426v-50h-426zM295 99q-19 0 -31.5 12t-12.5 31t12.5 30.5t31.5 11.5t31.5 -11.5t12.5 -30.5t-12.5 -31t-31.5 -12z" />
    <glyph glyph-name="oslash" unicode="&#xf8;" horiz-adv-x="534" 
d="M37 -12l-34 35l77 77q-26 55 -26 128v40q0 72 25 126t73 84t115 30q52 0 92 -18t68 -51l70 69l34 -35l-77 -77q26 -55 26 -128v-40q0 -72 -25 -126t-73 -84t-115 -30q-52 0 -92 18t-68 51zM112 231q0 -49 13 -87l261 254q-42 59 -119 59q-71 0 -113 -51t-42 -141v-34z
M267 39q71 0 113 51t42 141v34q0 49 -13 87l-261 -254q42 -59 119 -59z" />
    <glyph glyph-name="ugrave" unicode="&#xf9;" horiz-adv-x="551" 
d="M243 -10q-76 0 -120 48t-44 148v310h58v-305q0 -77 31.5 -113t88.5 -36q58 0 95 33t56 74v347h58v-496h-54v98q-23 -45 -64.5 -76.5t-104.5 -31.5zM280 575l-121 143l40 32l115 -148z" />
    <glyph glyph-name="uacute" unicode="&#xfa;" horiz-adv-x="551" 
d="M243 -10q-76 0 -120 48t-44 148v310h58v-305q0 -77 31.5 -113t88.5 -36q58 0 95 33t56 74v347h58v-496h-54v98q-23 -45 -64.5 -76.5t-104.5 -31.5zM266 575l-34 27l115 148l40 -32z" />
    <glyph glyph-name="ucircumflex" unicode="&#xfb;" horiz-adv-x="551" 
d="M243 -10q-76 0 -120 48t-44 148v310h58v-305q0 -77 31.5 -113t88.5 -36q58 0 95 33t56 74v347h58v-496h-54v98q-23 -45 -64.5 -76.5t-104.5 -31.5zM153 575l-30 31l127 132h46l127 -132l-30 -31l-115 112h-10z" />
    <glyph glyph-name="udieresis" unicode="&#xfc;" horiz-adv-x="551" 
d="M243 -10q-76 0 -120 48t-44 148v310h58v-305q0 -77 31.5 -113t88.5 -36q58 0 95 33t56 74v347h58v-496h-54v98q-23 -45 -64.5 -76.5t-104.5 -31.5zM371 595q-20 0 -31 12t-11 29t11 28.5t31 11.5t31 -11.5t11 -28.5t-11 -29t-31 -12zM175 595q-20 0 -31 12t-11 29
t11 28.5t31 11.5t31 -11.5t11 -28.5t-11 -29t-31 -12z" />
    <glyph glyph-name="yacute" unicode="&#xfd;" horiz-adv-x="472" 
d="M152 -190l70 190h-30l-178 496h63l156 -445h9l156 445h60l-248 -686h-58zM229 575l-34 27l115 148l40 -32z" />
    <glyph glyph-name="thorn" unicode="&#xfe;" horiz-adv-x="557" 
d="M85 -190v890h58v-294q23 41 63 70.5t101 29.5q59 0 103 -29t68.5 -82.5t24.5 -126.5v-40q0 -73 -24.5 -126.5t-68.5 -82.5t-103 -29q-61 0 -101 29.5t-63 70.5v-280h-58zM294 454q-57 0 -94.5 -32.5t-56.5 -72.5v-202q19 -40 56.5 -72.5t94.5 -32.5q66 0 108.5 48
t42.5 141v34q0 93 -42.5 141t-108.5 48z" />
    <glyph glyph-name="ydieresis" unicode="&#xff;" horiz-adv-x="472" 
d="M152 -190l70 190h-30l-178 496h63l156 -445h9l156 445h60l-248 -686h-58zM334 595q-20 0 -31 12t-11 29t11 28.5t31 11.5t31 -11.5t11 -28.5t-11 -29t-31 -12zM138 595q-20 0 -31 12t-11 29t11 28.5t31 11.5t31 -11.5t11 -28.5t-11 -29t-31 -12z" />
    <glyph glyph-name="Amacron" unicode="&#x100;" horiz-adv-x="591" 
d="M14 0l232 660h99l232 -660h-64l-65 187h-306l-65 -187h-63zM289 607l-129 -368h270l-129 368h-12zM165 794h262v-45h-262v45z" />
    <glyph glyph-name="amacron" unicode="&#x101;" horiz-adv-x="497" 
d="M187 -10q-69 0 -111.5 38.5t-42.5 101.5q0 70 51.5 111t137.5 41h129v29q0 146 -128 146q-79 0 -132 -52l-32 37q66 66 166 66q90 0 136.5 -50t46.5 -147v-214q0 -57 43 -57q5 0 11 0.5t11 1.5v-49q-12 -3 -34 -3q-86 0 -86 102q-29 -49 -72 -75.5t-94 -26.5zM202 40
q47 0 86 27.5t63 77.5v90h-125q-63 0 -98.5 -27t-35.5 -76q0 -43 29 -67.5t81 -24.5zM116 652h260v-44h-260v44z" />
    <glyph glyph-name="Abreve" unicode="&#x102;" horiz-adv-x="591" 
d="M14 0l232 660h99l232 -660h-64l-65 187h-306l-65 -187h-63zM289 607l-129 -368h270l-129 368h-12zM296 720q-68 0 -104 36t-40 85h47q4 -30 27 -52t70 -22t70 22t27 52h47q-4 -49 -40 -85t-104 -36z" />
    <glyph glyph-name="abreve" unicode="&#x103;" horiz-adv-x="497" 
d="M187 -10q-69 0 -111.5 38.5t-42.5 101.5q0 70 51.5 111t137.5 41h129v29q0 146 -128 146q-79 0 -132 -52l-32 37q66 66 166 66q90 0 136.5 -50t46.5 -147v-214q0 -57 43 -57q5 0 11 0.5t11 1.5v-49q-12 -3 -34 -3q-86 0 -86 102q-29 -49 -72 -75.5t-94 -26.5zM202 40
q47 0 86 27.5t63 77.5v90h-125q-63 0 -98.5 -27t-35.5 -76q0 -43 29 -67.5t81 -24.5zM246 575q-67 0 -102 35.5t-39 83.5h46q4 -30 26.5 -51.5t68.5 -21.5t68.5 21.5t26.5 51.5h46q-4 -48 -39 -83.5t-102 -35.5z" />
    <glyph glyph-name="Aogonek" unicode="&#x104;" horiz-adv-x="591" 
d="M14 0l232 660h99l232 -660h-64l-65 187h-306l-65 -187h-63zM289 607l-129 -368h270l-129 368h-12zM532 -202q-43 0 -75.5 25t-32.5 75q0 51 39 83t97 44l17 -25q-41 -13 -69.5 -37.5t-28.5 -59.5q0 -24 12 -36.5t27.5 -16.5t26.5 -4q22 0 37 3v-47q-15 -2 -28 -3t-22 -1z
" />
    <glyph glyph-name="aogonek" unicode="&#x105;" horiz-adv-x="497" 
d="M187 -10q-69 0 -111.5 38.5t-42.5 101.5q0 70 51.5 111t137.5 41h129v29q0 146 -128 146q-79 0 -132 -52l-32 37q66 66 166 66q90 0 136.5 -50t46.5 -147v-211q0 -57 43 -57q5 0 11 0.5t11 1.5v-49q-43 -7 -70 -34.5t-27 -59.5q0 -26 18 -41.5t52 -15.5q8 0 16.5 0.5
t14.5 2.5v-46q-11 -2 -23.5 -3t-20.5 -1q-51 0 -79.5 24t-28.5 67q0 35 21.5 64t53.5 46q-47 20 -47 93q-29 -49 -72 -75.5t-94 -26.5zM202 40q47 0 86 27.5t63 77.5v90h-125q-63 0 -98.5 -27t-35.5 -76q0 -43 29 -67.5t81 -24.5z" />
    <glyph glyph-name="Cacute" unicode="&#x106;" horiz-adv-x="605" 
d="M339 -15q-83 0 -144.5 39t-96 109.5t-34.5 163.5v66q0 93 34.5 163.5t96 109.5t144.5 39q129 0 217 -102l-39 -39q-76 86 -177 86q-66 0 -114 -32t-74.5 -91t-26.5 -138v-58q0 -79 26.5 -138t74.5 -91t113 -32q107 0 182 86l39 -39q-44 -51 -100.5 -76.5t-120.5 -25.5z
M331 720l-29 33l142 128l34 -39z" />
    <glyph glyph-name="cacute" unicode="&#x107;" horiz-adv-x="463" 
d="M266 -12q-98 0 -155 65t-57 175v40q0 72 26 126t73 84t110 30q99 0 165 -75l-36 -36q-52 60 -127 60q-71 0 -112 -51.5t-41 -140.5v-34q0 -88 42.5 -140t113.5 -52q76 0 128 60l36 -34q-68 -77 -166 -77zM256 575l-34 27l115 148l40 -32z" />
    <glyph glyph-name="Cdotaccent" unicode="&#x10a;" horiz-adv-x="605" 
d="M339 -15q-83 0 -144.5 39t-96 109.5t-34.5 163.5v66q0 93 34.5 163.5t96 109.5t144.5 39q129 0 217 -102l-39 -39q-76 86 -177 86q-66 0 -114 -32t-74.5 -91t-26.5 -138v-58q0 -79 26.5 -138t74.5 -91t113 -32q107 0 182 86l39 -39q-44 -51 -100.5 -76.5t-120.5 -25.5z
M339 729q-20 0 -32 12.5t-12 30.5t12 30t32 12t32 -12t12 -30t-12 -30.5t-32 -12.5z" />
    <glyph glyph-name="cdotaccent" unicode="&#x10b;" horiz-adv-x="463" 
d="M266 -12q-98 0 -155 65t-57 175v40q0 72 26 126t73 84t110 30q99 0 165 -75l-36 -36q-52 60 -127 60q-71 0 -112 -51.5t-41 -140.5v-34q0 -88 42.5 -140t113.5 -52q76 0 128 60l36 -34q-68 -77 -166 -77zM263 591q-20 0 -32 12.5t-12 30.5t12 30t32 12t32 -12t12 -30
t-12 -30.5t-32 -12.5z" />
    <glyph glyph-name="Ccaron" unicode="&#x10c;" horiz-adv-x="605" 
d="M339 -15q-83 0 -144.5 39t-96 109.5t-34.5 163.5v66q0 93 34.5 163.5t96 109.5t144.5 39q129 0 217 -102l-39 -39q-76 86 -177 86q-66 0 -114 -32t-74.5 -91t-26.5 -138v-58q0 -79 26.5 -138t74.5 -91t113 -32q107 0 182 86l39 -39q-44 -51 -100.5 -76.5t-120.5 -25.5z
M214 872l120 -92h10l120 92l29 -34l-131 -108h-46l-131 108z" />
    <glyph glyph-name="ccaron" unicode="&#x10d;" horiz-adv-x="463" 
d="M266 -12q-98 0 -155 65t-57 175v40q0 72 26 126t73 84t110 30q99 0 165 -75l-36 -36q-52 60 -127 60q-71 0 -112 -51.5t-41 -140.5v-34q0 -88 42.5 -140t113.5 -52q76 0 128 60l36 -34q-68 -77 -166 -77zM143 748l115 -112h10l115 112l30 -31l-127 -132h-46l-127 132z
" />
    <glyph glyph-name="Dcaron" unicode="&#x10e;" horiz-adv-x="671" 
d="M95 0v660h216q140 0 218 -80t78 -224v-52q0 -144 -78 -224t-218 -80h-216zM311 607h-155v-554h155q114 0 174.5 65.5t60.5 189.5v44q0 124 -60.5 189.5t-174.5 65.5zM186 872l120 -92h10l120 92l29 -34l-131 -108h-46l-131 108z" />
    <glyph glyph-name="dcaron" unicode="&#x10f;" horiz-adv-x="584" 
d="M250 -10q-60 0 -104 29.5t-68 83t-24 125.5v40q0 72 24 125.5t68 83t104 29.5q53 0 95 -26t69 -74v294h58v-700h-54v98q-27 -52 -70 -80t-98 -28zM112 231q0 -88 40 -138.5t111 -50.5q48 0 88 28t63 77v202q-23 49 -63 77t-88 28q-71 0 -111 -50.5t-40 -138.5v-34z
M526 511l27 189h58l-38 -189h-47z" />
    <glyph glyph-name="Dcroat" unicode="&#x110;" horiz-adv-x="671" 
d="M95 0v307h-85v53h85v300h216q145 0 220.5 -82t75.5 -222v-52q0 -140 -75.5 -222t-220.5 -82h-216zM281 307h-125v-254h155q114 0 174.5 65.5t60.5 189.5v44q0 124 -60.5 189.5t-174.5 65.5h-155v-247h125v-53z" />
    <glyph glyph-name="dcroat" unicode="&#x111;" horiz-adv-x="553" 
d="M246 -10q-58 0 -102.5 29t-69 82.5t-24.5 126.5v40q0 73 24.5 126.5t69 82.5t102.5 29q61 0 101 -29.5t63 -70.5v174h-159v46h159v74h58v-74h70v-46h-70v-580h-54v98q-22 -44 -63 -76t-105 -32zM108 231q0 -93 42.5 -141t108.5 -48q57 0 94.5 32.5t56.5 72.5v202
q-19 40 -56.5 72.5t-94.5 32.5q-66 0 -108.5 -48t-42.5 -141v-34z" />
    <glyph glyph-name="Emacron" unicode="&#x112;" horiz-adv-x="558" 
d="M95 0v660h398v-53h-337v-244h307v-52h-307v-258h347v-53h-408zM163 794h262v-45h-262v45z" />
    <glyph glyph-name="emacron" unicode="&#x113;" horiz-adv-x="510" 
d="M271 -12q-71 0 -119 31t-73 85.5t-25 124.5v40q0 70 24 124t70 84.5t113 30.5t112 -32t68 -87t23 -123v-30h-353v-4q0 -89 41.5 -141t120.5 -52q47 0 81 17t60 43l35 -36q-33 -35 -77 -55t-101 -20zM260 457q-68 0 -106.5 -44t-42.5 -130h296q-3 81 -41.5 127.5
t-105.5 46.5zM125 652h260v-44h-260v44z" />
    <glyph glyph-name="Edotaccent" unicode="&#x116;" horiz-adv-x="558" 
d="M95 0v660h398v-53h-337v-244h307v-52h-307v-258h347v-53h-408zM294 729q-20 0 -32 12.5t-12 30.5t12 30t32 12t32 -12t12 -30t-12 -30.5t-32 -12.5z" />
    <glyph glyph-name="edotaccent" unicode="&#x117;" horiz-adv-x="510" 
d="M271 -12q-71 0 -119 31t-73 85.5t-25 124.5v40q0 70 24 124t70 84.5t113 30.5t112 -32t68 -87t23 -123v-30h-353v-4q0 -89 41.5 -141t120.5 -52q47 0 81 17t60 43l35 -36q-33 -35 -77 -55t-101 -20zM260 457q-68 0 -106.5 -44t-42.5 -130h296q-3 81 -41.5 127.5
t-105.5 46.5zM255 591q-20 0 -32 12.5t-12 30.5t12 30t32 12t32 -12t12 -30t-12 -30.5t-32 -12.5z" />
    <glyph glyph-name="Eogonek" unicode="&#x118;" horiz-adv-x="558" 
d="M95 0v660h398v-53h-337v-244h307v-52h-307v-258h347v-53h-408zM458 -202q-43 0 -75.5 25t-32.5 75q0 51 39 83t97 44l17 -25q-41 -13 -69.5 -37.5t-28.5 -59.5q0 -24 12 -36.5t27.5 -16.5t26.5 -4q22 0 37 3v-47q-15 -2 -28 -3t-22 -1z" />
    <glyph glyph-name="eogonek" unicode="&#x119;" horiz-adv-x="510" 
d="M271 -12q-71 0 -119 31t-73 85.5t-25 124.5v40q0 70 24 124t70 84.5t113 30.5t112 -32t68 -87t23 -123v-30h-353v-4q0 -89 41.5 -141t120.5 -52q47 0 81 17t60 43l35 -36q-33 -35 -77 -55t-101 -20zM260 457q-68 0 -106.5 -44t-42.5 -130h296q-3 81 -41.5 127.5
t-105.5 46.5zM299 -202q-42 0 -73.5 22.5t-31.5 71.5q0 50 38 83t95 38l17 -15q-40 -12 -68.5 -38t-28.5 -60q0 -24 12 -35.5t27.5 -15.5t25.5 -4q22 0 36 3v-46q-14 -2 -27 -3t-22 -1z" />
    <glyph glyph-name="Ecaron" unicode="&#x11a;" horiz-adv-x="558" 
d="M95 0v660h398v-53h-337v-244h307v-52h-307v-258h347v-53h-408zM169 872l120 -92h10l120 92l29 -34l-131 -108h-46l-131 108z" />
    <glyph glyph-name="ecaron" unicode="&#x11b;" horiz-adv-x="510" 
d="M271 -12q-71 0 -119 31t-73 85.5t-25 124.5v40q0 70 24 124t70 84.5t113 30.5t112 -32t68 -87t23 -123v-30h-353v-4q0 -89 41.5 -141t120.5 -52q47 0 81 17t60 43l35 -36q-33 -35 -77 -55t-101 -20zM260 457q-68 0 -106.5 -44t-42.5 -130h296q-3 81 -41.5 127.5
t-105.5 46.5zM135 748l115 -112h10l115 112l30 -31l-127 -132h-46l-127 132z" />
    <glyph glyph-name="Gbreve" unicode="&#x11e;" horiz-adv-x="652" 
d="M339 -15q-87 0 -148.5 39.5t-94 110t-32.5 162.5v66q0 92 34.5 162.5t97 110t147.5 39.5q70 0 124.5 -26t97.5 -71l-38 -39q-42 43 -87 62t-97 19q-66 0 -115 -31.5t-76 -90t-27 -139.5v-58q0 -121 57 -191t158 -70q84 0 138 50t54 145v65h-176v52h236v-117
q0 -76 -32 -132t-89 -87t-132 -31zM342 720q-68 0 -104 36t-40 85h47q4 -30 27 -52t70 -22t70 22t27 52h47q-4 -49 -40 -85t-104 -36z" />
    <glyph glyph-name="gbreve" unicode="&#x11f;" horiz-adv-x="557" 
d="M250 -6q-60 0 -104 29t-68 82t-24 125v40q0 71 24.5 124t68.5 82.5t103 29.5q55 0 98.5 -28t69.5 -79v97h54v-486q0 -103 -57 -157.5t-163 -54.5t-174 65l31 40q60 -53 144 -53q79 0 120 40.5t41 119.5v83q-27 -47 -69 -73t-95 -26zM112 233q0 -87 40 -137t111 -50
q48 0 88 27.5t63 75.5v202q-23 48 -63 75.5t-88 27.5q-71 0 -111 -50t-40 -137v-34zM263 575q-67 0 -102 35.5t-39 83.5h46q4 -30 26.5 -51.5t68.5 -21.5t68.5 21.5t26.5 51.5h46q-4 -48 -39 -83.5t-102 -35.5z" />
    <glyph glyph-name="Gdotaccent" unicode="&#x120;" horiz-adv-x="652" 
d="M339 -15q-87 0 -148.5 39.5t-94 110t-32.5 162.5v66q0 92 34.5 162.5t97 110t147.5 39.5q70 0 124.5 -26t97.5 -71l-38 -39q-42 43 -87 62t-97 19q-66 0 -115 -31.5t-76 -90t-27 -139.5v-58q0 -121 57 -191t158 -70q84 0 138 50t54 145v65h-176v52h236v-117
q0 -76 -32 -132t-89 -87t-132 -31zM342 729q-20 0 -32 12.5t-12 30.5t12 30t32 12t32 -12t12 -30t-12 -30.5t-32 -12.5z" />
    <glyph glyph-name="gdotaccent" unicode="&#x121;" horiz-adv-x="557" 
d="M250 -6q-60 0 -104 29t-68 82t-24 125v40q0 71 24.5 124t68.5 82.5t103 29.5q55 0 98.5 -28t69.5 -79v97h54v-486q0 -103 -57 -157.5t-163 -54.5t-174 65l31 40q60 -53 144 -53q79 0 120 40.5t41 119.5v83q-27 -47 -69 -73t-95 -26zM112 233q0 -87 40 -137t111 -50
q48 0 88 27.5t63 75.5v202q-23 48 -63 75.5t-88 27.5q-71 0 -111 -50t-40 -137v-34zM263 591q-20 0 -32 12.5t-12 30.5t12 30t32 12t32 -12t12 -30t-12 -30.5t-32 -12.5z" />
    <glyph glyph-name="uni0122" unicode="&#x122;" horiz-adv-x="652" 
d="M339 -15q-87 0 -148.5 39.5t-94 110t-32.5 162.5v66q0 92 34.5 162.5t97 110t147.5 39.5q70 0 124.5 -26t97.5 -71l-38 -39q-42 43 -87 62t-97 19q-66 0 -115 -31.5t-76 -90t-27 -139.5v-58q0 -121 57 -191t158 -70q84 0 138 50t54 145v65h-176v52h236v-117
q0 -76 -32 -132t-89 -87t-132 -31zM307 -247l-23 24q44 40 57 76q-17 1 -28.5 13t-11.5 29q0 19 12.5 31t30.5 12q20 0 32 -13t12 -35q0 -31 -23 -69t-58 -68z" />
    <glyph glyph-name="uni0123" unicode="&#x123;" horiz-adv-x="557" 
d="M250 -6q-60 0 -104 29t-68 82t-24 125v40q0 71 24.5 124t68.5 82.5t103 29.5q55 0 98.5 -28t69.5 -79v97h54v-486q0 -103 -57 -157.5t-163 -54.5t-174 65l31 40q60 -53 144 -53q79 0 120 40.5t41 119.5v83q-27 -47 -69 -73t-95 -26zM112 233q0 -87 40 -137t111 -50
q48 0 88 27.5t63 75.5v202q-23 48 -63 75.5t-88 27.5q-71 0 -111 -50t-40 -137v-34zM263 572q-20 0 -32 13t-12 35q0 31 23 69t58 68l23 -24q-44 -40 -57 -76q17 -1 28.5 -13t11.5 -29q0 -19 -12.5 -31t-30.5 -12z" />
    <glyph glyph-name="Hbar" unicode="&#x126;" horiz-adv-x="696" 
d="M95 0v520h-70v51h70v89h61v-89h384v89h61v-89h70v-51h-70v-520h-61v307h-384v-307h-61zM156 360h384v160h-384v-160z" />
    <glyph glyph-name="hbar" unicode="&#x127;" horiz-adv-x="552" 
d="M85 0v580h-70v46h70v74h58v-74h159v-46h-159v-176q23 43 64 72.5t102 29.5q75 0 119.5 -48t44.5 -148v-310h-58v304q0 78 -32 114t-89 36t-94 -32.5t-57 -72.5v-349h-58z" />
    <glyph glyph-name="Itilde" unicode="&#x128;" horiz-adv-x="251" 
d="M95 0v660h61v-660h-61zM199 715q-32 0 -71 28l-34 24q-25 18 -43 18t-26 -14.5t-9 -49.5h-44q0 108 79 108q32 0 71 -28l34 -24q25 -18 43 -18t26 14.5t9 49.5h44q0 -108 -79 -108z" />
    <glyph glyph-name="itilde" unicode="&#x129;" horiz-adv-x="228" 
d="M85 0v496h58v-496h-58zM48 692q16 0 30 -6t34 -22l29 -23q23 -18 38 -18t22 14.5t8 48.5h42q0 -106 -71 -106q-16 0 -30 6t-34 22l-29 23q-23 18 -38 18t-22 -14.5t-8 -48.5h-42q0 106 71 106z" />
    <glyph glyph-name="Imacron" unicode="&#x12a;" horiz-adv-x="251" 
d="M95 0v660h61v-660h-61zM-6 794h262v-45h-262v45z" />
    <glyph glyph-name="imacron" unicode="&#x12b;" horiz-adv-x="228" 
d="M85 0v496h58v-496h-58zM-1 652h230v-44h-230v44z" />
    <glyph glyph-name="Iogonek" unicode="&#x12e;" horiz-adv-x="251" 
d="M95 0v660h61v-660h-61zM111 -202q-43 0 -75.5 25t-32.5 75q0 51 39 83t97 44l17 -25q-41 -13 -69.5 -37.5t-28.5 -59.5q0 -24 12 -36.5t27.5 -16.5t26.5 -4q22 0 37 3v-47q-15 -2 -28 -3t-22 -1z" />
    <glyph glyph-name="iogonek" unicode="&#x12f;" horiz-adv-x="228" 
d="M114 591q-20 0 -32 12.5t-12 30.5t12 30t32 12t32 -12t12 -30t-12 -30.5t-32 -12.5zM85 0v496h58v-496h-58zM104 -202q-51 0 -80 24.5t-29 67.5q0 52 39 87t92 48l17 -25q-43 -12 -70 -38.5t-27 -58.5q0 -25 18 -41.5t52 -16.5q7 0 16 0.5t15 2.5v-46q-10 -2 -22.5 -3
t-20.5 -1z" />
    <glyph glyph-name="Idotaccent" unicode="&#x130;" horiz-adv-x="251" 
d="M95 0v660h61v-660h-61zM125 729q-20 0 -32 12.5t-12 30.5t12 30t32 12t32 -12t12 -30t-12 -30.5t-32 -12.5z" />
    <glyph glyph-name="dotlessi" unicode="&#x131;" horiz-adv-x="228" 
d="M85 0v496h58v-496h-58z" />
    <glyph glyph-name="IJ" unicode="&#x132;" horiz-adv-x="627" 
d="M323 -15q-55 0 -103 17.5t-77 46.5l33 44q24 -23 63.5 -38t82.5 -15q42 0 78 15.5t58.5 50t22.5 93.5v461h61v-462q0 -76 -30.5 -123t-80 -68.5t-108.5 -21.5zM95 170v490h61v-490h-61z" />
    <glyph glyph-name="ij" unicode="&#x133;" horiz-adv-x="456" 
d="M114 591q-20 0 -32 12.5t-12 30.5t12 30t32 12t32 -12t12 -30t-12 -30.5t-32 -12.5zM85 0v496h58v-496h-58zM342 591q-20 0 -32 12.5t-12 30.5t12 30t32 12t32 -12t12 -30t-12 -30.5t-32 -12.5zM270 -202q-17 0 -38 3v49q7 -1 13.5 -1.5t13.5 -0.5q29 0 41.5 13.5
t12.5 46.5v588h58v-588q0 -47 -22.5 -78.5t-78.5 -31.5z" />
    <glyph glyph-name="uni0136" unicode="&#x136;" horiz-adv-x="615" 
d="M95 0v660h61v-300h130l232 300h69l-251 -324l259 -336h-76l-236 307h-127v-307h-61zM303 -247l-23 24q44 40 57 76q-17 1 -28.5 13t-11.5 29q0 19 12.5 31t30.5 12q20 0 32 -13t12 -35q0 -31 -23 -69t-58 -68z" />
    <glyph glyph-name="uni0137" unicode="&#x137;" horiz-adv-x="491" 
d="M85 0v700h58v-413h89l161 209h68l-181 -232l191 -264h-71l-169 236h-88v-236h-58zM237 -247l-23 24q44 40 57 76q-17 1 -28.5 13t-11.5 29q0 19 12.5 31t30.5 12q20 0 32 -13t12 -35q0 -31 -23 -69t-58 -68z" />
    <glyph glyph-name="kgreenlandic" unicode="&#x138;" horiz-adv-x="491" 
d="M85 0v496h58v-209h89l161 209h68l-181 -232l191 -264h-71l-169 236h-88v-236h-58z" />
    <glyph glyph-name="Lacute" unicode="&#x139;" horiz-adv-x="524" 
d="M95 0v660h61v-607h334v-53h-395zM118 720l-29 33l142 128l34 -39z" />
    <glyph glyph-name="lacute" unicode="&#x13a;" horiz-adv-x="252" 
d="M186 -10q-56 0 -78.5 28.5t-22.5 75.5v606h58v-600q0 -33 12.5 -46.5t41.5 -13.5q7 0 13.5 0.5t13.5 1.5v-49q-21 -3 -38 -3zM109 760l-29 33l142 128l34 -39z" />
    <glyph glyph-name="uni013B" unicode="&#x13b;" horiz-adv-x="524" 
d="M95 0v660h61v-607h334v-53h-395zM258 -247l-23 24q44 40 57 76q-17 1 -28.5 13t-11.5 29q0 19 12.5 31t30.5 12q20 0 32 -13t12 -35q0 -31 -23 -69t-58 -68z" />
    <glyph glyph-name="uni013C" unicode="&#x13c;" horiz-adv-x="252" 
d="M186 -10q-56 0 -78.5 28.5t-22.5 75.5v606h58v-600q0 -33 12.5 -46.5t41.5 -13.5q7 0 13.5 0.5t13.5 1.5v-49q-21 -3 -38 -3zM120 -247l-23 24q44 40 57 76q-17 1 -28.5 13t-11.5 29q0 19 12.5 31t30.5 12q20 0 32 -13t12 -35q0 -31 -23 -69t-58 -68z" />
    <glyph glyph-name="Lcaron" unicode="&#x13d;" horiz-adv-x="524" 
d="M95 0v660h61v-607h334v-53h-395zM294 470l27 189h58l-38 -189h-47z" />
    <glyph glyph-name="lcaron" unicode="&#x13e;" horiz-adv-x="259" 
d="M186 -10q-56 0 -78.5 28.5t-22.5 75.5v606h58v-600q0 -33 12.5 -46.5t41.5 -13.5q7 0 13.5 0.5t13.5 1.5v-49q-21 -3 -38 -3zM201 511l27 189h58l-38 -189h-47z" />
    <glyph glyph-name="Lslash" unicode="&#x141;" horiz-adv-x="524" 
d="M95 0v291l-70 -42v53l70 42v316h61v-279l192 116v-53l-192 -116v-275h334v-53h-395z" />
    <glyph glyph-name="lslash" unicode="&#x142;" horiz-adv-x="258" 
d="M189 -10q-56 0 -78.5 28.5t-22.5 75.5v232l-70 -42v50l70 42v324h58v-290l89 53v-50l-89 -53v-260q0 -33 13 -46.5t41 -13.5q7 0 13.5 0.5t13.5 1.5v-49q-21 -3 -38 -3z" />
    <glyph glyph-name="Nacute" unicode="&#x143;" horiz-adv-x="700" 
d="M95 0v660h100l339 -600h11v600h60v-660h-100l-339 600h-11v-600h-60zM342 720l-29 33l142 128l34 -39z" />
    <glyph glyph-name="nacute" unicode="&#x144;" horiz-adv-x="552" 
d="M85 0v496h54v-98q23 44 64 76t105 32q75 0 120 -48t45 -147v-311h-58v304q0 78 -32 114t-89 36t-94 -32.5t-57 -72.5v-349h-58zM272 575l-34 27l115 148l40 -32z" />
    <glyph glyph-name="uni0145" unicode="&#x145;" horiz-adv-x="700" 
d="M95 0v660h100l339 -600h11v600h60v-660h-100l-339 600h-11v-600h-60zM315 -247l-23 24q44 40 57 76q-17 1 -28.5 13t-11.5 29q0 19 12.5 31t30.5 12q20 0 32 -13t12 -35q0 -31 -23 -69t-58 -68z" />
    <glyph glyph-name="uni0146" unicode="&#x146;" horiz-adv-x="552" 
d="M85 0v496h54v-98q23 44 64 76t105 32q75 0 120 -48t45 -147v-311h-58v304q0 78 -32 114t-89 36t-94 -32.5t-57 -72.5v-349h-58zM244 -247l-23 24q44 40 57 76q-17 1 -28.5 13t-11.5 29q0 19 12.5 31t30.5 12q20 0 32 -13t12 -35q0 -31 -23 -69t-58 -68z" />
    <glyph glyph-name="Ncaron" unicode="&#x147;" horiz-adv-x="700" 
d="M95 0v660h100l339 -600h11v600h60v-660h-100l-339 600h-11v-600h-60zM225 872l120 -92h10l120 92l29 -34l-131 -108h-46l-131 108z" />
    <glyph glyph-name="ncaron" unicode="&#x148;" horiz-adv-x="552" 
d="M85 0v496h54v-98q23 44 64 76t105 32q75 0 120 -48t45 -147v-311h-58v304q0 78 -32 114t-89 36t-94 -32.5t-57 -72.5v-349h-58zM159 748l115 -112h10l115 112l30 -31l-127 -132h-46l-127 132z" />
    <glyph glyph-name="Eng" unicode="&#x14a;" horiz-adv-x="700" 
d="M95 0v660h100l339 -600h11v600h60v-752q0 -47 -22.5 -78.5t-78.5 -31.5q-17 0 -38 3v49q7 -1 13.5 -1.5t13.5 -0.5q28 0 40 13.5t12 46.5v92h-40l-339 600h-11v-600h-60z" />
    <glyph glyph-name="eng" unicode="&#x14b;" horiz-adv-x="552" 
d="M85 0v496h54v-98q23 44 64 76t105 32q75 0 120 -48t45 -147v-403q0 -47 -22.5 -78.5t-78.5 -31.5q-17 0 -38 3v49q7 -1 13.5 -1.5t13.5 -0.5q29 0 41.5 13.5t12.5 46.5v396q0 78 -32 114t-89 36t-94 -32.5t-57 -72.5v-349h-58z" />
    <glyph glyph-name="Ohungarumlaut" unicode="&#x150;" horiz-adv-x="676" 
d="M338 -15q-87 0 -148 39.5t-93.5 110t-32.5 162.5v66q0 92 32.5 162.5t93.5 110t148 39.5q86 0 147.5 -39.5t94 -110t32.5 -162.5v-66q0 -92 -32.5 -162.5t-94 -110t-147.5 -39.5zM338 40q98 0 155.5 70t57.5 191v58q0 121 -57.5 191t-155.5 70t-155.5 -70t-57.5 -191v-58
q0 -121 57.5 -191t155.5 -70zM265 720l-28 33l142 128l33 -39zM408 720l-28 33l141 128l34 -39z" />
    <glyph glyph-name="ohungarumlaut" unicode="&#x151;" horiz-adv-x="534" 
d="M267 -12q-67 0 -115 30t-73 84t-25 126v40q0 72 25 126t73 84t115 30t115 -30t73 -84t25 -126v-40q0 -72 -25 -126t-73 -84t-115 -30zM267 39q71 0 113 51t42 141v34q0 90 -42 141t-113 51t-113 -51t-42 -141v-34q0 -90 42 -141t113 -51zM337 575l-34 27l115 148l40 -32z
M217 575l-34 27l115 148l40 -32z" />
    <glyph glyph-name="OE" unicode="&#x152;" horiz-adv-x="931" 
d="M338 0q-87 0 -148 38t-93.5 105t-32.5 154v66q0 87 32.5 154t93.5 105t148 38h528v-53h-337v-244h307v-52h-307v-258h347v-53h-538zM338 55h130v550h-130q-98 0 -155.5 -66t-57.5 -180v-58q0 -114 57.5 -180t155.5 -66z" />
    <glyph glyph-name="oe" unicode="&#x153;" horiz-adv-x="879" 
d="M267 -12q-67 0 -115 30.5t-73 85t-25 125.5v40q0 107 56 173t157 66q65 0 112 -29.5t72 -84.5q24 55 69.5 84.5t109.5 29.5q66 0 111.5 -31.5t68.5 -86t23 -123.5v-30h-353v-5q0 -89 41.5 -141t120.5 -52q46 0 81 17t60 43l35 -36q-33 -35 -77 -55t-101 -20
q-68 0 -115.5 30.5t-72.5 86.5q-25 -57 -72.5 -87t-112.5 -30zM629 457q-68 0 -106.5 -44t-42.5 -129h296q-3 81 -41.5 127t-105.5 46zM267 39q71 0 113 51.5t42 141.5v34q0 90 -42 140.5t-113 50.5t-113 -50.5t-42 -140.5v-34q0 -90 42 -141.5t113 -51.5z" />
    <glyph glyph-name="Racute" unicode="&#x154;" horiz-adv-x="603" 
d="M95 0v660h235q62 0 108.5 -22.5t72.5 -63t26 -94.5v-19q0 -65 -39 -111t-104 -62l173 -288h-72l-166 281h-173v-281h-61zM330 608h-174v-275h174q70 0 108 34.5t38 95.5v15q0 62 -38 96t-108 34zM308 720l-29 33l142 128l34 -39z" />
    <glyph glyph-name="racute" unicode="&#x155;" horiz-adv-x="370" 
d="M85 0v496h54v-112q12 31 35.5 58t58 44t82.5 17q19 0 35 -3v-53q-8 1 -17 1.5t-19 0.5q-67 0 -108.5 -35t-62.5 -80v-334h-58zM211 575l-34 27l115 148l40 -32z" />
    <glyph glyph-name="Rcaron" unicode="&#x158;" horiz-adv-x="603" 
d="M95 0v660h235q62 0 108.5 -22.5t72.5 -63t26 -94.5v-19q0 -65 -39 -111t-104 -62l173 -288h-72l-166 281h-173v-281h-61zM330 608h-174v-275h174q70 0 108 34.5t38 95.5v15q0 62 -38 96t-108 34zM191 872l120 -92h10l120 92l29 -34l-131 -108h-46l-131 108z" />
    <glyph glyph-name="rcaron" unicode="&#x159;" horiz-adv-x="370" 
d="M85 0v496h54v-112q12 31 35.5 58t58 44t82.5 17q19 0 35 -3v-53q-8 1 -17 1.5t-19 0.5q-67 0 -108.5 -35t-62.5 -80v-334h-58zM98 748l115 -112h10l115 112l30 -31l-127 -132h-46l-127 132z" />
    <glyph glyph-name="Sacute" unicode="&#x15a;" horiz-adv-x="563" 
d="M268 -15q-63 0 -116 17.5t-109 58.5l31 46q48 -35 94 -51t99 -16q84 0 129 34t45 96q0 47 -29.5 79.5t-97.5 49.5l-85 21q-158 39 -158 174q0 85 60.5 133t163.5 48q61 0 110 -18t99 -58l-32 -45q-46 34 -88 50t-89 16q-75 0 -118.5 -33t-43.5 -92q0 -45 28.5 -74
t95.5 -46l85 -21q162 -40 162 -181q0 -87 -62.5 -137.5t-173.5 -50.5zM285 720l-29 33l142 128l34 -39z" />
    <glyph glyph-name="sacute" unicode="&#x15b;" horiz-adv-x="441" 
d="M208 -12q-104 0 -175 70l31 39q60 -57 144 -57q59 0 93 23.5t34 65.5q0 66 -88 87l-68 16q-61 14 -93 49.5t-32 87.5q0 64 46 101.5t125 37.5q49 0 89.5 -15t80.5 -48l-29 -41q-66 53 -140 53q-53 0 -84 -22.5t-31 -62.5q0 -68 89 -89l68 -16q62 -14 94 -49t32 -87
q0 -65 -50.5 -104t-135.5 -39zM218 575l-34 27l115 148l40 -32z" />
    <glyph glyph-name="Scedilla" unicode="&#x15e;" horiz-adv-x="563" 
d="M268 -15q-63 0 -116 17.5t-109 58.5l31 46q48 -35 94 -51t99 -16q84 0 129 34t45 96q0 47 -29.5 79.5t-97.5 49.5l-85 21q-158 39 -158 174q0 85 60.5 133t163.5 48q61 0 110 -18t99 -58l-32 -45q-46 34 -88 50t-89 16q-75 0 -118.5 -33t-43.5 -92q0 -45 28.5 -74
t95.5 -46l85 -21q162 -40 162 -181q0 -87 -62.5 -137.5t-173.5 -50.5zM276 -202q-20 0 -47 4v47q23 -5 48 -5q52 0 52 36q0 35 -56 35h-23l26 109h43l-18 -69q82 -9 82 -76q0 -40 -27.5 -60.5t-79.5 -20.5z" />
    <glyph glyph-name="scedilla" unicode="&#x15f;" horiz-adv-x="441" 
d="M208 -12q-104 0 -175 70l31 39q60 -57 144 -57q59 0 93 23.5t34 65.5q0 66 -88 87l-68 16q-61 14 -93 49.5t-32 87.5q0 64 46 101.5t125 37.5q49 0 89.5 -15t80.5 -48l-29 -41q-66 53 -140 53q-53 0 -84 -22.5t-31 -62.5q0 -68 89 -89l68 -16q62 -14 94 -49t32 -87
q0 -65 -50.5 -104t-135.5 -39zM197 -202q-18 0 -46 4v46q22 -5 48 -5q52 0 52 36t-56 36h-23l26 108h42l-18 -69q81 -9 81 -75q0 -81 -106 -81z" />
    <glyph glyph-name="Scaron" unicode="&#x160;" horiz-adv-x="563" 
d="M268 -15q-63 0 -116 17.5t-109 58.5l31 46q48 -35 94 -51t99 -16q84 0 129 34t45 96q0 47 -29.5 79.5t-97.5 49.5l-85 21q-158 39 -158 174q0 85 60.5 133t163.5 48q61 0 110 -18t99 -58l-32 -45q-46 34 -88 50t-89 16q-75 0 -118.5 -33t-43.5 -92q0 -45 28.5 -74
t95.5 -46l85 -21q162 -40 162 -181q0 -87 -62.5 -137.5t-173.5 -50.5zM168 872l120 -92h10l120 92l29 -34l-131 -108h-46l-131 108z" />
    <glyph glyph-name="scaron" unicode="&#x161;" horiz-adv-x="441" 
d="M208 -12q-104 0 -175 70l31 39q60 -57 144 -57q59 0 93 23.5t34 65.5q0 66 -88 87l-68 16q-61 14 -93 49.5t-32 87.5q0 64 46 101.5t125 37.5q49 0 89.5 -15t80.5 -48l-29 -41q-66 53 -140 53q-53 0 -84 -22.5t-31 -62.5q0 -68 89 -89l68 -16q62 -14 94 -49t32 -87
q0 -65 -50.5 -104t-135.5 -39zM105 748l115 -112h10l115 112l30 -31l-127 -132h-46l-127 132z" />
    <glyph glyph-name="uni0162" unicode="&#x162;" horiz-adv-x="561" 
d="M250 0v607h-228v53h517v-53h-228v-607h-61zM264 -202q-20 0 -47 4v47q23 -5 48 -5q52 0 52 36q0 35 -56 35h-23l26 109h43l-18 -69q82 -9 82 -76q0 -40 -27.5 -60.5t-79.5 -20.5z" />
    <glyph glyph-name="uni0163" unicode="&#x163;" horiz-adv-x="330" 
d="M248 -10q-76 0 -106.5 39t-30.5 128v291h-92v48h92v117l58 14v-131h137v-48h-137v-289q0 -70 21.5 -94t70.5 -24q10 0 21 1t24 3v-50q-28 -5 -58 -5zM192 -202q-18 0 -46 4v46q22 -5 48 -5q52 0 52 36t-56 36h-23l26 108h42l-18 -69q81 -9 81 -75q0 -81 -106 -81z" />
    <glyph glyph-name="Tcaron" unicode="&#x164;" horiz-adv-x="561" 
d="M250 0v607h-228v53h517v-53h-228v-607h-61zM156 872l120 -92h10l120 92l29 -34l-131 -108h-46l-131 108z" />
    <glyph glyph-name="tcaron" unicode="&#x165;" horiz-adv-x="330" 
d="M248 -10q-76 0 -106.5 39t-30.5 128v291h-92v48h92v117l58 14v-131h137v-48h-137v-289q0 -70 21.5 -94t70.5 -24q10 0 21 1t24 3v-50q-28 -5 -58 -5zM251 553l21 147h58l-32 -147h-47z" />
    <glyph glyph-name="Tbar" unicode="&#x166;" horiz-adv-x="561" 
d="M250 0v298h-158v53h158v256h-228v53h517v-53h-228v-256h158v-53h-158v-298h-61z" />
    <glyph glyph-name="tbar" unicode="&#x167;" horiz-adv-x="330" 
d="M19 247v48h92v153h-92v48h92v117l58 14v-131h137v-48h-137v-153h137v-48h-137v-88q0 -70 21.5 -94t70.5 -24q10 0 21 1t24 3v-50q-28 -5 -58 -5q-76 0 -106.5 39t-30.5 128v90h-92z" />
    <glyph glyph-name="Utilde" unicode="&#x168;" horiz-adv-x="668" 
d="M334 -15q-116 0 -182.5 72t-66.5 217v386h61v-385q0 -85 23.5 -137t66 -75t99.5 -23t99 23t65.5 75t23.5 137v385h60v-386q0 -145 -67 -217t-182 -72zM409 715q-32 0 -71 28l-34 24q-25 18 -43 18t-26 -14.5t-9 -49.5h-44q0 108 79 108q32 0 71 -28l34 -24q25 -18 43 -18
t26 14.5t9 49.5h44q0 -108 -79 -108z" />
    <glyph glyph-name="utilde" unicode="&#x169;" horiz-adv-x="551" 
d="M243 -10q-76 0 -120 48t-44 148v310h58v-305q0 -77 31.5 -113t88.5 -36q58 0 95 33t56 74v347h58v-496h-54v98q-23 -45 -64.5 -76.5t-104.5 -31.5zM351 580q-17 0 -32 6t-38 22l-33 23q-26 18 -43 18t-25 -14.5t-9 -48.5h-43q0 106 77 106q17 0 32 -6t38 -22l33 -23
q26 -18 43 -18t25 14.5t9 48.5h43q0 -106 -77 -106z" />
    <glyph glyph-name="Umacron" unicode="&#x16a;" horiz-adv-x="668" 
d="M334 -15q-116 0 -182.5 72t-66.5 217v386h61v-385q0 -85 23.5 -137t66 -75t99.5 -23t99 23t65.5 75t23.5 137v385h60v-386q0 -145 -67 -217t-182 -72zM204 794h262v-45h-262v45z" />
    <glyph glyph-name="umacron" unicode="&#x16b;" horiz-adv-x="551" 
d="M243 -10q-76 0 -120 48t-44 148v310h58v-305q0 -77 31.5 -113t88.5 -36q58 0 95 33t56 74v347h58v-496h-54v98q-23 -45 -64.5 -76.5t-104.5 -31.5zM143 652h260v-44h-260v44z" />
    <glyph glyph-name="Uring" unicode="&#x16e;" horiz-adv-x="668" 
d="M334 -15q-116 0 -182.5 72t-66.5 217v386h61v-385q0 -85 23.5 -137t66 -75t99.5 -23t99 23t65.5 75t23.5 137v385h60v-386q0 -145 -67 -217t-182 -72zM335 720q-44 0 -74 26t-30 69t30 69t74 26t74 -26t30 -69t-30 -69t-74 -26zM335 756q28 0 44.5 16t16.5 43t-16.5 43
t-44.5 16t-44.5 -16t-16.5 -43t16.5 -43t44.5 -16z" />
    <glyph glyph-name="uring" unicode="&#x16f;" horiz-adv-x="551" 
d="M243 -10q-76 0 -120 48t-44 148v310h58v-305q0 -77 31.5 -113t88.5 -36q58 0 95 33t56 74v347h58v-496h-54v98q-23 -45 -64.5 -76.5t-104.5 -31.5zM273 575q-43 0 -72.5 25t-29.5 68t29.5 68t72.5 25t72.5 -25t29.5 -68t-29.5 -68t-72.5 -25zM273 610q27 0 43.5 16
t16.5 42t-16.5 42t-43.5 16t-43.5 -16t-16.5 -42t16.5 -42t43.5 -16z" />
    <glyph glyph-name="Uhungarumlaut" unicode="&#x170;" horiz-adv-x="668" 
d="M334 -15q-116 0 -182.5 72t-66.5 217v386h61v-385q0 -85 23.5 -137t66 -75t99.5 -23t99 23t65.5 75t23.5 137v385h60v-386q0 -145 -67 -217t-182 -72zM262 720l-28 33l142 128l33 -39zM405 720l-28 33l141 128l34 -39z" />
    <glyph glyph-name="uhungarumlaut" unicode="&#x171;" horiz-adv-x="551" 
d="M243 -10q-76 0 -120 48t-44 148v310h58v-305q0 -77 31.5 -113t88.5 -36q58 0 95 33t56 74v347h58v-496h-54v98q-23 -45 -64.5 -76.5t-104.5 -31.5zM343 575l-34 27l115 148l40 -32zM223 575l-34 27l115 148l40 -32z" />
    <glyph glyph-name="Uogonek" unicode="&#x172;" horiz-adv-x="668" 
d="M334 -15q-116 0 -182.5 72t-66.5 217v386h61v-385q0 -85 23.5 -137t66 -75t99.5 -23t99 23t65.5 75t23.5 137v385h60v-386q0 -145 -67 -217t-182 -72zM385 -202q-42 0 -73.5 22.5t-31.5 71.5q0 50 38 83t94 38l17 -13q-40 -14 -68 -40t-28 -60q0 -24 12 -35.5t27 -15.5
t26 -4q23 0 36 3v-46q-14 -2 -27 -3t-22 -1z" />
    <glyph glyph-name="uogonek" unicode="&#x173;" horiz-adv-x="551" 
d="M243 -10q-76 0 -120 48t-44 148v310h58v-305q0 -77 31.5 -113t88.5 -36q58 0 95 33t56 74v347h58v-496h-54v98q-23 -45 -64.5 -76.5t-104.5 -31.5zM427 -202q-51 0 -80 24.5t-29 67.5q0 52 39 87t92 48l17 -25q-43 -12 -70 -38.5t-27 -58.5q0 -25 18 -41.5t52 -16.5
q7 0 16 0.5t15 2.5v-46q-10 -2 -22.5 -3t-20.5 -1z" />
    <glyph glyph-name="Wcircumflex" unicode="&#x174;" horiz-adv-x="868" 
d="M181 0l-156 660h62l140 -606h12l147 586h98l147 -586h12l140 606h60l-156 -660h-99l-148 586h-12l-148 -586h-99zM310 720l-29 34l131 108h46l131 -108l-29 -34l-120 92h-10z" />
    <glyph glyph-name="wcircumflex" unicode="&#x175;" horiz-adv-x="766" 
d="M165 0l-145 496h63l124 -444h10l124 434h87l124 -434h10l124 444h60l-145 -496h-88l-125 434h-10l-125 -434h-88zM263 575l-30 31l127 132h46l127 -132l-30 -31l-115 112h-10z" />
    <glyph glyph-name="Ycircumflex" unicode="&#x176;" horiz-adv-x="564" 
d="M252 0v265l-232 395h69l190 -327h12l188 327h65l-232 -395v-265h-60zM157 720l-29 34l131 108h46l131 -108l-29 -34l-120 92h-10z" />
    <glyph glyph-name="ycircumflex" unicode="&#x177;" horiz-adv-x="472" 
d="M152 -190l70 190h-30l-178 496h63l156 -445h9l156 445h60l-248 -686h-58zM116 575l-30 31l127 132h46l127 -132l-30 -31l-115 112h-10z" />
    <glyph glyph-name="Ydieresis" unicode="&#x178;" horiz-adv-x="564" 
d="M252 0v265l-232 395h69l190 -327h12l188 327h65l-232 -395v-265h-60zM381 730q-20 0 -31.5 12.5t-11.5 29.5t11.5 29t31.5 12q19 0 31 -12t12 -29t-12 -29.5t-31 -12.5zM183 730q-19 0 -31 12.5t-12 29.5t12 29t31 12q20 0 31.5 -12t11.5 -29t-11.5 -29.5t-31.5 -12.5z
" />
    <glyph glyph-name="Zacute" unicode="&#x179;" horiz-adv-x="550" 
d="M42 0v52l387 555h-365v53h438v-52l-388 -555h390v-53h-462zM275 720l-29 33l142 128l34 -39z" />
    <glyph glyph-name="zacute" unicode="&#x17a;" horiz-adv-x="437" 
d="M34 0v47l296 399h-283v50h351v-47l-296 -399h301v-50h-369zM212 575l-34 27l115 148l40 -32z" />
    <glyph glyph-name="Zdotaccent" unicode="&#x17b;" horiz-adv-x="550" 
d="M42 0v52l387 555h-365v53h438v-52l-388 -555h390v-53h-462zM283 729q-20 0 -32 12.5t-12 30.5t12 30t32 12t32 -12t12 -30t-12 -30.5t-32 -12.5z" />
    <glyph glyph-name="zdotaccent" unicode="&#x17c;" horiz-adv-x="437" 
d="M34 0v47l296 399h-283v50h351v-47l-296 -399h301v-50h-369zM219 591q-20 0 -32 12.5t-12 30.5t12 30t32 12t32 -12t12 -30t-12 -30.5t-32 -12.5z" />
    <glyph glyph-name="Zcaron" unicode="&#x17d;" horiz-adv-x="550" 
d="M42 0v52l387 555h-365v53h438v-52l-388 -555h390v-53h-462zM158 872l120 -92h10l120 92l29 -34l-131 -108h-46l-131 108z" />
    <glyph glyph-name="zcaron" unicode="&#x17e;" horiz-adv-x="437" 
d="M34 0v47l296 399h-283v50h351v-47l-296 -399h301v-50h-369zM99 748l115 -112h10l115 112l30 -31l-127 -132h-46l-127 132z" />
    <glyph glyph-name="uni0218" unicode="&#x218;" horiz-adv-x="563" 
d="M268 -15q-63 0 -116 17.5t-109 58.5l31 46q48 -35 94 -51t99 -16q84 0 129 34t45 96q0 47 -29.5 79.5t-97.5 49.5l-85 21q-158 39 -158 174q0 85 60.5 133t163.5 48q61 0 110 -18t99 -58l-32 -45q-46 34 -88 50t-89 16q-75 0 -118.5 -33t-43.5 -92q0 -45 28.5 -74
t95.5 -46l85 -21q162 -40 162 -181q0 -87 -62.5 -137.5t-173.5 -50.5zM258 -247l-23 24q44 40 57 76q-17 1 -28.5 13t-11.5 29q0 19 12.5 31t30.5 12q20 0 32 -13t12 -35q0 -31 -23 -69t-58 -68z" />
    <glyph glyph-name="uni0219" unicode="&#x219;" horiz-adv-x="441" 
d="M208 -12q-104 0 -175 70l31 39q60 -57 144 -57q59 0 93 23.5t34 65.5q0 66 -88 87l-68 16q-61 14 -93 49.5t-32 87.5q0 64 46 101.5t125 37.5q49 0 89.5 -15t80.5 -48l-29 -41q-66 53 -140 53q-53 0 -84 -22.5t-31 -62.5q0 -68 89 -89l68 -16q62 -14 94 -49t32 -87
q0 -65 -50.5 -104t-135.5 -39zM179 -247l-23 24q44 40 57 76q-17 1 -28.5 13t-11.5 29q0 19 12.5 31t30.5 12q20 0 32 -13t12 -35q0 -31 -23 -69t-58 -68z" />
    <glyph glyph-name="uni021A" unicode="&#x21a;" horiz-adv-x="561" 
d="M250 0v607h-228v53h517v-53h-228v-607h-61zM246 -247l-23 24q44 40 57 76q-17 1 -28.5 13t-11.5 29q0 19 12.5 31t30.5 12q20 0 32 -13t12 -35q0 -31 -23 -69t-58 -68z" />
    <glyph glyph-name="uni021B" unicode="&#x21b;" horiz-adv-x="330" 
d="M248 -10q-76 0 -106.5 39t-30.5 128v291h-92v48h92v117l58 14v-131h137v-48h-137v-289q0 -70 21.5 -94t70.5 -24q10 0 21 1t24 3v-50q-28 -5 -58 -5zM174 -247l-23 24q44 40 57 76q-17 1 -28.5 13t-11.5 29q0 19 12.5 31t30.5 12q20 0 32 -13t12 -35q0 -31 -23 -69
t-58 -68z" />
    <glyph glyph-name="circumflex" unicode="&#x2c6;" horiz-adv-x="552" 
d="M156 575l-30 31l127 132h46l127 -132l-30 -31l-115 112h-10z" />
    <glyph glyph-name="caron" unicode="&#x2c7;" horiz-adv-x="552" 
d="M156 748l115 -112h10l115 112l30 -31l-127 -132h-46l-127 132z" />
    <glyph glyph-name="breve" unicode="&#x2d8;" horiz-adv-x="552" 
d="M276 575q-67 0 -102 35.5t-39 83.5h46q4 -30 26.5 -51.5t68.5 -21.5t68.5 21.5t26.5 51.5h46q-4 -48 -39 -83.5t-102 -35.5z" />
    <glyph glyph-name="dotaccent" unicode="&#x2d9;" horiz-adv-x="552" 
d="M276 591q-20 0 -32 12.5t-12 30.5t12 30t32 12t32 -12t12 -30t-12 -30.5t-32 -12.5z" />
    <glyph glyph-name="ring" unicode="&#x2da;" horiz-adv-x="552" 
d="M276 575q-43 0 -72.5 25t-29.5 68t29.5 68t72.5 25t72.5 -25t29.5 -68t-29.5 -68t-72.5 -25zM276 610q27 0 43.5 16t16.5 42t-16.5 42t-43.5 16t-43.5 -16t-16.5 -42t16.5 -42t43.5 -16z" />
    <glyph glyph-name="ogonek" unicode="&#x2db;" horiz-adv-x="552" 
d="M310 -202q-51 0 -80 24.5t-29 67.5q0 52 39 87t92 48l17 -25q-43 -12 -70 -38.5t-27 -58.5q0 -25 18 -41.5t52 -16.5q7 0 16 0.5t15 2.5v-46q-10 -2 -22.5 -3t-20.5 -1z" />
    <glyph glyph-name="tilde" unicode="&#x2dc;" horiz-adv-x="552" 
d="M349 580q-17 0 -32 6t-38 22l-33 23q-26 18 -43 18t-25 -14.5t-9 -48.5h-43q0 106 77 106q17 0 32 -6t38 -22l33 -23q26 -18 43 -18t25 14.5t9 48.5h43q0 -106 -77 -106z" />
    <glyph glyph-name="hungarumlaut" unicode="&#x2dd;" horiz-adv-x="552" 
d="M293 575l-34 27l115 148l40 -32zM173 575l-34 27l115 148l40 -32z" />
    <glyph glyph-name="gravecomb" unicode="&#x300;" 
d="M7 575l-121 143l40 32l115 -148z" />
    <glyph glyph-name="acutecomb" unicode="&#x301;" 
d="M-7 575l-34 27l115 148l40 -32z" />
    <glyph glyph-name="uni0302" unicode="&#x302;" 
d="M-120 575l-30 31l127 132h46l127 -132l-30 -31l-115 112h-10z" />
    <glyph glyph-name="tildecomb" unicode="&#x303;" 
d="M73 580q-17 0 -32 6t-38 22l-33 23q-26 18 -43 18t-25 -14.5t-9 -48.5h-43q0 106 77 106q17 0 32 -6t38 -22l33 -23q26 -18 43 -18t25 14.5t9 48.5h43q0 -106 -77 -106z" />
    <glyph glyph-name="uni0304" unicode="&#x304;" 
d="M-130 652h260v-44h-260v44z" />
    <glyph glyph-name="uni0306" unicode="&#x306;" 
d="M0 575q-67 0 -102 35.5t-39 83.5h46q4 -30 26.5 -51.5t68.5 -21.5t68.5 21.5t26.5 51.5h46q-4 -48 -39 -83.5t-102 -35.5z" />
    <glyph glyph-name="uni0307" unicode="&#x307;" 
d="M0 591q-20 0 -32 12.5t-12 30.5t12 30t32 12t32 -12t12 -30t-12 -30.5t-32 -12.5z" />
    <glyph glyph-name="uni0308" unicode="&#x308;" 
d="M98 595q-20 0 -31 12t-11 29t11 28.5t31 11.5t31 -11.5t11 -28.5t-11 -29t-31 -12zM-98 595q-20 0 -31 12t-11 29t11 28.5t31 11.5t31 -11.5t11 -28.5t-11 -29t-31 -12z" />
    <glyph glyph-name="uni030A" unicode="&#x30a;" 
d="M0 575q-43 0 -72.5 25t-29.5 68t29.5 68t72.5 25t72.5 -25t29.5 -68t-29.5 -68t-72.5 -25zM0 610q27 0 43.5 16t16.5 42t-16.5 42t-43.5 16t-43.5 -16t-16.5 -42t16.5 -42t43.5 -16z" />
    <glyph glyph-name="uni030B" unicode="&#x30b;" 
d="M70 575l-34 27l115 148l40 -32zM-50 575l-34 27l115 148l40 -32z" />
    <glyph glyph-name="uni030C" unicode="&#x30c;" 
d="M-120 748l115 -112h10l115 112l30 -31l-127 -132h-46l-127 132z" />
    <glyph glyph-name="uni0312" unicode="&#x312;" 
d="M0 572q-20 0 -32 13t-12 35q0 31 23 69t58 68l23 -24q-44 -40 -57 -76q17 -1 28.5 -13t11.5 -29q0 -19 -12.5 -31t-30.5 -12z" />
    <glyph glyph-name="uni0315" unicode="&#x315;" 
d="M-22 511l27 189h58l-38 -189h-47z" />
    <glyph glyph-name="dotbelowcomb" unicode="&#x323;" 
d="M0 -147q-21 0 -32.5 13t-11.5 30t11.5 29.5t32.5 12.5t32.5 -12.5t11.5 -29.5t-11.5 -30t-32.5 -13z" />
    <glyph glyph-name="uni0326" unicode="&#x326;" 
d="M-35 -247l-23 24q44 40 57 76q-17 1 -28.5 13t-11.5 29q0 19 12.5 31t30.5 12q20 0 32 -13t12 -35q0 -31 -23 -69t-58 -68z" />
    <glyph glyph-name="uni0327" unicode="&#x327;" 
d="M-17 -202q-18 0 -46 4v46q22 -5 48 -5q52 0 52 36t-56 36h-23l26 108h42l-18 -69q81 -9 81 -75q0 -81 -106 -81z" />
    <glyph glyph-name="uni0328" unicode="&#x328;" 
d="M-39 -202q-51 0 -80 24.5t-29 67.5q0 52 39 87t92 48l17 -25q-43 -12 -70 -38.5t-27 -58.5q0 -25 18 -41.5t52 -16.5q7 0 16 0.5t15 2.5v-46q-10 -2 -22.5 -3t-20.5 -1z" />
    <glyph glyph-name="uni0344" unicode="&#x344;" 
d="M-40 600l60 151h63l-78 -151h-45zM-118 595q-20 0 -31 12t-11 29t11 28.5t31 11.5t31 -11.5t11 -28.5t-11 -29t-31 -12zM118 595q-20 0 -31 12t-11 29t11 28.5t31 11.5t31 -11.5t11 -28.5t-11 -29t-31 -12z" />
    <glyph glyph-name="uni0374" unicode="&#x374;" horiz-adv-x="186" 
d="M29 459l53 201h68l-77 -201h-44z" />
    <glyph glyph-name="uni0375" unicode="&#x375;" horiz-adv-x="186" 
d="M36 -124l77 201h44l-53 -201h-68z" />
    <glyph glyph-name="uni037E" unicode="&#x37e;" horiz-adv-x="212" 
d="M64 -121l-25 27q49 44 63 84q-19 1 -31.5 14.5t-12.5 32.5q0 20 14 33.5t34 13.5q22 0 35 -14.5t13 -38.5q0 -35 -25 -77t-65 -75zM105 414q-20 0 -34 13.5t-14 33.5t14 33.5t34 13.5t34 -13.5t14 -33.5t-14 -33.5t-34 -13.5z" />
    <glyph glyph-name="tonos" unicode="&#x384;" horiz-adv-x="552" 
d="M217 594l55 167h63l-75 -167h-43z" />
    <glyph glyph-name="dieresistonos" unicode="&#x385;" horiz-adv-x="552" 
d="M236 600l60 151h63l-78 -151h-45zM158 595q-20 0 -31 12t-11 29t11 28.5t31 11.5t31 -11.5t11 -28.5t-11 -29t-31 -12zM394 595q-20 0 -31 12t-11 29t11 28.5t31 11.5t31 -11.5t11 -28.5t-11 -29t-31 -12z" />
    <glyph glyph-name="Alphatonos" unicode="&#x386;" horiz-adv-x="622" 
d="M45 0l232 660h99l232 -660h-64l-65 187h-306l-65 -187h-63zM320 607l-129 -368h270l-129 368h-12zM35 465l63 195h64l-80 -195h-47z" />
    <glyph glyph-name="anoteleia" unicode="&#x387;" horiz-adv-x="212" 
d="M106 414q-20 0 -34 13.5t-14 33.5t14 33.5t34 13.5t34 -13.5t14 -33.5t-14 -33.5t-34 -13.5z" />
    <glyph glyph-name="Epsilontonos" unicode="&#x388;" horiz-adv-x="706" 
d="M243 0v660h398v-53h-337v-244h307v-52h-307v-258h347v-53h-408zM35 465l63 195h64l-80 -195h-47z" />
    <glyph glyph-name="Etatonos" unicode="&#x389;" horiz-adv-x="844" 
d="M243 0v660h61v-300h384v300h61v-660h-61v307h-384v-307h-61zM35 465l63 195h64l-80 -195h-47z" />
    <glyph glyph-name="Iotatonos" unicode="&#x38a;" horiz-adv-x="399" 
d="M243 0v660h61v-660h-61zM35 465l63 195h64l-80 -195h-47z" />
    <glyph glyph-name="Omicrontonos" unicode="&#x38c;" horiz-adv-x="800" 
d="M462 -15q-87 0 -148 39.5t-93.5 110t-32.5 162.5v66q0 92 32.5 162.5t93.5 110t148 39.5q86 0 147.5 -39.5t94 -110t32.5 -162.5v-66q0 -92 -32.5 -162.5t-94 -110t-147.5 -39.5zM462 40q98 0 155.5 70t57.5 191v58q0 121 -57.5 191t-155.5 70t-155.5 -70t-57.5 -191v-58
q0 -121 57.5 -191t155.5 -70zM35 465l63 195h64l-80 -195h-47z" />
    <glyph glyph-name="Upsilontonos" unicode="&#x38e;" horiz-adv-x="758" 
d="M446 0v265l-232 395h69l190 -327h12l188 327h65l-232 -395v-265h-60zM35 465l63 195h64l-80 -195h-47z" />
    <glyph glyph-name="Omegatonos" unicode="&#x38f;" horiz-adv-x="819" 
d="M169 0v53h166q-70 49 -108.5 124t-38.5 157v29q0 92 32.5 162.5t93.5 110t148 39.5t148 -39.5t93.5 -110t32.5 -162.5v-29q0 -82 -38.5 -157t-108.5 -124h166v-53h-238v47q48 30 83.5 75.5t55 99.5t19.5 112v25q0 121 -57.5 191t-155.5 70t-155.5 -70t-57.5 -191v-25
q0 -58 19.5 -112t55 -99.5t83.5 -75.5v-47h-238zM35 465l63 195h64l-80 -195h-47z" />
    <glyph glyph-name="iotadieresistonos" unicode="&#x390;" horiz-adv-x="277" 
d="M205 -10q-70 0 -98 38t-28 102v366h58v-357q0 -57 18.5 -77.5t57.5 -20.5q23 0 44 3v-50q-25 -4 -52 -4zM68 600l60 151h63l-78 -151h-45zM-10 595q-20 0 -31 12t-11 29t11 28.5t31 11.5t31 -11.5t11 -28.5t-11 -29t-31 -12zM226 595q-20 0 -31 12t-11 29t11 28.5
t31 11.5t31 -11.5t11 -28.5t-11 -29t-31 -12z" />
    <glyph glyph-name="Alpha" unicode="&#x391;" horiz-adv-x="591" 
d="M14 0l232 660h99l232 -660h-64l-65 187h-306l-65 -187h-63zM289 607l-129 -368h270l-129 368h-12z" />
    <glyph glyph-name="Beta" unicode="&#x392;" horiz-adv-x="620" 
d="M95 0v660h244q86 0 139 -46t53 -119v-19q0 -49 -25.5 -83.5t-70.5 -51.5q56 -14 87.5 -53t31.5 -97v-19q0 -51 -25.5 -89.5t-71 -60.5t-105.5 -22h-257zM337 608h-181v-245h181q65 0 99.5 30t34.5 85v15q0 55 -34.5 85t-99.5 30zM156 52h196q67 0 104 32t37 90v15
q0 58 -37 90t-104 32h-196v-259z" />
    <glyph glyph-name="Gamma" unicode="&#x393;" horiz-adv-x="496" 
d="M95 0v660h379v-53h-318v-607h-61z" />
    <glyph glyph-name="uni0394" unicode="&#x394;" horiz-adv-x="613" 
d="M28 0v49l229 611h99l229 -611v-49h-557zM300 607l-208 -555h428l-208 555h-12z" />
    <glyph glyph-name="Epsilon" unicode="&#x395;" horiz-adv-x="558" 
d="M95 0v660h398v-53h-337v-244h307v-52h-307v-258h347v-53h-408z" />
    <glyph glyph-name="Zeta" unicode="&#x396;" horiz-adv-x="550" 
d="M42 0v52l387 555h-365v53h438v-52l-388 -555h390v-53h-462z" />
    <glyph glyph-name="Eta" unicode="&#x397;" horiz-adv-x="696" 
d="M95 0v660h61v-300h384v300h61v-660h-61v307h-384v-307h-61z" />
    <glyph glyph-name="Theta" unicode="&#x398;" horiz-adv-x="676" 
d="M338 -15q-87 0 -148 39.5t-93.5 110t-32.5 162.5v66q0 92 32.5 162.5t93.5 110t148 39.5q86 0 147.5 -39.5t94 -110t32.5 -162.5v-66q0 -92 -32.5 -162.5t-94 -110t-147.5 -39.5zM338 40q98 0 155.5 70t57.5 191v58q0 121 -57.5 191t-155.5 70t-155.5 -70t-57.5 -191v-58
q0 -121 57.5 -191t155.5 -70zM221 309v56h234v-56h-234z" />
    <glyph glyph-name="Iota" unicode="&#x399;" horiz-adv-x="251" 
d="M95 0v660h61v-660h-61z" />
    <glyph glyph-name="Kappa" unicode="&#x39a;" horiz-adv-x="615" 
d="M95 0v660h61v-300h130l232 300h69l-251 -324l259 -336h-76l-236 307h-127v-307h-61z" />
    <glyph glyph-name="Lambda" unicode="&#x39b;" horiz-adv-x="581" 
d="M14 0l227 660h99l227 -660h-65l-207 607h-12l-207 -607h-62z" />
    <glyph glyph-name="Mu" unicode="&#x39c;" horiz-adv-x="847" 
d="M95 0v660h108l217 -494h11l217 494h104v-660h-60v601h-11l-220 -494h-76l-220 494h-11v-601h-59z" />
    <glyph glyph-name="Nu" unicode="&#x39d;" horiz-adv-x="700" 
d="M95 0v660h100l339 -600h11v600h60v-660h-100l-339 600h-11v-600h-60z" />
    <glyph glyph-name="Xi" unicode="&#x39e;" horiz-adv-x="575" 
d="M57 605v55h461v-55h-461zM145 310v55h285v-55h-285zM50 0v55h475v-55h-475z" />
    <glyph glyph-name="Omicron" unicode="&#x39f;" horiz-adv-x="676" 
d="M338 -15q-87 0 -148 39.5t-93.5 110t-32.5 162.5v66q0 92 32.5 162.5t93.5 110t148 39.5q86 0 147.5 -39.5t94 -110t32.5 -162.5v-66q0 -92 -32.5 -162.5t-94 -110t-147.5 -39.5zM338 40q98 0 155.5 70t57.5 191v58q0 121 -57.5 191t-155.5 70t-155.5 -70t-57.5 -191v-58
q0 -121 57.5 -191t155.5 -70z" />
    <glyph glyph-name="Pi" unicode="&#x3a0;" horiz-adv-x="678" 
d="M95 660h488v-660h-61v607h-366v-607h-61v660z" />
    <glyph glyph-name="Rho" unicode="&#x3a1;" horiz-adv-x="579" 
d="M95 0v660h231q97 0 155 -50.5t58 -133.5v-20q0 -83 -58 -133.5t-155 -50.5h-170v-272h-61zM326 608h-170v-284h170q73 0 112.5 35t39.5 99v16q0 64 -39.5 99t-112.5 35z" />
    <glyph glyph-name="Sigma" unicode="&#x3a3;" horiz-adv-x="544" 
d="M42 0v52l271 282l-249 274v52h430v-53h-352l226 -249v-43l-252 -262h388v-53h-462z" />
    <glyph glyph-name="Tau" unicode="&#x3a4;" horiz-adv-x="561" 
d="M250 0v607h-228v53h517v-53h-228v-607h-61z" />
    <glyph glyph-name="Upsilon" unicode="&#x3a5;" horiz-adv-x="564" 
d="M252 0v265l-232 395h69l190 -327h12l188 327h65l-232 -395v-265h-60z" />
    <glyph glyph-name="Phi" unicode="&#x3a6;" horiz-adv-x="767" 
d="M353 685h61v-65q145 -4 224 -78.5t79 -202.5v-12q0 -128 -79 -202.5t-224 -78.5v-71h-61v71q-145 4 -224 78.5t-79 202.5v12q0 128 79 202.5t224 78.5v65zM659 338q0 109 -62 168.5t-183 62.5v-472q121 3 183 62.5t62 168.5v10zM108 328q0 -109 62 -168.5t183 -62.5v472
q-121 -3 -183 -62.5t-62 -168.5v-10z" />
    <glyph glyph-name="Chi" unicode="&#x3a7;" horiz-adv-x="599" 
d="M20 0l239 333l-226 327h75l189 -280h10l189 280h70l-226 -325l239 -335h-75l-202 288h-10l-202 -288h-70z" />
    <glyph glyph-name="Psi" unicode="&#x3a8;" horiz-adv-x="753" 
d="M346 0v199q-142 6 -212 78t-70 186v197h61v-197q0 -95 54.5 -149t166.5 -59v405h61v-405q112 5 166.5 59t54.5 149v197h61v-197q0 -114 -70 -186t-212 -78v-199h-61z" />
    <glyph glyph-name="uni03A9" unicode="&#x3a9;" horiz-adv-x="714" 
d="M64 0v53h166q-70 49 -108.5 124t-38.5 157v29q0 92 32.5 162.5t93.5 110t148 39.5t148 -39.5t93.5 -110t32.5 -162.5v-29q0 -82 -38.5 -157t-108.5 -124h166v-53h-238v47q48 30 83.5 75.5t55 99.5t19.5 112v25q0 121 -57.5 191t-155.5 70t-155.5 -70t-57.5 -191v-25
q0 -58 19.5 -112t55 -99.5t83.5 -75.5v-47h-238z" />
    <glyph glyph-name="Iotadieresis" unicode="&#x3aa;" horiz-adv-x="251" 
d="M95 0v660h61v-660h-61zM224 730q-20 0 -31.5 12.5t-11.5 29.5t11.5 29t31.5 12q19 0 31 -12t12 -29t-12 -29.5t-31 -12.5zM26 730q-19 0 -31 12.5t-12 29.5t12 29t31 12q20 0 31.5 -12t11.5 -29t-11.5 -29.5t-31.5 -12.5z" />
    <glyph glyph-name="Upsilondieresis" unicode="&#x3ab;" horiz-adv-x="564" 
d="M252 0v265l-232 395h69l190 -327h12l188 327h65l-232 -395v-265h-60zM381 730q-20 0 -31.5 12.5t-11.5 29.5t11.5 29t31.5 12q19 0 31 -12t12 -29t-12 -29.5t-31 -12.5zM183 730q-19 0 -31 12.5t-12 29.5t12 29t31 12q20 0 31.5 -12t11.5 -29t-11.5 -29.5t-31.5 -12.5z
" />
    <glyph glyph-name="alphatonos" unicode="&#x3ac;" horiz-adv-x="577" 
d="M250 -10q-60 0 -104 30t-68 84t-24 125v41q0 72 25 125t69 82t102 29q55 0 96 -26t67 -72q7 47 17 88h58q-14 -64 -22.5 -134t-8.5 -134v-113q0 -41 14.5 -57.5t48.5 -16.5q3 0 11.5 0.5t15.5 1.5v-50q-24 -3 -38 -3q-95 0 -106 83q-26 -39 -64 -61t-89 -22zM112 232
q0 -90 41 -140t110 -50q43 0 77.5 20.5t58.5 58.5v107q0 65 8 134q-24 44 -61.5 68t-82.5 24q-70 0 -110.5 -50t-40.5 -137v-35zM251 594l55 167h63l-75 -167h-43z" />
    <glyph glyph-name="epsilontonos" unicode="&#x3ad;" horiz-adv-x="462" 
d="M243 -12q-83 0 -136 37.5t-53 106.5q0 49 27.5 81t71.5 42q-44 11 -66.5 43t-22.5 76q0 62 45 98t122 36q58 0 104.5 -20t80.5 -57l-35 -35q-29 32 -68 47t-83 15q-108 0 -108 -89q0 -92 124 -92h83v-48h-90q-127 0 -127 -91q0 -49 33.5 -74.5t95.5 -25.5q96 0 153 61
l36 -36q-38 -39 -84 -57t-103 -18zM214 594l55 167h63l-75 -167h-43z" />
    <glyph glyph-name="etatonos" unicode="&#x3ae;" horiz-adv-x="552" 
d="M85 0v496h54v-98q23 44 64 76t105 32q75 0 120 -48t45 -147v-501h-58v494q0 78 -32 114t-89 36t-94 -32.5t-57 -72.5v-349h-58zM258 594l55 167h63l-75 -167h-43z" />
    <glyph glyph-name="iotatonos" unicode="&#x3af;" horiz-adv-x="277" 
d="M205 -10q-70 0 -98 38t-28 102v366h58v-357q0 -57 18.5 -77.5t57.5 -20.5q23 0 44 3v-50q-25 -4 -52 -4zM84 594l55 167h63l-75 -167h-43z" />
    <glyph glyph-name="upsilondieresistonos" unicode="&#x3b0;" horiz-adv-x="523" 
d="M79 496h58v-284q0 -172 132 -172q70 0 106 50t36 145v38q0 60 -12.5 118t-35.5 105h61q45 -96 45 -223v-40q0 -117 -52.5 -181t-147.5 -64q-91 0 -140.5 58t-49.5 163v287zM221 600l60 151h63l-78 -151h-45zM143 595q-20 0 -31 12t-11 29t11 28.5t31 11.5t31 -11.5
t11 -28.5t-11 -29t-31 -12zM379 595q-20 0 -31 12t-11 29t11 28.5t31 11.5t31 -11.5t11 -28.5t-11 -29t-31 -12z" />
    <glyph glyph-name="alpha" unicode="&#x3b1;" horiz-adv-x="577" 
d="M250 -10q-60 0 -104 30t-68 84t-24 125v41q0 72 25 125t69 82t102 29q55 0 96 -26t67 -72q7 47 17 88h58q-14 -64 -22.5 -134t-8.5 -134v-113q0 -41 14.5 -57.5t48.5 -16.5q3 0 11.5 0.5t15.5 1.5v-50q-24 -3 -38 -3q-95 0 -106 83q-26 -39 -64 -61t-89 -22zM112 232
q0 -90 41 -140t110 -50q43 0 77.5 20.5t58.5 58.5v107q0 65 8 134q-24 44 -61.5 68t-82.5 24q-70 0 -110.5 -50t-40.5 -137v-35z" />
    <glyph glyph-name="beta" unicode="&#x3b2;" horiz-adv-x="546" 
d="M85 -190v657q0 109 53 173t143 64q83 0 131.5 -47t48.5 -129q0 -55 -28 -97.5t-73 -60.5q62 -10 100.5 -59t38.5 -121q0 -91 -53 -145.5t-139 -54.5q-54 0 -96.5 24.5t-67.5 68.5v-273h-58zM143 465v-321q48 -102 152 -102q68 0 107 39t39 109q0 69 -38 110t-102 41h-38
v50h25q51 0 83 37.5t32 98.5q0 59 -32 92t-89 33q-67 0 -103 -48.5t-36 -138.5z" />
    <glyph glyph-name="gamma" unicode="&#x3b3;" horiz-adv-x="478" 
d="M204 -190v160l-190 526h63l154 -445h10l58 132q40 90 58 148.5t18 108.5q0 16 -1.5 30t-3.5 26h58q5 -27 5 -56q0 -52 -20 -116t-65 -164l-86 -191v-159h-58z" />
    <glyph glyph-name="delta" unicode="&#x3b4;" horiz-adv-x="534" 
d="M267 -12q-100 0 -156.5 61t-56.5 169q0 93 43.5 149.5t124.5 80.5q-64 23 -92 53t-28 81q0 56 44 89t132 33q44 0 88 -11.5t79 -31.5l-22 -47q-34 18 -72.5 28t-72.5 10q-62 0 -90 -18.5t-28 -51.5q0 -34 22 -53.5t75 -38.5l26 -9q97 -34 147 -93.5t50 -160.5
q0 -113 -56 -176t-157 -63zM112 226q0 -90 39 -138t116 -48t116 48t39 136q0 81 -34 127.5t-117 78.5q-76 -19 -117.5 -69.5t-41.5 -134.5z" />
    <glyph glyph-name="epsilon" unicode="&#x3b5;" horiz-adv-x="462" 
d="M243 -12q-83 0 -136 37.5t-53 106.5q0 49 27.5 81t71.5 42q-44 11 -66.5 43t-22.5 76q0 62 45 98t122 36q58 0 104.5 -20t80.5 -57l-35 -35q-29 32 -68 47t-83 15q-108 0 -108 -89q0 -92 124 -92h83v-48h-90q-127 0 -127 -91q0 -49 33.5 -74.5t95.5 -25.5q96 0 153 61
l36 -36q-38 -39 -84 -57t-103 -18z" />
    <glyph glyph-name="zeta" unicode="&#x3b6;" horiz-adv-x="437" 
d="M369 -196l-50 22q28 50 28 92q0 34 -22 49.5t-66 25.5l-25 5q-99 20 -139.5 67.5t-40.5 133.5q0 91 66.5 189t186.5 225l35 37h-275v50h345v-44l-69 -73q-119 -126 -175 -216t-56 -166q0 -65 29 -98t105 -49l25 -5q73 -16 103.5 -46t30.5 -79q0 -30 -9.5 -59t-26.5 -61z
" />
    <glyph glyph-name="eta" unicode="&#x3b7;" horiz-adv-x="552" 
d="M85 0v496h54v-98q23 44 64 76t105 32q75 0 120 -48t45 -147v-501h-58v494q0 78 -32 114t-89 36t-94 -32.5t-57 -72.5v-349h-58z" />
    <glyph glyph-name="theta" unicode="&#x3b8;" horiz-adv-x="534" 
d="M267 -12q-102 0 -157.5 72.5t-55.5 215.5v140q0 143 55.5 215.5t157.5 72.5t157.5 -72.5t55.5 -215.5v-140q0 -143 -55.5 -215.5t-157.5 -72.5zM112 416v-32h310v32q0 122 -39 179.5t-116 57.5t-116 -57.5t-39 -179.5zM267 39q77 0 116 57.5t39 179.5v55h-310v-55
q0 -122 39 -179.5t116 -57.5z" />
    <glyph glyph-name="iota" unicode="&#x3b9;" horiz-adv-x="277" 
d="M205 -10q-70 0 -98 38t-28 102v366h58v-357q0 -57 18.5 -77.5t57.5 -20.5q23 0 44 3v-50q-25 -4 -52 -4z" />
    <glyph glyph-name="kappa" unicode="&#x3ba;" horiz-adv-x="496" 
d="M85 0v496h58v-209h89l161 209h68l-181 -232l108 -160q27 -39 40.5 -51t32.5 -12q5 0 15 2v-51q-6 -1 -12 -1.5t-12 -0.5q-34 0 -56.5 16t-53.5 63l-112 167h-87v-236h-58z" />
    <glyph glyph-name="lambda" unicode="&#x3bb;" horiz-adv-x="473" 
d="M14 0l180 496h24l-29 80q-15 41 -36.5 58.5t-56.5 17.5q-24 0 -47 -3v50q13 2 27 3.5t28 1.5q55 0 87 -27.5t57 -95.5l211 -581h-63l-156 445h-10l-156 -445h-60z" />
    <glyph glyph-name="uni03BC" unicode="&#x3bc;" horiz-adv-x="572" 
d="M85 -190v686h58v-304q0 -80 32.5 -115t89.5 -35q54 0 91.5 32.5t57.5 74.5v347h58v-397q0 -32 12.5 -45.5t40.5 -13.5q7 0 14.5 0.5t12.5 1.5v-49q-21 -3 -38 -3q-55 0 -76 27.5t-21 74.5v4q-25 -45 -65.5 -75.5t-93.5 -30.5q-37 0 -67 12t-50 41v-233h-56z" />
    <glyph glyph-name="nu" unicode="&#x3bd;" horiz-adv-x="478" 
d="M187 0l-173 496h63l151 -445h10l61 132q41 90 58.5 148.5t17.5 108.5q0 16 -1.5 30t-3.5 26h58q5 -27 5 -56q0 -52 -20.5 -118t-64.5 -162l-72 -160h-89z" />
    <glyph glyph-name="xi" unicode="&#x3be;" horiz-adv-x="439" 
d="M378 -196l-50 22q28 51 28 92q0 32 -20.5 48t-74.5 27l-25 5q-96 20 -139 65t-43 127q0 71 33.5 119t95.5 61q-118 35 -118 155q0 85 49.5 132t138.5 47q43 0 85.5 -17t75.5 -46l-29 -41q-35 28 -67.5 40t-67.5 12q-125 0 -125 -128q0 -62 38 -97t106 -35h62v-48h-62
q-157 0 -157 -149q0 -62 30.5 -94t105.5 -47l25 -5q74 -15 107.5 -44.5t33.5 -80.5q0 -55 -36 -120z" />
    <glyph glyph-name="omicron" unicode="&#x3bf;" horiz-adv-x="534" 
d="M267 -12q-67 0 -115 30t-73 84t-25 126v40q0 72 25 126t73 84t115 30t115 -30t73 -84t25 -126v-40q0 -72 -25 -126t-73 -84t-115 -30zM267 39q71 0 113 51t42 141v34q0 90 -42 141t-113 51t-113 -51t-42 -141v-34q0 -90 42 -141t113 -51z" />
    <glyph glyph-name="pi" unicode="&#x3c0;" horiz-adv-x="574" 
d="M112 0v448h-83v48h509v-48h-93v-340q0 -38 13.5 -52.5t44.5 -14.5q7 0 13.5 0.5t13.5 1.5v-50q-20 -3 -38 -3q-59 0 -82 30.5t-23 82.5v345h-217v-448h-58z" />
    <glyph glyph-name="rho" unicode="&#x3c1;" horiz-adv-x="551" 
d="M79 -190v461q0 69 24.5 122.5t72 84t116.5 30.5q94 0 149.5 -64t55.5 -176v-40q0 -73 -24.5 -127t-68.5 -83.5t-103 -29.5q-61 0 -101 29.5t-63 70.5v-278h-58zM137 268v-123q19 -40 56.5 -72.5t94.5 -32.5q66 0 108.5 49t42.5 142v34q0 96 -44 143.5t-109 47.5
q-68 0 -108.5 -50.5t-40.5 -137.5z" />
    <glyph glyph-name="sigma1" unicode="&#x3c2;" horiz-adv-x="453" 
d="M378 -196l-50 22q28 50 28 93q0 35 -23 49t-72 25l-19 4q-72 15 -113 46t-58 77.5t-17 106.5v41q0 73 26 127t73 83.5t110 29.5q53 0 94.5 -21t70.5 -54l-36 -36q-24 27 -55.5 43.5t-71.5 16.5q-67 0 -110 -49.5t-43 -142.5v-35q0 -78 31.5 -119t110.5 -57l19 -4
q78 -16 109.5 -46t31.5 -79q0 -30 -9.5 -59.5t-26.5 -61.5z" />
    <glyph glyph-name="sigma" unicode="&#x3c3;" horiz-adv-x="549" 
d="M264 -12q-64 0 -111 29.5t-73 84t-26 127.5v31q0 110 62 173t172 63h225v-48h-135q96 -66 96 -190v-29q0 -73 -26 -127.5t-73 -84t-111 -29.5zM264 39q70 0 111 52.5t41 140.5v26q0 68 -19 109.5t-69 80.5h-46q-80 0 -125 -49.5t-45 -138.5v-28q0 -88 41 -140.5
t111 -52.5z" />
    <glyph glyph-name="tau" unicode="&#x3c4;" horiz-adv-x="440" 
d="M313 -10q-77 0 -107 39t-30 128v291h-157v48h389v-48h-174v-289q0 -70 21 -94t71 -24q10 0 21 1t24 3v-50q-28 -5 -58 -5z" />
    <glyph glyph-name="upsilon" unicode="&#x3c5;" horiz-adv-x="523" 
d="M79 496h58v-284q0 -172 132 -172q70 0 106 50t36 145v38q0 60 -12.5 118t-35.5 105h61q45 -96 45 -223v-40q0 -117 -52.5 -181t-147.5 -64q-91 0 -140.5 58t-49.5 163v287z" />
    <glyph glyph-name="phi" unicode="&#x3c6;" horiz-adv-x="684" 
d="M314 -190v178q-122 3 -191 67.5t-69 175.5v35q0 110 69 174t191 68v118h57v-118q121 -3 190 -67.5t69 -175.5v-35q0 -110 -68.5 -174t-190.5 -68v-178h-57zM572 262q0 91 -52.5 142.5t-148.5 54.5v-422q96 3 148.5 54t52.5 142v29zM112 234q0 -91 52.5 -142.5
t149.5 -54.5v422q-97 -3 -149.5 -54t-52.5 -142v-29z" />
    <glyph glyph-name="chi" unicode="&#x3c7;" horiz-adv-x="513" 
d="M457 -202q-32 0 -56.5 15t-44.5 62l-105 240h-9l-160 -305h-63l200 361l-108 238q-14 31 -27.5 40t-30.5 9q-7 0 -14.5 -0.5t-12.5 -1.5v49q18 3 36 3q32 0 56.5 -15t44.5 -62l92 -210h9l144 275h63l-184 -332l121 -267q14 -31 28 -40t30 -9q7 0 14.5 0.5t12.5 1.5v-49
q-18 -3 -36 -3z" />
    <glyph glyph-name="psi" unicode="&#x3c8;" horiz-adv-x="688" 
d="M324 -190v179q-82 4 -136.5 36.5t-81.5 86t-27 119.5v265h58v-262q0 -84 47.5 -136.5t139.5 -57.5v586h58v-586q99 6 146.5 65.5t47.5 157.5v27q0 58 -13 110.5t-35 95.5h61q23 -45 34 -97.5t11 -108.5v-30q0 -76 -27.5 -136t-83.5 -95.5t-141 -39.5v-179h-58z" />
    <glyph glyph-name="omega" unicode="&#x3c9;" horiz-adv-x="714" 
d="M221 -12q-78 0 -122.5 57t-44.5 158v60q0 92 31 155.5t90 89.5l25 -49q-43 -20 -65.5 -71t-22.5 -127v-56q0 -79 28.5 -122t80.5 -43q53 0 80 45t27 130v122h58v-122q0 -85 27 -130t80 -45q52 0 80.5 43t28.5 122v56q0 76 -22.5 127t-65.5 71l25 49q59 -26 90 -89.5
t31 -155.5v-60q0 -101 -44.5 -158t-122.5 -57q-52 0 -87.5 32.5t-48.5 87.5q-13 -56 -48.5 -88t-87.5 -32z" />
    <glyph glyph-name="iotadieresis" unicode="&#x3ca;" horiz-adv-x="277" 
d="M205 -10q-70 0 -98 38t-28 102v366h58v-357q0 -57 18.5 -77.5t57.5 -20.5q23 0 44 3v-50q-25 -4 -52 -4zM206 595q-20 0 -31 12t-11 29t11 28.5t31 11.5t31 -11.5t11 -28.5t-11 -29t-31 -12zM10 595q-20 0 -31 12t-11 29t11 28.5t31 11.5t31 -11.5t11 -28.5t-11 -29
t-31 -12z" />
    <glyph glyph-name="upsilondieresis" unicode="&#x3cb;" horiz-adv-x="523" 
d="M79 496h58v-284q0 -172 132 -172q70 0 106 50t36 145v38q0 60 -12.5 118t-35.5 105h61q45 -96 45 -223v-40q0 -117 -52.5 -181t-147.5 -64q-91 0 -140.5 58t-49.5 163v287zM359 595q-20 0 -31 12t-11 29t11 28.5t31 11.5t31 -11.5t11 -28.5t-11 -29t-31 -12zM163 595
q-20 0 -31 12t-11 29t11 28.5t31 11.5t31 -11.5t11 -28.5t-11 -29t-31 -12z" />
    <glyph glyph-name="omicrontonos" unicode="&#x3cc;" horiz-adv-x="534" 
d="M267 -12q-67 0 -115 30t-73 84t-25 126v40q0 72 25 126t73 84t115 30t115 -30t73 -84t25 -126v-40q0 -72 -25 -126t-73 -84t-115 -30zM267 39q71 0 113 51t42 141v34q0 90 -42 141t-113 51t-113 -51t-42 -141v-34q0 -90 42 -141t113 -51zM243 594l55 167h63l-75 -167h-43
z" />
    <glyph glyph-name="upsilontonos" unicode="&#x3cd;" horiz-adv-x="523" 
d="M79 496h58v-284q0 -172 132 -172q70 0 106 50t36 145v38q0 60 -12.5 118t-35.5 105h61q45 -96 45 -223v-40q0 -117 -52.5 -181t-147.5 -64q-91 0 -140.5 58t-49.5 163v287zM237 594l55 167h63l-75 -167h-43z" />
    <glyph glyph-name="omegatonos" unicode="&#x3ce;" horiz-adv-x="714" 
d="M221 -12q-78 0 -122.5 57t-44.5 158v60q0 92 31 155.5t90 89.5l25 -49q-43 -20 -65.5 -71t-22.5 -127v-56q0 -79 28.5 -122t80.5 -43q53 0 80 45t27 130v122h58v-122q0 -85 27 -130t80 -45q52 0 80.5 43t28.5 122v56q0 76 -22.5 127t-65.5 71l25 49q59 -26 90 -89.5
t31 -155.5v-60q0 -101 -44.5 -158t-122.5 -57q-52 0 -87.5 32.5t-48.5 87.5q-13 -56 -48.5 -88t-87.5 -32zM333 594l55 167h63l-75 -167h-43z" />
    <glyph glyph-name="uni03D7" unicode="&#x3d7;" horiz-adv-x="488" 
d="M85 0v496h58v-209h89l161 209h68l-180 -231l82 -118q39 -57 62 -93.5t33 -63t10 -53.5q0 -63 -43.5 -101t-116.5 -38q-32 0 -70 8l11 51q19 -4 34 -5.5t25 -1.5q49 0 75.5 23t26.5 64q0 20 -8.5 41t-29 52.5t-56.5 84.5l-83 121h-90v-236h-58z" />
    <glyph glyph-name="uni0400" unicode="&#x400;" horiz-adv-x="558" 
d="M95 0v660h398v-53h-337v-244h307v-52h-307v-258h347v-53h-408zM302 720l-147 122l34 39l142 -128z" />
    <glyph glyph-name="uni0401" unicode="&#x401;" horiz-adv-x="558" 
d="M95 0v660h398v-53h-337v-244h307v-52h-307v-258h347v-53h-408zM393 730q-20 0 -31.5 12.5t-11.5 29.5t11.5 29t31.5 12q19 0 31 -12t12 -29t-12 -29.5t-31 -12.5zM195 730q-19 0 -31 12.5t-12 29.5t12 29t31 12q20 0 31.5 -12t11.5 -29t-11.5 -29.5t-31.5 -12.5z" />
    <glyph glyph-name="uni0402" unicode="&#x402;" horiz-adv-x="732" 
d="M22 607v53h536v-53h-272v-238q39 13 88.5 21t89.5 8q88 0 137.5 -24t70 -66.5t20.5 -98.5v-21q0 -86 -58 -137t-155 -51h-29v52h29q73 0 112.5 36t39.5 103v15q0 44 -13 75t-50.5 47.5t-113.5 16.5q-39 0 -85.5 -8t-82.5 -22v-315h-61v607h-203z" />
    <glyph glyph-name="uni0403" unicode="&#x403;" horiz-adv-x="496" 
d="M95 0v660h379v-53h-318v-607h-61zM276 720l-29 33l142 128l34 -39z" />
    <glyph glyph-name="uni0404" unicode="&#x404;" horiz-adv-x="605" 
d="M339 -15q-83 0 -144.5 39t-96 109.5t-34.5 163.5v66q0 93 34.5 163.5t96 109.5t144.5 39q129 0 217 -102l-39 -39q-76 86 -177 86q-66 0 -114 -32t-74.5 -90.5t-26.5 -137.5h307v-54h-307v-5q0 -79 26.5 -138t74.5 -91t113 -32q107 0 182 86l39 -39q-44 -51 -100.5 -76.5
t-120.5 -25.5z" />
    <glyph glyph-name="uni0405" unicode="&#x405;" horiz-adv-x="563" 
d="M268 -15q-63 0 -116 17.5t-109 58.5l31 46q48 -35 94 -51t99 -16q84 0 129 34t45 96q0 47 -29.5 79.5t-97.5 49.5l-85 21q-158 39 -158 174q0 85 60.5 133t163.5 48q61 0 110 -18t99 -58l-32 -45q-46 34 -88 50t-89 16q-75 0 -118.5 -33t-43.5 -92q0 -45 28.5 -74
t95.5 -46l85 -21q162 -40 162 -181q0 -87 -62.5 -137.5t-173.5 -50.5z" />
    <glyph glyph-name="uni0406" unicode="&#x406;" horiz-adv-x="251" 
d="M95 0v660h61v-660h-61z" />
    <glyph glyph-name="uni0407" unicode="&#x407;" horiz-adv-x="251" 
d="M95 0v660h61v-660h-61zM224 730q-20 0 -31.5 12.5t-11.5 29.5t11.5 29t31.5 12q19 0 31 -12t12 -29t-12 -29.5t-31 -12.5zM26 730q-19 0 -31 12.5t-12 29.5t12 29t31 12q20 0 31.5 -12t11.5 -29t-11.5 -29.5t-31.5 -12.5z" />
    <glyph glyph-name="uni0408" unicode="&#x408;" horiz-adv-x="459" 
d="M175 -15q-55 0 -93 17.5t-67 46.5l32 42q24 -23 54 -37t73 -14q62 0 100.5 35.5t38.5 123.5v461h61v-462q0 -76 -25.5 -123t-70 -68.5t-103.5 -21.5z" />
    <glyph glyph-name="uni0409" unicode="&#x409;" horiz-adv-x="965" 
d="M178 660h378v-262h156q96 0 154.5 -51.5t58.5 -137.5v-20q0 -86 -58.5 -137.5t-154.5 -51.5h-217v607h-260l-3 -256q-2 -107 -10.5 -177t-27.5 -110.5t-51.5 -57t-81.5 -16.5q-19 0 -35 2v54q12 -1 19 -1h12q45 0 69.5 26.5t35 93t12.5 186.5zM712 346h-156v-294h156
q73 0 112.5 36t39.5 103v16q0 67 -39.5 103t-112.5 36z" />
    <glyph glyph-name="uni040A" unicode="&#x40a;" horiz-adv-x="970" 
d="M95 0v660h61v-272h344v272h61v-272h156q96 0 154.5 -50t58.5 -134v-20q0 -84 -58.5 -134t-154.5 -50h-217v335h-344v-335h-61zM717 336h-156v-284h156q73 0 112.5 35t39.5 99v16q0 64 -39.5 99t-112.5 35z" />
    <glyph glyph-name="uni040B" unicode="&#x40b;" horiz-adv-x="755" 
d="M225 0v607h-203v53h536v-53h-272v-238q35 12 83.5 20.5t100.5 8.5q114 0 162 -50.5t48 -166.5v-181h-61v180q0 62 -14.5 98t-49 51.5t-94.5 15.5q-50 0 -95.5 -8.5t-79.5 -22.5v-314h-61z" />
    <glyph glyph-name="uni040C" unicode="&#x40c;" horiz-adv-x="615" 
d="M95 0v660h61v-300h130l232 300h69l-251 -324l259 -336h-76l-236 307h-127v-307h-61zM309 720l-29 33l142 128l34 -39z" />
    <glyph glyph-name="uni040D" unicode="&#x40d;" horiz-adv-x="700" 
d="M605 0h-61v600h-11l-342 -600h-96v660h61v-600h11l342 600h96v-660zM358 720l-147 122l34 39l142 -128z" />
    <glyph glyph-name="uni040E" unicode="&#x40e;" horiz-adv-x="595" 
d="M276 0h-64l72 158h-25l-239 502h67l211 -448h13l201 448h63zM297 720q-73 0 -108.5 36.5t-37.5 95.5h57q3 -40 23 -65t66 -25t66 25t23 65h57q-2 -59 -37.5 -95.5t-108.5 -36.5z" />
    <glyph glyph-name="uni040F" unicode="&#x40f;" horiz-adv-x="673" 
d="M95 0v660h61v-607h361v607h61v-660h-213v-153h-57v153h-213z" />
    <glyph glyph-name="uni0410" unicode="&#x410;" horiz-adv-x="591" 
d="M14 0l232 660h99l232 -660h-64l-65 187h-306l-65 -187h-63zM289 607l-129 -368h270l-129 368h-12z" />
    <glyph glyph-name="uni0411" unicode="&#x411;" horiz-adv-x="604" 
d="M95 0v660h409v-53h-348v-219h179q96 0 154.5 -50t58.5 -134v-20q0 -84 -58.5 -134t-154.5 -50h-240zM335 336h-179v-284h179q73 0 112.5 35t39.5 99v16q0 64 -39.5 99t-112.5 35z" />
    <glyph glyph-name="uni0412" unicode="&#x412;" horiz-adv-x="620" 
d="M95 0v660h244q86 0 139 -46t53 -119v-19q0 -49 -25.5 -83.5t-70.5 -51.5q56 -14 87.5 -53t31.5 -97v-19q0 -51 -25.5 -89.5t-71 -60.5t-105.5 -22h-257zM337 608h-181v-245h181q65 0 99.5 30t34.5 85v15q0 55 -34.5 85t-99.5 30zM156 52h196q67 0 104 32t37 90v15
q0 58 -37 90t-104 32h-196v-259z" />
    <glyph glyph-name="uni0413" unicode="&#x413;" horiz-adv-x="496" 
d="M95 0v660h379v-53h-318v-607h-61z" />
    <glyph glyph-name="uni0414" unicode="&#x414;" horiz-adv-x="676" 
d="M12 53h61q34 28 52.5 64.5t26.5 94.5t9 150l4 298h401v-607h87v-206h-57v153h-527v-153h-57v206zM220 362q-1 -86 -8 -144t-22 -97t-41 -68h356v554h-281z" />
    <glyph glyph-name="uni0415" unicode="&#x415;" horiz-adv-x="558" 
d="M95 0v660h398v-53h-337v-244h307v-52h-307v-258h347v-53h-408z" />
    <glyph glyph-name="uni0416" unicode="&#x416;" horiz-adv-x="903" 
d="M422 0v308h-112l-217 -308h-73l240 336l-231 324h69l213 -300h111v300h59v-300h113l213 300h67l-231 -324l240 -336h-75l-217 308h-110v-308h-59z" />
    <glyph glyph-name="uni0417" unicode="&#x417;" horiz-adv-x="571" 
d="M281 675q60 0 107.5 -21.5t75.5 -60t28 -90.5v-19q0 -52 -32 -90t-85 -54q57 -14 93.5 -56.5t36.5 -99.5v-19q0 -65 -31.5 -104.5t-83.5 -57.5t-114 -18q-156 0 -237 104l41 37q30 -40 79.5 -63t116.5 -23q40 0 79 11t64.5 38.5t25.5 77.5v17q0 63 -48.5 95t-140.5 32
h-77v52h77q80 0 128 31t48 90v15q0 55 -43.5 88t-108.5 33q-105 0 -182 -86l-37 37q39 49 96 76.5t124 27.5z" />
    <glyph glyph-name="uni0418" unicode="&#x418;" horiz-adv-x="700" 
d="M605 0h-61v600h-11l-342 -600h-96v660h61v-600h11l342 600h96v-660z" />
    <glyph glyph-name="uni0419" unicode="&#x419;" horiz-adv-x="700" 
d="M605 0h-61v600h-11l-342 -600h-96v660h61v-600h11l342 600h96v-660zM350 720q-73 0 -108.5 36.5t-37.5 95.5h57q3 -40 23 -65t66 -25t66 25t23 65h57q-2 -59 -37.5 -95.5t-108.5 -36.5z" />
    <glyph glyph-name="uni041A" unicode="&#x41a;" horiz-adv-x="615" 
d="M95 0v660h61v-300h130l232 300h69l-251 -324l259 -336h-76l-236 307h-127v-307h-61z" />
    <glyph glyph-name="uni041B" unicode="&#x41b;" horiz-adv-x="676" 
d="M178 660h403v-660h-61v607h-284l-3 -256q-1 -107 -10 -177t-28.5 -110.5t-52 -57t-81.5 -16.5q-19 0 -35 2v54q12 -1 19 -1h12q45 0 69.5 26.5t35 93t12.5 186.5z" />
    <glyph glyph-name="uni041C" unicode="&#x41c;" horiz-adv-x="847" 
d="M95 0v660h108l217 -494h11l217 494h104v-660h-60v601h-11l-220 -494h-76l-220 494h-11v-601h-59z" />
    <glyph glyph-name="uni041D" unicode="&#x41d;" horiz-adv-x="696" 
d="M95 0v660h61v-300h384v300h61v-660h-61v307h-384v-307h-61z" />
    <glyph glyph-name="uni041E" unicode="&#x41e;" horiz-adv-x="676" 
d="M338 -15q-87 0 -148 39.5t-93.5 110t-32.5 162.5v66q0 92 32.5 162.5t93.5 110t148 39.5q86 0 147.5 -39.5t94 -110t32.5 -162.5v-66q0 -92 -32.5 -162.5t-94 -110t-147.5 -39.5zM338 40q98 0 155.5 70t57.5 191v58q0 121 -57.5 191t-155.5 70t-155.5 -70t-57.5 -191v-58
q0 -121 57.5 -191t155.5 -70z" />
    <glyph glyph-name="uni041F" unicode="&#x41f;" horiz-adv-x="678" 
d="M95 660h488v-660h-61v607h-366v-607h-61v660z" />
    <glyph glyph-name="uni0420" unicode="&#x420;" horiz-adv-x="579" 
d="M95 0v660h231q97 0 155 -50.5t58 -133.5v-20q0 -83 -58 -133.5t-155 -50.5h-170v-272h-61zM326 608h-170v-284h170q73 0 112.5 35t39.5 99v16q0 64 -39.5 99t-112.5 35z" />
    <glyph glyph-name="uni0421" unicode="&#x421;" horiz-adv-x="605" 
d="M339 -15q-83 0 -144.5 39t-96 109.5t-34.5 163.5v66q0 93 34.5 163.5t96 109.5t144.5 39q129 0 217 -102l-39 -39q-76 86 -177 86q-66 0 -114 -32t-74.5 -91t-26.5 -138v-58q0 -79 26.5 -138t74.5 -91t113 -32q107 0 182 86l39 -39q-44 -51 -100.5 -76.5t-120.5 -25.5z
" />
    <glyph glyph-name="uni0422" unicode="&#x422;" horiz-adv-x="561" 
d="M250 0v607h-228v53h517v-53h-228v-607h-61z" />
    <glyph glyph-name="uni0423" unicode="&#x423;" horiz-adv-x="595" 
d="M276 0h-64l72 158h-25l-239 502h67l211 -448h13l201 448h63z" />
    <glyph glyph-name="uni0424" unicode="&#x424;" horiz-adv-x="767" 
d="M353 685h61v-65q145 -4 224 -78.5t79 -202.5v-12q0 -128 -79 -202.5t-224 -78.5v-71h-61v71q-145 4 -224 78.5t-79 202.5v12q0 128 79 202.5t224 78.5v65zM659 338q0 109 -62 168.5t-183 62.5v-472q121 3 183 62.5t62 168.5v10zM108 328q0 -109 62 -168.5t183 -62.5v472
q-121 -3 -183 -62.5t-62 -168.5v-10z" />
    <glyph glyph-name="uni0425" unicode="&#x425;" horiz-adv-x="599" 
d="M20 0l239 333l-226 327h75l189 -280h10l189 280h70l-226 -325l239 -335h-75l-202 288h-10l-202 -288h-70z" />
    <glyph glyph-name="uni0426" unicode="&#x426;" horiz-adv-x="688" 
d="M95 0v660h61v-607h361v607h61v-607h87v-206h-57v153h-513z" />
    <glyph glyph-name="uni0427" unicode="&#x427;" horiz-adv-x="648" 
d="M492 0v292q-37 -13 -88.5 -21.5t-107.5 -8.5q-120 0 -170.5 50.5t-50.5 166.5v181h61v-180q0 -62 15.5 -98t52.5 -51.5t101 -15.5q53 0 102 8.5t85 22.5v314h61v-660h-61z" />
    <glyph glyph-name="uni0428" unicode="&#x428;" horiz-adv-x="923" 
d="M95 660h61v-607h275v607h61v-607h275v607h61v-660h-733v660z" />
    <glyph glyph-name="uni0429" unicode="&#x429;" horiz-adv-x="932" 
d="M95 660h61v-607h272v607h61v-607h272v607h61v-607h87v-206h-57v153h-757v660z" />
    <glyph glyph-name="uni042A" unicode="&#x42a;" horiz-adv-x="717" 
d="M240 0v607h-218v53h279v-262h163q96 0 154.5 -51.5t58.5 -137.5v-20q0 -86 -58.5 -137.5t-154.5 -51.5h-224zM464 346h-163v-294h163q73 0 112.5 36t39.5 103v16q0 67 -39.5 103t-112.5 36z" />
    <glyph glyph-name="uni042B" unicode="&#x42b;" horiz-adv-x="785" 
d="M629 0v660h61v-660h-61zM95 0v660h61v-262h156q96 0 154.5 -51.5t58.5 -137.5v-20q0 -86 -58.5 -137.5t-154.5 -51.5h-217zM312 346h-156v-294h156q73 0 112.5 36t39.5 103v16q0 67 -39.5 103t-112.5 36z" />
    <glyph glyph-name="uni042C" unicode="&#x42c;" horiz-adv-x="579" 
d="M95 0v660h61v-262h170q96 0 154.5 -51.5t58.5 -137.5v-20q0 -86 -58.5 -137.5t-154.5 -51.5h-231zM326 346h-170v-294h170q73 0 112.5 36t39.5 103v16q0 67 -39.5 103t-112.5 36z" />
    <glyph glyph-name="uni042D" unicode="&#x42d;" horiz-adv-x="601" 
d="M268 675q82 0 142 -39.5t93.5 -110t33.5 -162.5v-66q0 -92 -34 -162.5t-95.5 -110t-145.5 -39.5q-68 0 -122 27t-95 75l39 39q74 -86 177 -86q64 0 112.5 31.5t75.5 90t27 139.5v5h-307v54h307q0 81 -27 139.5t-74 89.5t-109 31q-98 0 -172 -86l-39 39q41 48 93.5 75
t119.5 27z" />
    <glyph glyph-name="uni042E" unicode="&#x42e;" horiz-adv-x="882" 
d="M552 -15q-84 0 -143.5 39.5t-91 110t-31.5 162.5v10h-130v-307h-61v660h61v-300h130v3q0 92 31.5 162.5t91 110t143.5 39.5t143.5 -39.5t91 -110t31.5 -162.5v-66q0 -92 -31.5 -162.5t-91 -110t-143.5 -39.5zM552 40q94 0 149.5 70t55.5 191v58q0 121 -55.5 191
t-149.5 70t-149.5 -70t-55.5 -191v-58q0 -121 55.5 -191t149.5 -70z" />
    <glyph glyph-name="uni042F" unicode="&#x42f;" horiz-adv-x="605" 
d="M510 660v-660h-61v281h-159l-175 -281h-69l179 284q-73 11 -119 57.5t-46 119.5v19q0 55 27 95.5t73.5 62.5t106.5 22h243zM267 333h182v275h-182q-70 0 -108 -34t-38 -96v-15q0 -61 38 -95.5t108 -34.5z" />
    <glyph glyph-name="uni0430" unicode="&#x430;" horiz-adv-x="497" 
d="M187 -10q-69 0 -111.5 38.5t-42.5 101.5q0 70 51.5 111t137.5 41h129v29q0 146 -128 146q-79 0 -132 -52l-32 37q66 66 166 66q90 0 136.5 -50t46.5 -147v-214q0 -57 43 -57q5 0 11 0.5t11 1.5v-49q-12 -3 -34 -3q-86 0 -86 102q-29 -49 -72 -75.5t-94 -26.5zM202 40
q47 0 86 27.5t63 77.5v90h-125q-63 0 -98.5 -27t-35.5 -76q0 -43 29 -67.5t81 -24.5z" />
    <glyph glyph-name="uni0431" unicode="&#x431;" horiz-adv-x="549" 
d="M310 491q88 0 136.5 -60t48.5 -171v-39q0 -107 -57.5 -170t-154.5 -63q-103 0 -158.5 66t-55.5 187v129q0 104 23 166.5t78 96t151 48.5l138 22l9 -56l-141 -21q-84 -12 -129.5 -38.5t-62.5 -77t-17 -137.5q28 54 79 86t113 32zM127 243q0 -97 40.5 -150.5t115.5 -53.5
q71 0 112.5 49.5t41.5 135.5v33q0 89 -35.5 135.5t-104.5 46.5q-55 0 -99 -28t-71 -79v-89z" />
    <glyph glyph-name="uni0432" unicode="&#x432;" horiz-adv-x="517" 
d="M85 496h215q72 0 112 -36t40 -92q0 -40 -20.5 -68t-50.5 -40q38 -14 59.5 -45.5t21.5 -77.5q0 -64 -44 -100.5t-117 -36.5h-216v496zM300 447h-159v-167h159q51 0 72.5 23.5t21.5 59.5q0 37 -21.5 60.5t-72.5 23.5zM301 234h-160v-185h160q55 0 79 26t24 66q0 41 -24 67
t-79 26z" />
    <glyph glyph-name="uni0433" unicode="&#x433;" horiz-adv-x="402" 
d="M85 496h298v-50h-240v-446h-58v496z" />
    <glyph glyph-name="uni0434" unicode="&#x434;" horiz-adv-x="536" 
d="M5 50h57q28 22 40.5 73.5t13.5 121.5l4 251h319v-446h77v-193h-54v143h-403v-143h-54v193zM170 250q-1 -73 -11 -120.5t-33 -79.5h255v396h-207z" />
    <glyph glyph-name="uni0435" unicode="&#x435;" horiz-adv-x="510" 
d="M271 -12q-71 0 -119 31t-73 85.5t-25 124.5v40q0 70 24 124t70 84.5t113 30.5t112 -32t68 -87t23 -123v-30h-353v-4q0 -89 41.5 -141t120.5 -52q47 0 81 17t60 43l35 -36q-33 -35 -77 -55t-101 -20zM260 457q-68 0 -106.5 -44t-42.5 -130h296q-3 81 -41.5 127.5
t-105.5 46.5z" />
    <glyph glyph-name="uni0436" unicode="&#x436;" horiz-adv-x="713" 
d="M328 0v229h-87l-153 -229h-68l175 258l-165 238h65l148 -216h85v216h57v-216h86l148 216h64l-165 -238l175 -258h-69l-153 229h-86v-229h-57z" />
    <glyph glyph-name="uni0437" unicode="&#x437;" horiz-adv-x="476" 
d="M242 508q78 0 123.5 -35.5t45.5 -97.5q0 -42 -21.5 -74t-62.5 -45q42 -11 68 -43.5t26 -80.5q0 -69 -53.5 -106.5t-135.5 -37.5q-58 0 -106 18t-86 57l36 36q29 -31 69 -45.5t89 -14.5q62 0 95.5 25t33.5 74q0 91 -127 91h-83v48h76q124 0 124 93q0 87 -110 87
q-45 0 -85 -15t-69 -47l-35 36q36 40 84.5 58.5t103.5 18.5z" />
    <glyph glyph-name="uni0438" unicode="&#x438;" horiz-adv-x="561" 
d="M476 0h-58v439h-9l-233 -439h-91v496h58v-439h9l233 439h91v-496z" />
    <glyph glyph-name="uni0439" unicode="&#x439;" horiz-adv-x="561" 
d="M476 0h-58v439h-9l-233 -439h-91v496h58v-439h9l233 439h91v-496zM280 575q-73 0 -105.5 35.5t-36.5 99.5h56q2 -43 21 -68.5t65 -25.5t65 25.5t21 68.5h56q-4 -64 -36.5 -99.5t-105.5 -35.5z" />
    <glyph glyph-name="uni043A" unicode="&#x43a;" horiz-adv-x="490" 
d="M85 0v496h58v-216h88l161 216h68l-181 -238l191 -258h-71l-168 229h-88v-229h-58z" />
    <glyph glyph-name="uni043B" unicode="&#x43b;" horiz-adv-x="546" 
d="M137 496h324v-496h-58v446h-213l-3 -197q-1 -80 -8.5 -130.5t-23.5 -78.5t-42.5 -39t-66.5 -11q-12 0 -22 2v51q7 -1 12.5 -1h8.5q33 0 51.5 17t27 61t9.5 124z" />
    <glyph glyph-name="uni043C" unicode="&#x43c;" horiz-adv-x="668" 
d="M85 0v496h98l148 -361h8l148 361h96v-496h-58v441h-9l-150 -359h-64l-150 359h-9v-441h-58z" />
    <glyph glyph-name="uni043D" unicode="&#x43d;" horiz-adv-x="554" 
d="M85 496h58v-214h268v214h58v-496h-58v232h-268v-232h-58v496z" />
    <glyph glyph-name="uni043E" unicode="&#x43e;" horiz-adv-x="534" 
d="M267 -12q-67 0 -115 30t-73 84t-25 126v40q0 72 25 126t73 84t115 30t115 -30t73 -84t25 -126v-40q0 -72 -25 -126t-73 -84t-115 -30zM267 39q71 0 113 51t42 141v34q0 90 -42 141t-113 51t-113 -51t-42 -141v-34q0 -90 42 -141t113 -51z" />
    <glyph glyph-name="uni043F" unicode="&#x43f;" horiz-adv-x="546" 
d="M85 496h376v-496h-58v446h-260v-446h-58v496z" />
    <glyph glyph-name="uni0440" unicode="&#x440;" horiz-adv-x="557" 
d="M85 -190v686h54v-98q27 52 70 80t98 28q59 0 103.5 -29.5t68.5 -83t24 -125.5v-40q0 -72 -24 -125.5t-68.5 -83t-103.5 -29.5q-53 0 -95 26t-69 74v-280h-58zM294 454q-48 0 -88 -28t-63 -77v-202q23 -49 63 -77t88 -28q70 0 110.5 50.5t40.5 138.5v34q0 88 -40.5 138.5
t-110.5 50.5z" />
    <glyph glyph-name="uni0441" unicode="&#x441;" horiz-adv-x="463" 
d="M266 -12q-98 0 -155 65t-57 175v40q0 72 26 126t73 84t110 30q99 0 165 -75l-36 -36q-52 60 -127 60q-71 0 -112 -51.5t-41 -140.5v-34q0 -88 42.5 -140t113.5 -52q76 0 128 60l36 -34q-68 -77 -166 -77z" />
    <glyph glyph-name="uni0442" unicode="&#x442;" horiz-adv-x="444" 
d="M193 0v446h-172v50h402v-50h-172v-446h-58z" />
    <glyph glyph-name="uni0443" unicode="&#x443;" horiz-adv-x="472" 
d="M152 -190l70 190h-30l-178 496h63l156 -445h9l156 445h60l-248 -686h-58z" />
    <glyph glyph-name="uni0444" unicode="&#x444;" horiz-adv-x="774" 
d="M358 700h58v-272q20 34 53 57t81 23q76 0 123 -61.5t47 -178.5v-40q0 -117 -47 -178.5t-123 -61.5q-48 0 -81 23t-53 57v-258h-58v258q-20 -34 -53 -57t-81 -23q-76 0 -123 61.5t-47 178.5v40q0 117 47 178.5t123 61.5q48 0 81 -23t53 -57v272zM112 265v-34
q0 -101 35.5 -146t88.5 -45q45 0 74.5 25t47.5 60v246q-18 35 -47.5 60t-74.5 25q-53 0 -88.5 -45t-35.5 -146zM662 231v34q0 101 -35.5 146t-88.5 45q-45 0 -74.5 -25t-47.5 -60v-246q18 -35 47.5 -60t74.5 -25q53 0 88.5 45t35.5 146z" />
    <glyph glyph-name="uni0445" unicode="&#x445;" horiz-adv-x="455" 
d="M13 0l176 250l-170 246h69l137 -204h10l137 204h65l-170 -244l176 -252h-69l-143 210h-10l-143 -210h-65z" />
    <glyph glyph-name="uni0446" unicode="&#x446;" horiz-adv-x="555" 
d="M85 496h58v-446h257v446h58v-446h77v-193h-54v143h-396v496z" />
    <glyph glyph-name="uni0447" unicode="&#x447;" horiz-adv-x="524" 
d="M66 496h58v-140q0 -65 27 -91.5t97 -26.5q35 0 66.5 6t66.5 17v235h58v-496h-58v211q-65 -23 -142 -23q-92 0 -132.5 39t-40.5 127v142z" />
    <glyph glyph-name="uni0448" unicode="&#x448;" horiz-adv-x="766" 
d="M85 496h58v-446h211v446h58v-446h211v446h58v-496h-596v496z" />
    <glyph glyph-name="uni0449" unicode="&#x449;" horiz-adv-x="774" 
d="M85 496h58v-446h209v446h58v-446h209v446h58v-446h77v-193h-54v143h-615v496z" />
    <glyph glyph-name="uni044A" unicode="&#x44a;" horiz-adv-x="583" 
d="M21 446v50h215v-176h135q91 0 133.5 -46t42.5 -114t-42.5 -114t-133.5 -46h-193v446h-157zM488 160q0 48 -27 79t-90 31h-135v-220h135q63 0 90 31t27 79z" />
    <glyph glyph-name="uni044B" unicode="&#x44b;" horiz-adv-x="683" 
d="M449 160q0 -68 -42.5 -114t-133.5 -46h-188v496h58v-176h130q91 0 133.5 -46t42.5 -114zM540 496h58v-496h-58v496zM273 270h-130v-220h130q63 0 90 31t27 79t-27 79t-90 31z" />
    <glyph glyph-name="uni044C" unicode="&#x44c;" horiz-adv-x="492" 
d="M456 160q0 -68 -42.5 -114t-133.5 -46h-195v496h58v-176h137q91 0 133.5 -46t42.5 -114zM280 270h-137v-220h137q63 0 90 31t27 79t-27 79t-90 31z" />
    <glyph glyph-name="uni044D" unicode="&#x44d;" horiz-adv-x="472" 
d="M199 -12q-102 0 -168 75l35 36q54 -60 133 -60q73 0 117 52t44 138h-223v49h223q-3 84 -45 131.5t-112 47.5q-79 0 -133 -60l-35 35q68 76 168 76q65 0 113.5 -29.5t75 -83.5t26.5 -127v-40q0 -110 -59 -175t-160 -65z" />
    <glyph glyph-name="uni044E" unicode="&#x44e;" horiz-adv-x="727" 
d="M461 -12q-67 0 -114 30.5t-72 85t-25 125.5v3h-107v-232h-58v496h58v-214h107q4 102 59 164t152 62q101 0 156.5 -66t55.5 -173v-40q0 -71 -25 -125.5t-72.5 -85t-114.5 -30.5zM461 39q71 0 112.5 51.5t41.5 141.5v34q0 90 -41.5 140.5t-112.5 50.5t-112 -50.5
t-41 -140.5v-34q0 -90 41 -141.5t112 -51.5z" />
    <glyph glyph-name="uni044F" unicode="&#x44f;" horiz-adv-x="511" 
d="M426 496v-496h-58v198h-138l-125 -198h-65l131 205q-58 13 -85.5 51.5t-27.5 90.5q0 64 41 106.5t129 42.5h198zM228 246h140v200h-140q-60 0 -85.5 -29t-25.5 -72t25.5 -71t85.5 -28z" />
    <glyph glyph-name="uni0450" unicode="&#x450;" horiz-adv-x="510" 
d="M271 -12q-71 0 -119 31t-73 85.5t-25 124.5v40q0 70 24 124t70 84.5t113 30.5t112 -32t68 -87t23 -123v-30h-353v-4q0 -89 41.5 -141t120.5 -52q47 0 81 17t60 43l35 -36q-33 -35 -77 -55t-101 -20zM260 457q-68 0 -106.5 -44t-42.5 -130h296q-3 81 -41.5 127.5
t-105.5 46.5zM262 575l-121 143l40 32l115 -148z" />
    <glyph glyph-name="uni0451" unicode="&#x451;" horiz-adv-x="510" 
d="M271 -12q-71 0 -119 31t-73 85.5t-25 124.5v40q0 70 24 124t70 84.5t113 30.5t112 -32t68 -87t23 -123v-30h-353v-4q0 -89 41.5 -141t120.5 -52q47 0 81 17t60 43l35 -36q-33 -35 -77 -55t-101 -20zM260 457q-68 0 -106.5 -44t-42.5 -130h296q-3 81 -41.5 127.5
t-105.5 46.5zM353 595q-20 0 -31 12t-11 29t11 28.5t31 11.5t31 -11.5t11 -28.5t-11 -29t-31 -12zM157 595q-20 0 -31 12t-11 29t11 28.5t31 11.5t31 -11.5t11 -28.5t-11 -29t-31 -12z" />
    <glyph glyph-name="uni0452" unicode="&#x452;" horiz-adv-x="617" 
d="M145 0v580h-126v46h126v74h58v-74h178v-46h-178v-183q25 47 65 73t94 26q56 0 95.5 -26.5t60 -88t20.5 -164.5v-99q0 -110 -20 -176.5t-58.5 -99t-94.5 -40.5l-12 53q42 6 70.5 32t42.5 82t14 152v93q0 88 -15 138.5t-45 71t-73 20.5q-46 0 -83.5 -26.5t-60.5 -76.5v-341
h-58z" />
    <glyph glyph-name="uni0453" unicode="&#x453;" horiz-adv-x="402" 
d="M85 496h298v-50h-240v-446h-58v496zM227 575l-34 27l115 148l40 -32z" />
    <glyph glyph-name="uni0454" unicode="&#x454;" horiz-adv-x="463" 
d="M266 -12q-98 0 -155 65t-57 175v40q0 72 26 126t73 84t110 30q99 0 165 -75l-36 -36q-52 60 -127 60q-68 0 -109 -48t-44 -131h223v-49h-223q1 -87 43 -138.5t113 -51.5q76 0 128 60l36 -34q-68 -77 -166 -77z" />
    <glyph glyph-name="uni0455" unicode="&#x455;" horiz-adv-x="441" 
d="M208 -12q-104 0 -175 70l31 39q60 -57 144 -57q59 0 93 23.5t34 65.5q0 66 -88 87l-68 16q-61 14 -93 49.5t-32 87.5q0 64 46 101.5t125 37.5q49 0 89.5 -15t80.5 -48l-29 -41q-66 53 -140 53q-53 0 -84 -22.5t-31 -62.5q0 -68 89 -89l68 -16q62 -14 94 -49t32 -87
q0 -65 -50.5 -104t-135.5 -39z" />
    <glyph glyph-name="uni0456" unicode="&#x456;" horiz-adv-x="228" 
d="M114 591q-20 0 -32 12.5t-12 30.5t12 30t32 12t32 -12t12 -30t-12 -30.5t-32 -12.5zM85 0v496h58v-496h-58z" />
    <glyph glyph-name="uni0457" unicode="&#x457;" horiz-adv-x="228" 
d="M85 0v496h58v-496h-58zM197 595q-19 0 -30.5 12t-11.5 29t11.5 28.5t30.5 11.5t30.5 -11.5t11.5 -28.5t-11.5 -29t-30.5 -12zM31 595q-19 0 -30.5 12t-11.5 29t11.5 28.5t30.5 11.5t30.5 -11.5t11.5 -28.5t-11.5 -29t-30.5 -12z" />
    <glyph glyph-name="uni0458" unicode="&#x458;" horiz-adv-x="228" 
d="M114 591q-20 0 -32 12.5t-12 30.5t12 30t32 12t32 -12t12 -30t-12 -30.5t-32 -12.5zM42 -202q-17 0 -38 3v49q7 -1 13.5 -1.5t13.5 -0.5q29 0 41.5 13.5t12.5 46.5v588h58v-588q0 -47 -22.5 -78.5t-78.5 -31.5z" />
    <glyph glyph-name="uni0459" unicode="&#x459;" horiz-adv-x="784" 
d="M133 244l4 252h305v-176h130q91 0 133.5 -46t42.5 -114t-42.5 -114t-133.5 -46h-188v446h-194l-3 -197q-1 -80 -8.5 -130.5t-23.5 -78.5t-42.5 -39t-66.5 -11q-12 0 -22 2v51q7 -1 12.5 -1h8.5q33 0 51.5 17t27 61t9.5 124zM572 270h-130v-220h130q63 0 90 31t27 79
t-27 79t-90 31z" />
    <glyph glyph-name="uni045A" unicode="&#x45a;" horiz-adv-x="795" 
d="M85 496h58v-194h252v194h58v-194h130q91 0 133.5 -43t42.5 -108t-42.5 -108t-133.5 -43h-188v252h-252v-252h-58v496zM583 252h-130v-202h130q63 0 90 28.5t27 72.5t-27 72.5t-90 28.5z" />
    <glyph glyph-name="uni045B" unicode="&#x45b;" horiz-adv-x="612" 
d="M145 0v580h-126v46h126v74h58v-74h178v-46h-178v-186q23 43 64 72.5t102 29.5q75 0 119.5 -48t44.5 -148v-300h-58v294q0 78 -32 114t-89 36t-94 -32.5t-57 -72.5v-339h-58z" />
    <glyph glyph-name="uni045C" unicode="&#x45c;" horiz-adv-x="490" 
d="M85 0v496h58v-216h88l161 216h68l-181 -238l191 -258h-71l-168 229h-88v-229h-58zM255 575l-34 27l115 148l40 -32z" />
    <glyph glyph-name="uni045D" unicode="&#x45d;" horiz-adv-x="561" 
d="M476 0h-58v439h-9l-233 -439h-91v496h58v-439h9l233 439h91v-496zM287 575l-121 143l40 32l115 -148z" />
    <glyph glyph-name="uni045E" unicode="&#x45e;" horiz-adv-x="472" 
d="M152 -190l70 190h-30l-178 496h63l156 -445h9l156 445h60l-248 -686h-58zM236 575q-73 0 -105.5 35.5t-36.5 99.5h56q2 -43 21 -68.5t65 -25.5t65 25.5t21 68.5h56q-4 -64 -36.5 -99.5t-105.5 -35.5z" />
    <glyph glyph-name="uni045F" unicode="&#x45f;" horiz-adv-x="543" 
d="M245 -143v143h-160v496h58v-446h257v446h58v-496h-159v-143h-54z" />
    <glyph glyph-name="uni0462" unicode="&#x462;" horiz-adv-x="655" 
d="M170 0v529h-148v53h148v118h61v-118h214v-53h-214v-151h171q96 0 154.5 -49t58.5 -131v-18q0 -82 -58.5 -131t-154.5 -49h-232zM402 326h-171v-274h171q73 0 112.5 34t39.5 96v14q0 62 -39.5 96t-112.5 34z" />
    <glyph glyph-name="uni0463" unicode="&#x463;" horiz-adv-x="549" 
d="M14 448v48h126v204h58v-204h178v-48h-178v-129h139q91 0 133.5 -45.5t42.5 -113.5t-42.5 -114t-133.5 -46h-197v448h-126zM337 270h-139v-220h139q63 0 90 31t27 79t-27 79t-90 31z" />
    <glyph glyph-name="uni0472" unicode="&#x472;" horiz-adv-x="676" 
d="M338 -15q-87 0 -148 39.5t-93.5 110t-32.5 162.5v66q0 92 32.5 162.5t93.5 110t148 39.5q86 0 147.5 -39.5t94 -110t32.5 -162.5v-66q0 -92 -32.5 -162.5t-94 -110t-147.5 -39.5zM338 620q-98 0 -155.5 -69.5t-57.5 -190.5h426q-1 121 -58 190.5t-155 69.5zM338 40
q98 0 155.5 70t57.5 191v6h-426v-6q0 -121 57.5 -191t155.5 -70z" />
    <glyph glyph-name="uni0473" unicode="&#x473;" horiz-adv-x="534" 
d="M267 -12q-67 0 -115 30t-73 84t-25 126v40q0 72 25 126t73 84t115 30t115 -30t73 -84t25 -126v-40q0 -72 -25 -126t-73 -84t-115 -30zM267 457q-69 0 -111 -48t-45 -134h312q-3 86 -45 134t-111 48zM267 39q71 0 113.5 50.5t42.5 138.5h-312q1 -89 43 -139t113 -50z" />
    <glyph glyph-name="uni0474" unicode="&#x474;" horiz-adv-x="663" 
d="M615 675q28 0 40 -4v-56q-11 4 -33 4q-38 0 -59 -16.5t-36 -60.5l-186 -542h-99l-227 660h64l207 -607h12l173 509q21 61 54.5 87t89.5 26z" />
    <glyph glyph-name="uni0475" unicode="&#x475;" horiz-adv-x="525" 
d="M485 508q16 0 33 -4v-53q-12 3 -26 3q-26 0 -41 -11.5t-27 -44.5l-143 -398h-89l-178 496h63l156 -445h10l128 366q17 48 43.5 69.5t70.5 21.5z" />
    <glyph glyph-name="uni0490" unicode="&#x490;" horiz-adv-x="496" 
d="M95 0v660h322v153h57v-206h-318v-607h-61z" />
    <glyph glyph-name="uni0491" unicode="&#x491;" horiz-adv-x="402" 
d="M85 496h244v143h54v-193h-240v-446h-58v496z" />
    <glyph glyph-name="uni1E24" unicode="&#x1e24;" horiz-adv-x="696" 
d="M95 0v660h61v-300h384v300h61v-660h-61v307h-384v-307h-61zM350 -147q-21 0 -32.5 13t-11.5 30t11.5 29.5t32.5 12.5t32.5 -12.5t11.5 -29.5t-11.5 -30t-32.5 -13z" />
    <glyph glyph-name="uni1E25" unicode="&#x1e25;" horiz-adv-x="552" 
d="M85 0v700h58v-296q23 43 64 72.5t102 29.5q75 0 119.5 -48t44.5 -148v-310h-58v304q0 78 -32 114t-89 36t-94 -32.5t-57 -72.5v-349h-58zM279 -147q-21 0 -32.5 13t-11.5 30t11.5 29.5t32.5 12.5t32.5 -12.5t11.5 -29.5t-11.5 -30t-32.5 -13z" />
    <glyph glyph-name="uni1E36" unicode="&#x1e36;" horiz-adv-x="524" 
d="M95 0v660h61v-607h334v-53h-395zM293 -147q-21 0 -32.5 13t-11.5 30t11.5 29.5t32.5 12.5t32.5 -12.5t11.5 -29.5t-11.5 -30t-32.5 -13z" />
    <glyph glyph-name="uni1E37" unicode="&#x1e37;" horiz-adv-x="252" 
d="M186 -10q-56 0 -78.5 28.5t-22.5 75.5v606h58v-600q0 -33 12.5 -46.5t41.5 -13.5q7 0 13.5 0.5t13.5 1.5v-49q-21 -3 -38 -3zM155 -147q-21 0 -32.5 13t-11.5 30t11.5 29.5t32.5 12.5t32.5 -12.5t11.5 -29.5t-11.5 -30t-32.5 -13z" />
    <glyph glyph-name="Wgrave" unicode="&#x1e80;" horiz-adv-x="868" 
d="M181 0l-156 660h62l140 -606h12l147 586h98l147 -586h12l140 606h60l-156 -660h-99l-148 586h-12l-148 -586h-99zM443 720l-147 122l34 39l142 -128z" />
    <glyph glyph-name="wgrave" unicode="&#x1e81;" horiz-adv-x="766" 
d="M165 0l-145 496h63l124 -444h10l124 434h87l124 -434h10l124 444h60l-145 -496h-88l-125 434h-10l-125 -434h-88zM390 575l-121 143l40 32l115 -148z" />
    <glyph glyph-name="Wacute" unicode="&#x1e82;" horiz-adv-x="868" 
d="M181 0l-156 660h62l140 -606h12l147 586h98l147 -586h12l140 606h60l-156 -660h-99l-148 586h-12l-148 -586h-99zM427 720l-29 33l142 128l34 -39z" />
    <glyph glyph-name="wacute" unicode="&#x1e83;" horiz-adv-x="766" 
d="M165 0l-145 496h63l124 -444h10l124 434h87l124 -434h10l124 444h60l-145 -496h-88l-125 434h-10l-125 -434h-88zM376 575l-34 27l115 148l40 -32z" />
    <glyph glyph-name="Wdieresis" unicode="&#x1e84;" horiz-adv-x="868" 
d="M181 0l-156 660h62l140 -606h12l147 586h98l147 -586h12l140 606h60l-156 -660h-99l-148 586h-12l-148 -586h-99zM534 730q-20 0 -31.5 12.5t-11.5 29.5t11.5 29t31.5 12q19 0 31 -12t12 -29t-12 -29.5t-31 -12.5zM336 730q-19 0 -31 12.5t-12 29.5t12 29t31 12
q20 0 31.5 -12t11.5 -29t-11.5 -29.5t-31.5 -12.5z" />
    <glyph glyph-name="wdieresis" unicode="&#x1e85;" horiz-adv-x="766" 
d="M165 0l-145 496h63l124 -444h10l124 434h87l124 -434h10l124 444h60l-145 -496h-88l-125 434h-10l-125 -434h-88zM481 595q-20 0 -31 12t-11 29t11 28.5t31 11.5t31 -11.5t11 -28.5t-11 -29t-31 -12zM285 595q-20 0 -31 12t-11 29t11 28.5t31 11.5t31 -11.5t11 -28.5
t-11 -29t-31 -12z" />
    <glyph glyph-name="uni1E9E" unicode="&#x1e9e;" horiz-adv-x="603" 
d="M361 -15q-49 0 -87 11.5t-79 36.5l28 47q63 -40 137 -40q73 0 112.5 35t39.5 100q0 53 -26.5 83.5t-86.5 46.5l-101 26v48l154 228h-176q-60 0 -92.5 -37.5t-32.5 -106.5v-463h-61v463q0 94 49 145.5t137 51.5h244v-52l-159 -233l62 -16q150 -37 150 -181q0 -89 -57 -141
t-155 -52z" />
    <glyph glyph-name="Ygrave" unicode="&#x1ef2;" horiz-adv-x="564" 
d="M252 0v265l-232 395h69l190 -327h12l188 327h65l-232 -395v-265h-60zM290 720l-147 122l34 39l142 -128z" />
    <glyph glyph-name="ygrave" unicode="&#x1ef3;" horiz-adv-x="472" 
d="M152 -190l70 190h-30l-178 496h63l156 -445h9l156 445h60l-248 -686h-58zM243 575l-121 143l40 32l115 -148z" />
    <glyph glyph-name="uni2000" unicode="&#x2000;" horiz-adv-x="500" 
 />
    <glyph glyph-name="uni2001" unicode="&#x2001;" horiz-adv-x="1000" 
 />
    <glyph glyph-name="uni2002" unicode="&#x2002;" horiz-adv-x="500" 
 />
    <glyph glyph-name="uni2003" unicode="&#x2003;" horiz-adv-x="1000" 
 />
    <glyph glyph-name="uni2004" unicode="&#x2004;" horiz-adv-x="333" 
 />
    <glyph glyph-name="uni2005" unicode="&#x2005;" horiz-adv-x="250" 
 />
    <glyph glyph-name="uni2006" unicode="&#x2006;" horiz-adv-x="167" 
 />
    <glyph glyph-name="uni2007" unicode="&#x2007;" horiz-adv-x="590" 
 />
    <glyph glyph-name="uni2008" unicode="&#x2008;" horiz-adv-x="212" 
 />
    <glyph glyph-name="uni2009" unicode="&#x2009;" horiz-adv-x="200" 
 />
    <glyph glyph-name="uni200A" unicode="&#x200a;" horiz-adv-x="62" 
 />
    <glyph glyph-name="uni200B" unicode="&#x200b;" 
 />
    <glyph glyph-name="uni2010" unicode="&#x2010;" horiz-adv-x="381" 
d="M39 279v57h303v-57h-303z" />
    <glyph glyph-name="uni2011" unicode="&#x2011;" horiz-adv-x="381" 
d="M39 279v57h303v-57h-303z" />
    <glyph glyph-name="figuredash" unicode="&#x2012;" horiz-adv-x="590" 
d="M0 284v52h590v-52h-590z" />
    <glyph glyph-name="endash" unicode="&#x2013;" horiz-adv-x="500" 
d="M0 284v52h500v-52h-500z" />
    <glyph glyph-name="emdash" unicode="&#x2014;" horiz-adv-x="1000" 
d="M0 284v52h1000v-52h-1000z" />
    <glyph glyph-name="uni2015" unicode="&#x2015;" horiz-adv-x="1000" 
d="M0 284v52h1000v-52h-1000z" />
    <glyph glyph-name="quoteleft" unicode="&#x2018;" horiz-adv-x="186" 
d="M93 505q-20 0 -32.5 14t-12.5 37q0 32 24 72t61 72l24 -26q-46 -41 -60 -80q18 -1 30 -13.5t12 -30.5q0 -20 -13.5 -32.5t-32.5 -12.5z" />
    <glyph glyph-name="quoteright" unicode="&#x2019;" horiz-adv-x="186" 
d="M53 505l-24 26q46 41 60 80q-18 1 -30 13.5t-12 30.5q0 19 13.5 32t32.5 13q20 0 32.5 -14t12.5 -37q0 -32 -24 -72.5t-61 -71.5z" />
    <glyph glyph-name="quotesinglbase" unicode="&#x201a;" horiz-adv-x="186" 
d="M53 -114l-24 26q46 41 60 80q-18 1 -30 13.5t-12 30.5q0 19 13.5 32t32.5 13q20 0 32.5 -14t12.5 -37q0 -32 -24 -72.5t-61 -71.5z" />
    <glyph glyph-name="quotedblleft" unicode="&#x201c;" horiz-adv-x="326" 
d="M93 505q-20 0 -32.5 14t-12.5 37q0 32 24 72t61 72l24 -26q-46 -41 -60 -80q18 -1 30 -13.5t12 -30.5q0 -20 -13.5 -32.5t-32.5 -12.5zM233 505q-20 0 -32.5 14t-12.5 37q0 32 24 72t61 72l24 -26q-46 -41 -60 -80q18 -1 30 -13.5t12 -30.5q0 -20 -13.5 -32.5
t-32.5 -12.5z" />
    <glyph glyph-name="quotedblright" unicode="&#x201d;" horiz-adv-x="326" 
d="M53 505l-24 26q46 41 60 80q-18 1 -30 13.5t-12 30.5q0 19 13.5 32t32.5 13q20 0 32.5 -14t12.5 -37q0 -32 -24 -72.5t-61 -71.5zM193 505l-24 26q46 41 60 80q-18 1 -30 13.5t-12 30.5q0 19 13.5 32t32.5 13q20 0 32.5 -14t12.5 -37q0 -32 -24 -72.5t-61 -71.5z" />
    <glyph glyph-name="quotedblbase" unicode="&#x201e;" horiz-adv-x="326" 
d="M53 -114l-24 26q46 41 60 80q-18 1 -30 13.5t-12 30.5q0 19 13.5 32t32.5 13q20 0 32.5 -14t12.5 -37q0 -32 -24 -72.5t-61 -71.5zM193 -114l-24 26q46 41 60 80q-18 1 -30 13.5t-12 30.5q0 19 13.5 32t32.5 13q20 0 32.5 -14t12.5 -37q0 -32 -24 -72.5t-61 -71.5z" />
    <glyph glyph-name="dagger" unicode="&#x2020;" horiz-adv-x="553" 
d="M246 -190v614h-192v53h192v249h61v-249h192v-53h-192v-614h-61z" />
    <glyph glyph-name="daggerdbl" unicode="&#x2021;" horiz-adv-x="553" 
d="M54 59v53h192v312h-192v53h192v249h61v-249h192v-53h-192v-312h192v-53h-192v-249h-61v249h-192z" />
    <glyph glyph-name="bullet" unicode="&#x2022;" horiz-adv-x="462" 
d="M231 213q-49 0 -85 32.5t-36 84.5t36 84.5t85 32.5t85 -32.5t36 -84.5t-36 -84.5t-85 -32.5z" />
    <glyph glyph-name="ellipsis" unicode="&#x2026;" horiz-adv-x="636" 
d="M106 -10q-20 0 -34 13.5t-14 33.5t14 33.5t34 13.5t34 -13.5t14 -33.5t-14 -33.5t-34 -13.5zM318 -10q-20 0 -34 13.5t-14 33.5t14 33.5t34 13.5t34 -13.5t14 -33.5t-14 -33.5t-34 -13.5zM530 -10q-20 0 -34 13.5t-14 33.5t14 33.5t34 13.5t34 -13.5t14 -33.5t-14 -33.5
t-34 -13.5z" />
    <glyph glyph-name="perthousand" unicode="&#x2030;" horiz-adv-x="1006" 
d="M96 0l440 660h58l-440 -660h-58zM158 330q-64 0 -96 40.5t-32 114.5v28q0 74 32 115t96 41t96 -41t32 -115v-28q0 -74 -32 -114.5t-96 -40.5zM158 374q75 0 75 113v24q0 114 -75 114t-75 -114v-24q0 -113 75 -113zM532 -9q-64 0 -96 40.5t-32 114.5v28q0 74 32 115t96 41
t96 -41t32 -115v-28q0 -74 -32 -114.5t-96 -40.5zM532 35q75 0 75 113v24q0 114 -75 114t-75 -114v-24q0 -113 75 -113zM848 -9q-64 0 -96 40.5t-32 114.5v28q0 74 32 115t96 41t96 -41t32 -115v-28q0 -74 -32 -114.5t-96 -40.5zM848 35q75 0 75 113v24q0 114 -75 114
t-75 -114v-24q0 -113 75 -113z" />
    <glyph glyph-name="guilsinglleft" unicode="&#x2039;" horiz-adv-x="298" 
d="M220 45l-175 173v60l175 173l33 -33l-150 -164v-12l150 -164z" />
    <glyph glyph-name="guilsinglright" unicode="&#x203a;" horiz-adv-x="298" 
d="M78 45l-33 33l150 164v12l-150 164l33 33l175 -173v-60z" />
    <glyph glyph-name="fraction" unicode="&#x2044;" horiz-adv-x="58" 
d="M-220 0l440 660h58l-440 -660h-58z" />
    <glyph glyph-name="uni2070" unicode="&#x2070;" horiz-adv-x="316" 
d="M158 430q-64 0 -96 40.5t-32 114.5v28q0 74 32 115t96 41t96 -41t32 -115v-28q0 -74 -32 -114.5t-96 -40.5zM158 474q75 0 75 113v24q0 114 -75 114t-75 -114v-24q0 -113 75 -113z" />
    <glyph glyph-name="uni2074" unicode="&#x2074;" horiz-adv-x="291" 
d="M167 439v75h-157v41l139 205h70v-202h47v-44h-47v-75h-52zM161 710l-104 -152h110v152h-6z" />
    <glyph glyph-name="uni2075" unicode="&#x2075;" horiz-adv-x="302" 
d="M138 430q-70 0 -110 40l27 35q34 -31 82 -31q31 0 49 15t18 42q0 58 -70 58h-78v171h189v-44h-142v-83h46q51 0 80 -26.5t29 -72.5q0 -47 -32.5 -75.5t-87.5 -28.5z" />
    <glyph glyph-name="uni2076" unicode="&#x2076;" horiz-adv-x="308" 
d="M158 430q-54 0 -86 28.5t-32 81.5q0 30 13 63t45 79l54 78h60l-68 -98q-19 -27 -30 -48q12 13 29 21t38 8q39 0 66.5 -28t27.5 -75q0 -49 -31.5 -79.5t-85.5 -30.5zM94 540q0 -33 17.5 -49.5t46.5 -16.5q31 0 47 19t16 47q0 30 -16.5 47t-46.5 17q-15 0 -30.5 -5
t-27.5 -18q-6 -20 -6 -41z" />
    <glyph glyph-name="uni2077" unicode="&#x2077;" horiz-adv-x="273" 
d="M57 439l130 274h-163v47h219v-43l-126 -278h-60z" />
    <glyph glyph-name="uni2078" unicode="&#x2078;" horiz-adv-x="322" 
d="M161 430q-55 0 -87 25.5t-32 69.5q0 34 18 53.5t45 29.5q-21 6 -37 24.5t-16 47.5q0 41 30 65t79 24t79 -24t30 -65q0 -29 -16 -47.5t-37 -24.5q27 -10 45 -29.5t18 -53.5q0 -44 -32 -69.5t-87 -25.5zM161 626q26 0 42.5 12.5t16.5 37.5t-16.5 37.5t-42.5 12.5
t-42.5 -12.5t-16.5 -37.5t16.5 -37.5t42.5 -12.5zM161 473q30 0 47.5 14t17.5 41t-17.5 41t-47.5 14t-47.5 -14t-17.5 -41t17.5 -41t47.5 -14z" />
    <glyph glyph-name="uni2079" unicode="&#x2079;" horiz-adv-x="308" 
d="M96 439l68 97q20 28 31 49q-13 -13 -29.5 -21t-38.5 -8q-40 0 -67 27.5t-27 74.5q0 49 31.5 80t86.5 31q53 0 85 -28.5t32 -82.5q0 -29 -12.5 -63t-45.5 -80l-54 -76h-60zM87 658q0 -30 16.5 -47t47.5 -17q15 0 30 5t27 18q6 20 6 41q0 33 -17 50t-46 17
q-31 0 -47.5 -19.5t-16.5 -47.5z" />
    <glyph glyph-name="uni2080" unicode="&#x2080;" horiz-adv-x="316" 
d="M158 -109q-64 0 -96 40.5t-32 114.5v28q0 74 32 115t96 41t96 -41t32 -115v-28q0 -74 -32 -114.5t-96 -40.5zM158 -65q75 0 75 113v24q0 114 -75 114t-75 -114v-24q0 -113 75 -113z" />
    <glyph glyph-name="uni2081" unicode="&#x2081;" horiz-adv-x="209" 
d="M86 -100v277h-64v44h118v-321h-54z" />
    <glyph glyph-name="uni2082" unicode="&#x2082;" horiz-adv-x="281" 
d="M25 -100v42l121 123q20 19 28 35t8 33q0 26 -15.5 39.5t-38.5 13.5q-22 0 -38 -10.5t-30 -29.5l-34 29q17 23 42 39t64 16q46 0 75 -24t29 -68q0 -29 -14.5 -53.5t-43.5 -53.5l-86 -87h152v-44h-219z" />
    <glyph glyph-name="uni2083" unicode="&#x2083;" horiz-adv-x="304" 
d="M137 -109q-68 0 -112 41l28 35q32 -32 84 -32q32 0 50 15t18 41q0 55 -72 55h-41v36l90 95h-134v44h196v-42l-89 -92q47 -1 75.5 -26.5t28.5 -69.5q0 -45 -33.5 -72.5t-88.5 -27.5z" />
    <glyph glyph-name="uni2084" unicode="&#x2084;" horiz-adv-x="291" 
d="M167 -100v75h-157v41l139 205h70v-202h47v-44h-47v-75h-52zM161 171l-104 -152h110v152h-6z" />
    <glyph glyph-name="uni2085" unicode="&#x2085;" horiz-adv-x="302" 
d="M138 -109q-70 0 -110 40l27 35q34 -31 82 -31q31 0 49 15t18 42q0 58 -70 58h-78v171h189v-44h-142v-83h46q51 0 80 -26.5t29 -72.5q0 -47 -32.5 -75.5t-87.5 -28.5z" />
    <glyph glyph-name="uni2086" unicode="&#x2086;" horiz-adv-x="308" 
d="M158 -109q-54 0 -86 28.5t-32 81.5q0 30 13 63t45 79l54 78h60l-68 -98q-19 -27 -30 -48q12 13 29 21t38 8q39 0 66.5 -28t27.5 -75q0 -49 -31.5 -79.5t-85.5 -30.5zM94 1q0 -33 17.5 -49.5t46.5 -16.5q31 0 47 19t16 47q0 30 -16.5 47t-46.5 17q-15 0 -30.5 -5
t-27.5 -18q-6 -20 -6 -41z" />
    <glyph glyph-name="uni2087" unicode="&#x2087;" horiz-adv-x="273" 
d="M57 -100l130 274h-163v47h219v-43l-126 -278h-60z" />
    <glyph glyph-name="uni2088" unicode="&#x2088;" horiz-adv-x="322" 
d="M161 -109q-55 0 -87 25.5t-32 69.5q0 34 18 53.5t45 29.5q-21 6 -37 24.5t-16 47.5q0 41 30 65t79 24t79 -24t30 -65q0 -29 -16 -47.5t-37 -24.5q27 -10 45 -29.5t18 -53.5q0 -44 -32 -69.5t-87 -25.5zM161 87q26 0 42.5 12.5t16.5 37.5t-16.5 37.5t-42.5 12.5
t-42.5 -12.5t-16.5 -37.5t16.5 -37.5t42.5 -12.5zM161 -66q30 0 47.5 14t17.5 41t-17.5 41t-47.5 14t-47.5 -14t-17.5 -41t17.5 -41t47.5 -14z" />
    <glyph glyph-name="uni2089" unicode="&#x2089;" horiz-adv-x="308" 
d="M96 -100l68 97q20 28 31 49q-13 -13 -29.5 -21t-38.5 -8q-40 0 -67 27.5t-27 74.5q0 49 31.5 80t86.5 31q53 0 85 -28.5t32 -82.5q0 -29 -12.5 -63t-45.5 -80l-54 -76h-60zM87 119q0 -30 16.5 -47t47.5 -17q15 0 30 5t27 18q6 20 6 41q0 33 -17 50t-46 17
q-31 0 -47.5 -19.5t-16.5 -47.5z" />
    <glyph glyph-name="Euro" unicode="&#x20ac;" horiz-adv-x="590" 
d="M42 234v53h68v10v66v14h-68v53h73q10 74 42.5 129t84 85.5t117.5 30.5q62 0 111 -27t86 -75l-40 -37q-63 84 -156 84q-72 0 -120.5 -50t-63.5 -140h244v-53h-249v-18v-58v-14h249v-53h-244q13 -91 62 -142.5t122 -51.5q92 0 155 84l41 -37q-37 -48 -86 -75t-111 -27
q-67 0 -118.5 31t-84 87t-42.5 131h-72z" />
    <glyph glyph-name="uni20B4" unicode="&#x20b4;" horiz-adv-x="590" 
d="M65 233v52h88q36 30 85.5 50.5t92.5 41.5h-266v52h342q12 13 18.5 29.5t6.5 36.5q0 58 -37 91.5t-101 33.5q-40 0 -75 -15.5t-75 -50.5l-32 45q44 40 87.5 58t97.5 18q91 0 144 -48.5t53 -131.5q0 -36 -18 -66h49v-52h-100q-39 -27 -87.5 -48t-90.5 -44h278v-52h-344
q-10 -13 -16 -28.5t-6 -34.5q0 -62 39.5 -96t112.5 -34q47 0 87 16t82 51l31 -46q-48 -41 -96 -58.5t-107 -17.5q-98 0 -155 49.5t-57 135.5q0 35 14 63h-45z" />
    <glyph glyph-name="uni20B9" unicode="&#x20b9;" horiz-adv-x="590" 
d="M362 0l-268 282v51h103q64 0 102 29.5t43 82.5h-248v52h248q-6 52 -41.5 81.5t-96.5 29.5h-110v52h410v-52h-173q65 -36 72 -111h101v-52h-101q-6 -76 -63 -120t-143 -44h-28l267 -281h-74z" />
    <glyph glyph-name="uni20BA" unicode="&#x20ba;" horiz-adv-x="590" 
d="M145 0v225l-95 -40v53l95 40v90l-95 -40v53l95 40v239h60v-214l183 76v-53l-183 -76v-90l183 76v-53l-183 -76v-197h91q97 0 144 58t47 165h58q0 -132 -61.5 -204t-187.5 -72h-151z" />
    <glyph glyph-name="uni20BD" unicode="&#x20bd;" horiz-adv-x="590" 
d="M121 0v131h-82v52h82v89h-82v52h82v336h218q96 0 154.5 -50t58.5 -134v-20q0 -84 -58.5 -134t-154.5 -50h-158v-89h197v-52h-197v-131h-60zM339 608h-158v-284h158q73 0 112.5 35t39.5 99v16q0 64 -39.5 99t-112.5 35z" />
    <glyph glyph-name="uni2116" unicode="&#x2116;" horiz-adv-x="1053" 
d="M844 349q-64 0 -100 40t-36 107v23q0 67 36 107t100 40t100 -40t36 -107v-23q0 -67 -36 -107t-100 -40zM95 0v660h100l339 -600h11v600h60v-660h-100l-339 600h-11v-600h-60zM844 399q38 0 59 25.5t21 72.5v21q0 47 -21 72.5t-59 25.5t-59 -25.5t-21 -72.5v-21
q0 -47 21 -72.5t59 -25.5zM700 242v48h272v-48h-272z" />
    <glyph glyph-name="trademark" unicode="&#x2122;" horiz-adv-x="807" 
d="M154 339v275h-101v46h256v-46h-101v-275h-54zM362 339v321h84l81 -211h7l81 211h81v-321h-52v257h-7l-82 -211h-53l-81 211h-8v-257h-51z" />
    <glyph glyph-name="minus" unicode="&#x2212;" horiz-adv-x="590" 
d="M82 305v50h426v-50h-426z" />
    <glyph glyph-name="uniFB00" unicode="&#xfb00;" horiz-adv-x="631" 
d="M120 0v448h-88v48h88v36q0 180 156 180q22 0 41 -4v-51q-15 4 -36 4q-56 0 -79.5 -30t-23.5 -101v-34h240v36q0 180 156 180q22 0 41 -4v-51q-17 4 -36 4q-56 0 -79.5 -30t-23.5 -101v-34h140v-48h-140v-448h-58v448h-240v-448h-58z" />
    <glyph glyph-name="uniFB01" unicode="&#xfb01;" horiz-adv-x="561" 
d="M120 0v448h-88v48h88v36q0 180 156 180q22 0 41 -4v-51q-15 4 -36 4q-56 0 -79.5 -30t-23.5 -101v-34h140v-48h-140v-448h-58zM447 591q-20 0 -32 12.5t-12 30.5t12 30t32 12t32 -12t12 -30t-12 -30.5t-32 -12.5zM418 0v496h58v-496h-58z" />
    <glyph glyph-name="uniFB02" unicode="&#xfb02;" horiz-adv-x="585" 
d="M120 0v448h-88v48h88v36q0 180 156 180q22 0 41 -4v-51q-15 4 -36 4q-56 0 -79.5 -30t-23.5 -101v-34h140v-48h-140v-448h-58zM519 -10q-56 0 -78.5 28.5t-22.5 75.5v606h58v-600q0 -33 12.5 -46.5t41.5 -13.5q7 0 13.5 0.5t13.5 1.5v-49q-21 -3 -38 -3z" />
    <glyph glyph-name="uniFB03" unicode="&#xfb03;" horiz-adv-x="859" 
d="M120 0v448h-88v48h88v36q0 180 156 180q22 0 41 -4v-51q-15 4 -36 4q-56 0 -79.5 -30t-23.5 -101v-34h240v36q0 180 156 180q22 0 41 -4v-51q-17 4 -36 4q-56 0 -79.5 -30t-23.5 -101v-34h140v-48h-140v-448h-58v448h-240v-448h-58zM745 591q-20 0 -32 12.5t-12 30.5
t12 30t32 12t32 -12t12 -30t-12 -30.5t-32 -12.5zM716 0v496h58v-496h-58z" />
    <glyph glyph-name="uniFB04" unicode="&#xfb04;" horiz-adv-x="883" 
d="M120 0v448h-88v48h88v36q0 180 156 180q22 0 41 -4v-51q-15 4 -36 4q-56 0 -79.5 -30t-23.5 -101v-34h240v36q0 180 156 180q22 0 41 -4v-51q-17 4 -36 4q-56 0 -79.5 -30t-23.5 -101v-34h140v-48h-140v-448h-58v448h-240v-448h-58zM817 -10q-56 0 -78.5 28.5t-22.5 75.5
v606h58v-600q0 -33 12.5 -46.5t41.5 -13.5q7 0 13.5 0.5t13.5 1.5v-49q-21 -3 -38 -3z" />
    <glyph glyph-name="uniFEFF" unicode="&#xfeff;" 
 />
    <glyph glyph-name="uniFFFD" unicode="&#xfffd;" horiz-adv-x="1000" 
d="M500 828l475 -475l-475 -474l-475 474zM459 226h48l6 78q68 17 99 52.5t31 87.5q0 64 -42 99t-112 35q-94 0 -139 -62l38 -35q18 19 42.5 30t54.5 11q42 0 69 -21t27 -61q0 -72 -95 -97l-32 -7zM483 87q18 0 31 12t13 31t-13 31t-31 12t-31 -12t-13 -31t13 -31t31 -12z
" />
    <glyph glyph-name="hyphen.case" horiz-adv-x="381" 
d="M39 307v57h303v-57h-303z" />
    <glyph glyph-name="uni2010.case" horiz-adv-x="381" 
d="M39 307v57h303v-57h-303z" />
    <glyph glyph-name="uni2011.case" horiz-adv-x="381" 
d="M39 307v57h303v-57h-303z" />
    <glyph glyph-name="endash.case" horiz-adv-x="500" 
d="M0 312v52h500v-52h-500z" />
    <glyph glyph-name="emdash.case" horiz-adv-x="1000" 
d="M0 312v52h1000v-52h-1000z" />
    <glyph glyph-name="parenleft.case" horiz-adv-x="333" 
d="M215 -140q-56 108 -81.5 215t-25.5 212v62q0 105 25.5 212t81.5 215h61q-56 -110 -80 -218t-24 -213v-54q0 -105 24 -213t80 -218h-61z" />
    <glyph glyph-name="parenright.case" horiz-adv-x="333" 
d="M57 -140q55 110 79.5 218t24.5 213v54q0 105 -24.5 213t-79.5 218h61q56 -108 81.5 -215t25.5 -212v-62q0 -105 -25.5 -212t-81.5 -215h-61z" />
    <glyph glyph-name="slash.case" horiz-adv-x="401" 
d="M35 0l283 700h60l-283 -700h-60z" />
    <glyph glyph-name="backslash.case" horiz-adv-x="401" 
d="M366 0h-60l-283 700h60z" />
    <glyph glyph-name="bracketleft.case" horiz-adv-x="365" 
d="M137 -140v916h208v-51h-147v-814h147v-51h-208z" />
    <glyph glyph-name="bracketright.case" horiz-adv-x="365" 
d="M20 -140v51h147v814h-147v51h208v-916h-208z" />
    <glyph glyph-name="braceleft.case" horiz-adv-x="375" 
d="M295 -140q-76 0 -110 35t-34 112v170q0 59 -19 86t-62 27h-12v56h12q43 0 62 27t19 86v170q0 77 34 112t110 35h60v-51h-57q-47 0 -68 -23.5t-21 -72.5v-170q0 -50 -16.5 -84.5t-53.5 -51.5v-10q37 -17 53.5 -51.5t16.5 -84.5v-170q0 -49 21 -72.5t68 -23.5h57v-51h-60z
" />
    <glyph glyph-name="braceright.case" horiz-adv-x="375" 
d="M20 -140v51h57q47 0 68 23.5t21 72.5v170q0 50 16.5 84.5t53.5 51.5v10q-37 17 -53.5 51.5t-16.5 84.5v170q0 49 -21 72.5t-68 23.5h-57v51h60q76 0 110 -35t34 -112v-170q0 -59 19 -86t62 -27h12v-56h-12q-43 0 -62 -27t-19 -86v-170q0 -77 -34 -112t-110 -35h-60z" />
    <glyph glyph-name="bullet.case" horiz-adv-x="462" 
d="M231 263q-49 0 -85 32.5t-36 84.5t36 84.5t85 32.5t85 -32.5t36 -84.5t-36 -84.5t-85 -32.5z" />
    <glyph glyph-name="guilsinglleft.case" horiz-adv-x="298" 
d="M220 107l-175 173v60l175 173l33 -33l-150 -164v-12l150 -164z" />
    <glyph glyph-name="guilsinglright.case" horiz-adv-x="298" 
d="M78 107l-33 33l150 164v12l-150 164l33 33l175 -173v-60z" />
    <glyph glyph-name="guillemotleft.case" horiz-adv-x="508" 
d="M220 107l-175 173v60l175 173l33 -33l-150 -164v-12l150 -164zM430 107l-175 173v60l175 173l33 -33l-150 -164v-12l150 -164z" />
    <glyph glyph-name="guillemotright.case" horiz-adv-x="508" 
d="M78 107l-33 33l150 164v12l-150 164l33 33l175 -173v-60zM288 107l-33 33l150 164v12l-150 164l33 33l175 -173v-60z" />
    <glyph glyph-name="at.case" horiz-adv-x="1048" 
d="M502 66q-82 0 -131.5 59t-49.5 157v34q0 98 49 157.5t131 59.5q49 0 88 -23.5t64 -66.5v80h52v-305q0 -47 23.5 -74t64.5 -27q55 0 84.5 50.5t29.5 146.5v30q0 110 -47.5 192.5t-133.5 128.5t-200 46q-117 0 -203 -48t-132.5 -136.5t-46.5 -208.5v-30q0 -118 45.5 -205.5
t128.5 -135.5t196 -48q132 0 214 58l28 -42q-92 -67 -242 -67q-131 0 -226.5 53t-147.5 151.5t-52 233.5v34q0 137 53 236t151 152.5t234 53.5q132 0 230.5 -51.5t153 -145t54.5 -219.5v-35q0 -113 -47 -179t-127 -66q-51 0 -87 25.5t-46 69.5q-25 -46 -65 -70.5t-90 -24.5z
M378 285q0 -79 35.5 -123.5t99.5 -44.5q44 0 79 22.5t57 65.5v188q-22 43 -57 66t-79 23q-63 0 -99 -44.5t-36 -123.5v-29z" />
    <glyph glyph-name="periodcentered.case" horiz-adv-x="212" 
d="M106 303q-20 0 -34 13.5t-14 33.5t14 33.5t34 13.5t34 -13.5t14 -33.5t-14 -33.5t-34 -13.5z" />
    <glyph glyph-name="questiondown.case" horiz-adv-x="477" 
d="M275 576q-20 0 -34 13.5t-14 33.5t14 33.5t34 13.5t34 -13.5t14 -33.5t-14 -33.5t-34 -13.5zM264 -15q-94 0 -150 48t-56 137q0 76 45.5 125.5t141.5 75.5l7 123h46l5 -157l-42 -12q-144 -42 -144 -155q0 -65 42 -99t106 -34q88 0 145 63l37 -33q-31 -40 -76.5 -61
t-106.5 -21z" />
    <glyph glyph-name="exclamdown.case" horiz-adv-x="312" 
d="M156 670q20 0 34 -13.5t14 -33.5t-14 -33.5t-34 -13.5t-34 13.5t-14 33.5t14 33.5t34 13.5zM133 494h46l11 -494h-68z" />
    <glyph glyph-name="zero.pnum" horiz-adv-x="650" 
d="M325 -15q-113 0 -171.5 77.5t-58.5 219.5v63q0 142 58.5 219.5t171.5 77.5t171.5 -77.5t58.5 -219.5v-63q0 -142 -58.5 -219.5t-171.5 -77.5zM325 39q169 0 169 247v55q0 247 -169 247t-169 -247v-55q0 -247 169 -247z" />
    <glyph glyph-name="one.pnum" horiz-adv-x="472" 
d="M64 0v53h144v521h-139v53h200v-574h149v-53h-354z" />
    <glyph glyph-name="two.pnum" horiz-adv-x="547" 
d="M60 0v52l251 257q45 46 63.5 83.5t18.5 77.5q0 62 -37 90t-90 28q-49 0 -83.5 -22t-63.5 -59l-42 33q29 40 76 71t117 31q82 0 133.5 -44t51.5 -123q0 -52 -25 -99.5t-80 -103.5l-214 -219h339v-53h-415z" />
    <glyph glyph-name="three.pnum" horiz-adv-x="565" 
d="M267 -15q-135 0 -211 85l37 38q34 -34 76.5 -51.5t98.5 -17.5q68 0 113 32t45 98q0 67 -44.5 100.5t-121.5 33.5h-75v47l204 224h-290v53h362v-52l-205 -223h27q100 0 152.5 -51t52.5 -132t-57.5 -132.5t-163.5 -51.5z" />
    <glyph glyph-name="four.pnum" horiz-adv-x="608" 
d="M388 0v160h-327v48l304 419h82v-415h102v-52h-102v-160h-59zM379 564l-257 -352h266v352h-9z" />
    <glyph glyph-name="five.pnum" horiz-adv-x="571" 
d="M277 -15q-69 0 -120 22t-89 65l37 38q63 -71 171 -71q42 0 77.5 15t57 45t21.5 76q0 71 -42.5 104t-115.5 33h-154v315h352v-53h-292v-209h103q103 0 157 -51.5t54 -137.5q0 -56 -27 -99t-76 -67.5t-114 -24.5z" />
    <glyph glyph-name="six.pnum" horiz-adv-x="586" 
d="M297 -15q-101 0 -160.5 56t-59.5 152q0 41 11.5 83.5t39 93t74.5 114.5l105 143h67l-123 -168q-57 -78 -82 -130q27 31 64 48t82 17q55 0 100 -24.5t71.5 -70t26.5 -106.5t-26.5 -108t-75 -73.5t-114.5 -26.5zM138 193q0 -70 41.5 -113t117.5 -43q74 0 114.5 44.5
t40.5 111.5t-41 108t-115 41q-38 0 -77 -15t-71 -54q-5 -20 -7.5 -39.5t-2.5 -40.5z" />
    <glyph glyph-name="seven.pnum" horiz-adv-x="526" 
d="M134 0l267 571h-347v56h412v-51l-265 -576h-67z" />
    <glyph glyph-name="eight.pnum" horiz-adv-x="619" 
d="M309 -15q-63 0 -114 21t-80.5 61.5t-29.5 97.5q0 121 124 163q-48 16 -76 52.5t-28 89.5q0 54 26.5 92.5t72.5 59t105 20.5t105 -20.5t72.5 -59t26.5 -92.5q0 -53 -28 -89.5t-76 -52.5q124 -42 124 -163q0 -57 -29.5 -97.5t-80.5 -61.5t-114 -21zM309 350q62 0 104.5 29
t42.5 91q0 59 -42.5 89.5t-104.5 30.5q-63 0 -105 -30.5t-42 -89.5q0 -62 42 -91t105 -29zM309 37q71 0 117 33.5t46 97.5t-46 97.5t-117 33.5t-117 -33.5t-46 -97.5t46 -97.5t117 -33.5z" />
    <glyph glyph-name="nine.pnum" horiz-adv-x="586" 
d="M211 0l123 167q57 77 82 130q-27 -31 -63.5 -47.5t-81.5 -16.5q-55 0 -100 24.5t-71.5 69.5t-26.5 107t26.5 108.5t74.5 73t114 26.5q101 0 161 -56t60 -152q0 -62 -27.5 -129.5t-97.5 -162.5l-105 -142h-68zM134 434q0 -68 41 -108.5t114 -40.5q39 0 78 15t71 55
q5 19 7.5 38.5t2.5 40.5q0 70 -42 113t-118 43q-74 0 -114 -44.5t-40 -111.5z" />
    <glyph glyph-name="zero.dnom" horiz-adv-x="316" 
d="M158 -9q-64 0 -96 40.5t-32 114.5v28q0 74 32 115t96 41t96 -41t32 -115v-28q0 -74 -32 -114.5t-96 -40.5zM158 35q75 0 75 113v24q0 114 -75 114t-75 -114v-24q0 -113 75 -113z" />
    <glyph glyph-name="one.dnom" horiz-adv-x="209" 
d="M86 0v277h-64v44h118v-321h-54z" />
    <glyph glyph-name="two.dnom" horiz-adv-x="281" 
d="M25 0v42l121 123q20 19 28 35t8 33q0 26 -15.5 39.5t-38.5 13.5q-22 0 -38 -10.5t-30 -29.5l-34 29q17 23 42 39t64 16q46 0 75 -24t29 -68q0 -29 -14.5 -53.5t-43.5 -53.5l-86 -87h152v-44h-219z" />
    <glyph glyph-name="three.dnom" horiz-adv-x="304" 
d="M137 -9q-68 0 -112 41l28 35q32 -32 84 -32q32 0 50 15t18 41q0 55 -72 55h-41v36l90 95h-134v44h196v-42l-89 -92q47 -1 75.5 -26.5t28.5 -69.5q0 -45 -33.5 -72.5t-88.5 -27.5z" />
    <glyph glyph-name="four.dnom" horiz-adv-x="291" 
d="M167 0v75h-157v41l139 205h70v-202h47v-44h-47v-75h-52zM161 271l-104 -152h110v152h-6z" />
    <glyph glyph-name="five.dnom" horiz-adv-x="302" 
d="M138 -9q-70 0 -110 40l27 35q34 -31 82 -31q31 0 49 15t18 42q0 58 -70 58h-78v171h189v-44h-142v-83h46q51 0 80 -26.5t29 -72.5q0 -47 -32.5 -75.5t-87.5 -28.5z" />
    <glyph glyph-name="six.dnom" horiz-adv-x="308" 
d="M158 -9q-54 0 -86 28.5t-32 81.5q0 30 13 63t45 79l54 78h60l-68 -98q-19 -27 -30 -48q12 13 29 21t38 8q39 0 66.5 -28t27.5 -75q0 -49 -31.5 -79.5t-85.5 -30.5zM94 101q0 -33 17.5 -49.5t46.5 -16.5q31 0 47 19t16 47q0 30 -16.5 47t-46.5 17q-15 0 -30.5 -5
t-27.5 -18q-6 -20 -6 -41z" />
    <glyph glyph-name="seven.dnom" horiz-adv-x="273" 
d="M57 0l130 274h-163v47h219v-43l-126 -278h-60z" />
    <glyph glyph-name="eight.dnom" horiz-adv-x="322" 
d="M161 -9q-55 0 -87 25.5t-32 69.5q0 34 18 53.5t45 29.5q-21 6 -37 24.5t-16 47.5q0 41 30 65t79 24t79 -24t30 -65q0 -29 -16 -47.5t-37 -24.5q27 -10 45 -29.5t18 -53.5q0 -44 -32 -69.5t-87 -25.5zM161 187q26 0 42.5 12.5t16.5 37.5t-16.5 37.5t-42.5 12.5
t-42.5 -12.5t-16.5 -37.5t16.5 -37.5t42.5 -12.5zM161 34q30 0 47.5 14t17.5 41t-17.5 41t-47.5 14t-47.5 -14t-17.5 -41t17.5 -41t47.5 -14z" />
    <glyph glyph-name="nine.dnom" horiz-adv-x="308" 
d="M96 0l68 97q20 28 31 49q-13 -13 -29.5 -21t-38.5 -8q-40 0 -67 27.5t-27 74.5q0 49 31.5 80t86.5 31q53 0 85 -28.5t32 -82.5q0 -29 -12.5 -63t-45.5 -80l-54 -76h-60zM87 219q0 -30 16.5 -47t47.5 -17q15 0 30 5t27 18q6 20 6 41q0 33 -17 50t-46 17q-31 0 -47.5 -19.5
t-16.5 -47.5z" />
    <glyph glyph-name="zero.numr" horiz-adv-x="316" 
d="M158 330q-64 0 -96 40.5t-32 114.5v28q0 74 32 115t96 41t96 -41t32 -115v-28q0 -74 -32 -114.5t-96 -40.5zM158 374q75 0 75 113v24q0 114 -75 114t-75 -114v-24q0 -113 75 -113z" />
    <glyph glyph-name="one.numr" horiz-adv-x="209" 
d="M86 339v277h-64v44h118v-321h-54z" />
    <glyph glyph-name="two.numr" horiz-adv-x="281" 
d="M25 339v42l121 123q20 19 28 35t8 33q0 26 -15.5 39.5t-38.5 13.5q-22 0 -38 -10.5t-30 -29.5l-34 29q17 23 42 39t64 16q46 0 75 -24t29 -68q0 -29 -14.5 -53.5t-43.5 -53.5l-86 -87h152v-44h-219z" />
    <glyph glyph-name="three.numr" horiz-adv-x="304" 
d="M137 330q-68 0 -112 41l28 35q32 -32 84 -32q32 0 50 15t18 41q0 55 -72 55h-41v36l90 95h-134v44h196v-42l-89 -92q47 -1 75.5 -26.5t28.5 -69.5q0 -45 -33.5 -72.5t-88.5 -27.5z" />
    <glyph glyph-name="four.numr" horiz-adv-x="291" 
d="M167 339v75h-157v41l139 205h70v-202h47v-44h-47v-75h-52zM161 610l-104 -152h110v152h-6z" />
    <glyph glyph-name="five.numr" horiz-adv-x="302" 
d="M138 330q-70 0 -110 40l27 35q34 -31 82 -31q31 0 49 15t18 42q0 58 -70 58h-78v171h189v-44h-142v-83h46q51 0 80 -26.5t29 -72.5q0 -47 -32.5 -75.5t-87.5 -28.5z" />
    <glyph glyph-name="six.numr" horiz-adv-x="308" 
d="M158 330q-54 0 -86 28.5t-32 81.5q0 30 13 63t45 79l54 78h60l-68 -98q-19 -27 -30 -48q12 13 29 21t38 8q39 0 66.5 -28t27.5 -75q0 -49 -31.5 -79.5t-85.5 -30.5zM94 440q0 -33 17.5 -49.5t46.5 -16.5q31 0 47 19t16 47q0 30 -16.5 47t-46.5 17q-15 0 -30.5 -5
t-27.5 -18q-6 -20 -6 -41z" />
    <glyph glyph-name="seven.numr" horiz-adv-x="273" 
d="M57 339l130 274h-163v47h219v-43l-126 -278h-60z" />
    <glyph glyph-name="eight.numr" horiz-adv-x="322" 
d="M161 330q-55 0 -87 25.5t-32 69.5q0 34 18 53.5t45 29.5q-21 6 -37 24.5t-16 47.5q0 41 30 65t79 24t79 -24t30 -65q0 -29 -16 -47.5t-37 -24.5q27 -10 45 -29.5t18 -53.5q0 -44 -32 -69.5t-87 -25.5zM161 526q26 0 42.5 12.5t16.5 37.5t-16.5 37.5t-42.5 12.5
t-42.5 -12.5t-16.5 -37.5t16.5 -37.5t42.5 -12.5zM161 373q30 0 47.5 14t17.5 41t-17.5 41t-47.5 14t-47.5 -14t-17.5 -41t17.5 -41t47.5 -14z" />
    <glyph glyph-name="nine.numr" horiz-adv-x="308" 
d="M96 339l68 97q20 28 31 49q-13 -13 -29.5 -21t-38.5 -8q-40 0 -67 27.5t-27 74.5q0 49 31.5 80t86.5 31q53 0 85 -28.5t32 -82.5q0 -29 -12.5 -63t-45.5 -80l-54 -76h-60zM87 558q0 -30 16.5 -47t47.5 -17q15 0 30 5t27 18q6 20 6 41q0 33 -17 50t-46 17
q-31 0 -47.5 -19.5t-16.5 -47.5z" />
    <glyph glyph-name="zero.percent" horiz-adv-x="316" 
d="M158 -9q-64 0 -96 40.5t-32 114.5v28q0 74 32 115t96 41t96 -41t32 -115v-28q0 -74 -32 -114.5t-96 -40.5zM158 35q75 0 75 113v24q0 114 -75 114t-75 -114v-24q0 -113 75 -113z" />
    <glyph glyph-name="dotlessij" horiz-adv-x="456" 
d="M85 0v496h58v-496h-58zM270 -202q-17 0 -38 3v49q7 -1 13.5 -1.5t13.5 -0.5q29 0 41.5 13.5t12.5 46.5v588h58v-588q0 -47 -22.5 -78.5t-78.5 -31.5z" />
    <glyph glyph-name="periodcentered.loclCAT.cap" 
d="M-132 303q-20 0 -34 13.5t-14 33.5t14 33.5t34 13.5t34 -13.5t14 -33.5t-14 -33.5t-34 -13.5z" />
    <glyph glyph-name="periodcentered.loclCAT" 
d="M-12 303q-20 0 -34 13.5t-14 33.5t14 33.5t34 13.5t34 -13.5t14 -33.5t-14 -33.5t-34 -13.5z" />
    <glyph glyph-name="uni0327.cap" 
d="M-17 -202q-20 0 -47 4v47q23 -5 48 -5q52 0 52 36q0 35 -56 35h-23l26 109h43l-18 -69q82 -9 82 -76q0 -40 -27.5 -60.5t-79.5 -20.5z" />
    <glyph glyph-name="uni0326.cap" 
d="M-35 -247l-23 24q44 40 57 76q-17 1 -28.5 13t-11.5 29q0 19 12.5 31t30.5 12q20 0 32 -13t12 -35q0 -31 -23 -69t-58 -68z" />
    <glyph glyph-name="commabelow" horiz-adv-x="500" 
d="M215 -247l-23 24q44 40 57 76q-17 1 -28.5 13t-11.5 29q0 19 12.5 31t30.5 12q20 0 32 -13t12 -35q0 -31 -23 -69t-58 -68z" />
    <glyph glyph-name="uni0328.cap" 
d="M-45 -202q-43 0 -75.5 25t-32.5 75q0 51 39 83t97 44l17 -25q-41 -13 -69.5 -37.5t-28.5 -59.5q0 -24 12 -36.5t27.5 -16.5t26.5 -4q22 0 37 3v-47q-15 -2 -28 -3t-22 -1z" />
    <glyph glyph-name="uni0328.round" 
d="M-47 -202q-42 0 -73.5 22.5t-31.5 71.5q0 50 38 83t95 38l17 -15q-40 -12 -68.5 -38t-28.5 -60q0 -24 12 -35.5t27.5 -15.5t25.5 -4q22 0 36 3v-46q-14 -2 -27 -3t-22 -1z" />
    <glyph glyph-name="uni0328.round.cap" 
d="M-44 -202q-42 0 -73.5 22.5t-31.5 71.5q0 50 38 83t94 38l17 -13q-40 -14 -68 -40t-28 -60q0 -24 12 -35.5t27 -15.5t26 -4q23 0 36 3v-46q-14 -2 -27 -3t-22 -1z" />
    <glyph glyph-name="acutecomb.cap" 
d="M-8 720l-29 33l142 128l34 -39z" />
    <glyph glyph-name="acutecomb.asc" 
d="M-8 720l-28 33l138 125l34 -38z" />
    <glyph glyph-name="acutecomb.narrow" 
d="M-7 575l-34 27l115 148l40 -32z" />
    <glyph glyph-name="uni030B.cap" 
d="M-73 720l-28 33l142 128l33 -39zM70 720l-28 33l141 128l34 -39z" />
    <glyph glyph-name="IJacute" horiz-adv-x="627" 
d="M323 -15q-55 0 -103 17.5t-77 46.5l33 44q24 -23 63.5 -38t82.5 -15q42 0 78 15.5t58.5 50t22.5 93.5v461h61v-462q0 -76 -30.5 -123t-80 -68.5t-108.5 -21.5zM95 170v490h61v-490h-61zM117 720l-29 33l142 128l34 -39zM503 720l-29 33l142 128l34 -39z" />
    <glyph glyph-name="ijacute" horiz-adv-x="456" 
d="M85 0v496h58v-496h-58zM270 -202q-17 0 -38 3v49q7 -1 13.5 -1.5t13.5 -0.5q29 0 41.5 13.5t12.5 46.5v588h58v-588q0 -47 -22.5 -78.5t-78.5 -31.5zM335 575l-34 27l115 148l40 -32zM107 575l-34 27l115 148l40 -32z" />
    <glyph glyph-name="gravecomb.cap" 
d="M8 720l-147 122l34 39l142 -128z" />
    <glyph glyph-name="gravecomb.narrow" 
d="M7 575l-121 143l40 32l115 -148z" />
    <glyph glyph-name="uni0302.cap" 
d="M-125 720l-29 34l131 108h46l131 -108l-29 -34l-120 92h-10z" />
    <glyph glyph-name="uni0302.narrow" 
d="M-108 575l-31 29l116 134h46l116 -134l-31 -29l-103 112h-10z" />
    <glyph glyph-name="tildecomb.cap" 
d="M74 715q-32 0 -71 28l-34 24q-25 18 -43 18t-26 -14.5t-9 -49.5h-44q0 108 79 108q32 0 71 -28l34 -24q25 -18 43 -18t26 14.5t9 49.5h44q0 -108 -79 -108z" />
    <glyph glyph-name="tildecomb.narrow" 
d="M-66 692q16 0 30 -6t34 -22l29 -23q23 -18 38 -18t22 14.5t8 48.5h42q0 -106 -71 -106q-16 0 -30 6t-34 22l-29 23q-23 18 -38 18t-22 -14.5t-8 -48.5h-42q0 106 71 106z" />
    <glyph glyph-name="uni030C.cap" 
d="M-125 872l120 -92h10l120 92l29 -34l-131 -108h-46l-131 108z" />
    <glyph glyph-name="uni0315.cap" 
d="M-22 511l27 189h58l-38 -189h-47z" />
    <glyph glyph-name="uni0315.short" 
d="M-11 553l21 147h58l-32 -147h-47z" />
    <glyph glyph-name="uni0304.cap" 
d="M-131 794h262v-45h-262v45z" />
    <glyph glyph-name="uni0304.narrow" 
d="M-115 652h230v-44h-230v44z" />
    <glyph glyph-name="uni0308.cap" 
d="M99 730q-20 0 -31.5 12.5t-11.5 29.5t11.5 29t31.5 12q19 0 31 -12t12 -29t-12 -29.5t-31 -12.5zM-99 730q-19 0 -31 12.5t-12 29.5t12 29t31 12q20 0 31.5 -12t11.5 -29t-11.5 -29.5t-31.5 -12.5z" />
    <glyph glyph-name="uni0308.narrow" 
d="M83 595q-19 0 -30.5 12t-11.5 29t11.5 28.5t30.5 11.5t30.5 -11.5t11.5 -28.5t-11.5 -29t-30.5 -12zM-83 595q-19 0 -30.5 12t-11.5 29t11.5 28.5t30.5 11.5t30.5 -11.5t11.5 -28.5t-11.5 -29t-30.5 -12z" />
    <glyph glyph-name="uni0306.cap" 
d="M0 720q-68 0 -104 36t-40 85h47q4 -30 27 -52t70 -22t70 22t27 52h47q-4 -49 -40 -85t-104 -36z" />
    <glyph glyph-name="uni0307.cap" 
d="M0 729q-20 0 -32 12.5t-12 30.5t12 30t32 12t32 -12t12 -30t-12 -30.5t-32 -12.5z" />
    <glyph glyph-name="dotbelowcomb.cap" 
d="M0 -147q-21 0 -32.5 13t-11.5 30t11.5 29.5t32.5 12.5t32.5 -12.5t11.5 -29.5t-11.5 -30t-32.5 -13z" />
    <glyph glyph-name="uni030A.cap" 
d="M0 720q-44 0 -74 26t-30 69t30 69t74 26t74 -26t30 -69t-30 -69t-74 -26zM0 756q28 0 44.5 16t16.5 43t-16.5 43t-44.5 16t-44.5 -16t-16.5 -43t16.5 -43t44.5 -16z" />
    <glyph glyph-name="uni0414.loclBGR" horiz-adv-x="671" 
d="M10 53h63l213 607h99l213 -607h63v-206h-57v153h-537v-153h-57v206zM329 607l-193 -554h398l-193 554h-12z" />
    <glyph glyph-name="uni041B.loclBGR" horiz-adv-x="581" 
d="M14 0l227 660h99l227 -660h-65l-207 607h-12l-207 -607h-62z" />
    <glyph glyph-name="uni0424.loclBGR" horiz-adv-x="775" 
d="M357 702h61v-65q92 -3 160 -38.5t105.5 -102t37.5 -160.5v-12q0 -94 -37.5 -160.5t-105.5 -102t-160 -38.5v-71h-61v71q-92 3 -160 38.5t-105.5 102t-37.5 160.5v12q0 94 37.5 160.5t105.5 102t160 38.5v65zM112 325q0 -69 25 -125t79 -90t141 -36v512q-87 -2 -141 -36
t-79 -90t-25 -125v-10zM663 335q0 69 -25 125t-79 90t-141 36v-512q87 2 141 36t79 90t25 125v10z" />
    <glyph glyph-name="uni0431.loclMKDSRB" horiz-adv-x="534" 
d="M267 -12q-100 0 -156.5 63t-56.5 167v10q0 95 46.5 152t132.5 80l-16 6q-62 25 -89 51.5t-27 66.5q0 48 39 76t117 33l185 10l2 -55l-185 -9q-56 -3 -79.5 -16t-23.5 -39q0 -24 19 -39t62 -32l60 -23q102 -39 142.5 -100.5t40.5 -149.5v-19q0 -108 -57.5 -170.5
t-155.5 -62.5zM112 220q0 -82 41 -131t114 -49q72 0 113.5 49t41.5 135v14q0 77 -33.5 125t-109.5 78q-80 -19 -123.5 -69t-43.5 -136v-16z" />
    <glyph glyph-name="uni0432.loclBGR" horiz-adv-x="559" 
d="M300 -12q-104 0 -159.5 61t-55.5 177v240q0 116 54 177t151 61q87 0 137.5 -46.5t50.5 -124.5v-23q0 -55 -26 -93t-72 -55q54 -11 87.5 -54.5t33.5 -108.5v-28q0 -87 -53.5 -135t-147.5 -48zM289 653q-71 0 -108.5 -47t-37.5 -140v-83h154q56 0 90 35.5t34 93.5v19
q0 55 -35 88.5t-97 33.5zM298 39q70 0 107.5 34.5t37.5 99.5v24q0 65 -36 100t-101 35h-163v-106q0 -95 39.5 -141t115.5 -46z" />
    <glyph glyph-name="uni0433.loclBGR" horiz-adv-x="441" 
d="M232 -12q-85 0 -135.5 39t-50.5 104q0 50 32.5 85t93.5 49l68 16q99 24 99 91q0 40 -29.5 62.5t-80.5 22.5q-38 0 -70.5 -12.5t-65.5 -41.5l-31 39q39 34 79.5 50t88.5 16q76 0 121 -37.5t45 -101.5q0 -53 -32.5 -86t-102.5 -49l-68 -16q-88 -21 -88 -89q0 -42 34 -65.5
t93 -23.5q84 0 144 57l31 -39q-70 -70 -175 -70z" />
    <glyph glyph-name="uni0434.loclBGR" horiz-adv-x="557" 
d="M250 -6q-60 0 -104 29t-68 82t-24 125v40q0 71 24.5 124t68.5 82.5t103 29.5q55 0 98.5 -28t69.5 -79v97h54v-486q0 -103 -57 -157.5t-163 -54.5t-174 65l31 40q60 -53 144 -53q79 0 120 40.5t41 119.5v83q-27 -47 -69 -73t-95 -26zM112 233q0 -87 40 -137t111 -50
q48 0 88 27.5t63 75.5v202q-23 48 -63 75.5t-88 27.5q-71 0 -111 -50t-40 -137v-34z" />
    <glyph glyph-name="uni0436.loclBGR" horiz-adv-x="713" 
d="M328 0v229h-87l-153 -229h-68l175 258l-165 238h65l148 -216h85v420h57v-420h86l148 216h64l-165 -238l175 -258h-69l-153 229h-86v-229h-57z" />
    <glyph glyph-name="uni0437.loclBGR" horiz-adv-x="487" 
d="M230 506q89 0 139.5 -46t50.5 -123v-19q0 -50 -31.5 -90.5t-79.5 -56.5q59 -15 94 -60.5t35 -109.5v-19q0 -82 -57 -133t-152 -51q-125 0 -204 75l37 39q62 -62 167 -62q68 0 108 37t40 97v15q0 142 -168 142h-63v52h56q71 0 114.5 34.5t43.5 92.5v15q0 55 -34 87t-97 32
q-42 0 -78.5 -16t-65.5 -53l-39 34q38 44 82 65.5t102 21.5z" />
    <glyph glyph-name="uni0438.loclBGR" horiz-adv-x="551" 
d="M243 -10q-76 0 -120 48t-44 148v310h58v-305q0 -77 31.5 -113t88.5 -36q58 0 95 33t56 74v347h58v-496h-54v98q-23 -45 -64.5 -76.5t-104.5 -31.5z" />
    <glyph glyph-name="uni043A.loclBGR" horiz-adv-x="491" 
d="M85 0v700h58v-413h89l161 209h68l-181 -232l191 -264h-71l-169 236h-88v-236h-58z" />
    <glyph glyph-name="uni043B.loclBGR" horiz-adv-x="473" 
d="M283 496l176 -496h-63l-156 445h-10l-156 -445h-60l175 496h94z" />
    <glyph glyph-name="uni043F.loclBGR" horiz-adv-x="552" 
d="M85 0v496h54v-98q23 44 64 76t105 32q75 0 120 -48t45 -147v-311h-58v304q0 78 -32 114t-89 36t-94 -32.5t-57 -72.5v-349h-58z" />
    <glyph glyph-name="uni0442.loclBGR" horiz-adv-x="866" 
d="M85 0v496h54v-96q23 44 63 75t102 31q57 0 96 -27.5t55 -85.5q22 46 64 79.5t109 33.5q74 0 116.5 -48t42.5 -148v-310h-58v305q0 77 -29.5 113t-85.5 36q-57 0 -93.5 -32t-55.5 -73v-349h-58v305q0 77 -31 113t-87 36t-91.5 -32t-54.5 -72v-350h-58z" />
    <glyph glyph-name="uni0444.loclBGR" horiz-adv-x="666" 
d="M362 700v-193q118 -5 184 -69t66 -172v-36q0 -108 -66 -172t-184 -69v-179h-58v179q-118 5 -184 69t-66 172v36q0 108 66 172t184 69v193h58zM112 233q0 -89 50 -138.5t142 -54.5v416q-92 -5 -142 -54.5t-50 -138.5v-30zM554 263q0 89 -50 138.5t-142 54.5v-416
q92 5 142 54.5t50 138.5v30z" />
    <glyph glyph-name="uni0446.loclBGR" horiz-adv-x="563" 
d="M243 -10q-76 0 -120 48t-44 148v310h58v-305q0 -77 31.5 -113t88.5 -36q58 0 95 33t56 74v347h58v-446h77v-193h-54v143h-77v98q-23 -45 -64.5 -76.5t-104.5 -31.5z" />
    <glyph glyph-name="uni0448.loclBGR" horiz-adv-x="858" 
d="M238 -10q-74 0 -116.5 48t-42.5 148v310h58v-305q0 -77 30.5 -113t85.5 -36t90.5 31.5t53.5 71.5v351h58v-305q0 -77 30.5 -113t85.5 -36t90.5 31.5t53.5 71.5v351h58v-496h-55v93q-23 -43 -62.5 -73t-99.5 -30q-56 0 -94.5 27.5t-53.5 83.5q-22 -45 -63.5 -78
t-106.5 -33z" />
    <glyph glyph-name="uni0449.loclBGR" horiz-adv-x="870" 
d="M238 -10q-74 0 -116.5 48t-42.5 148v310h58v-305q0 -77 30.5 -113t85.5 -36t90.5 31.5t53.5 71.5v351h58v-305q0 -77 30.5 -113t85.5 -36t90.5 31.5t53.5 71.5v351h58v-446h77v-193h-54v143h-78v93q-23 -43 -62.5 -73t-99.5 -30q-56 0 -94.5 27.5t-53.5 83.5
q-22 -45 -63.5 -78t-106.5 -33z" />
    <glyph glyph-name="uni044A.loclBGR" horiz-adv-x="582" 
d="M21 446v50h215v-208q52 77 145 77q49 0 87.5 -24t60.5 -66.5t22 -96.5q0 -56 -23.5 -99t-65 -67t-96.5 -24q-85 0 -136.5 53t-51.5 145v260h-157zM492 177q0 61 -35 98.5t-93 37.5q-84 0 -128 -75v-46q0 -70 35 -111.5t94 -41.5q57 0 92 38t35 100z" />
    <glyph glyph-name="uni044C.loclBGR" horiz-adv-x="491" 
d="M79 496h58v-209q53 78 149 78q50 0 89.5 -24.5t62 -68t22.5 -99.5q0 -55 -24 -96.5t-66.5 -65t-98.5 -23.5q-86 0 -139 53t-53 145v310zM137 192q0 -70 36 -111.5t97 -41.5q58 0 94.5 36.5t36.5 96.5q0 64 -36 102.5t-96 38.5q-43 0 -75.5 -18t-56.5 -58v-45z" />
    <glyph glyph-name="uni044E.loclBGR" horiz-adv-x="727" 
d="M461 -12q-67 0 -114 30.5t-72 85t-25 125.5v3h-107v-232h-58v700h58v-418h107q4 102 59 164t152 62q101 0 156.5 -66t55.5 -173v-40q0 -71 -25 -125.5t-72.5 -85t-114.5 -30.5zM461 39q71 0 112.5 51.5t41.5 141.5v34q0 90 -41.5 140.5t-112.5 50.5t-112 -50.5
t-41 -140.5v-34q0 -90 41 -141.5t112 -51.5z" />
    <glyph glyph-name="uni0306.cyrl" 
d="M0 575q-73 0 -105.5 35.5t-36.5 99.5h56q2 -43 21 -68.5t65 -25.5t65 25.5t21 68.5h56q-4 -64 -36.5 -99.5t-105.5 -35.5z" />
    <glyph glyph-name="uni0306.cyrl.cap" 
d="M0 720q-73 0 -108.5 36.5t-37.5 95.5h57q3 -40 23 -65t66 -25t66 25t23 65h57q-2 -59 -37.5 -95.5t-108.5 -36.5z" />
    <glyph glyph-name="uni045D.loclBGR" horiz-adv-x="551" 
d="M243 -10q-76 0 -120 48t-44 148v310h58v-305q0 -77 31.5 -113t88.5 -36q58 0 95 33t56 74v347h58v-496h-54v98q-23 -45 -64.5 -76.5t-104.5 -31.5zM280 575l-121 143l40 32l115 -148z" />
    <glyph glyph-name="uni0439.loclBGR" horiz-adv-x="551" 
d="M243 -10q-76 0 -120 48t-44 148v310h58v-305q0 -77 31.5 -113t88.5 -36q58 0 95 33t56 74v347h58v-496h-54v98q-23 -45 -64.5 -76.5t-104.5 -31.5zM273 575q-73 0 -105.5 35.5t-36.5 99.5h56q2 -43 21 -68.5t65 -25.5t65 25.5t21 68.5h56q-4 -64 -36.5 -99.5
t-105.5 -35.5z" />
    <glyph glyph-name="acutecomb.grek" 
d="M-24 594l55 167h63l-75 -167h-43z" />
    <glyph glyph-name="acutecomb.grek.cap" 
d="M-25 465l63 195h64l-80 -195h-47z" />
    </font>
</defs>
</svg>
