<?xml version="1.0" encoding="UTF-8" standalone="no"?>
<!DOCTYPE svg PUBLIC "-//W3C//DTD SVG 1.1//EN"
 "http://www.w3.org/Graphics/SVG/1.1/DTD/svg11.dtd">
<!-- Generated by graphviz version 2.40.1 (20161225.0304)
 -->
<!-- Title: dependencies Pages: 1 -->
<svg width="802pt" height="211pt"
 viewBox="0.00 0.00 802.00 211.00" xmlns="http://www.w3.org/2000/svg" xmlns:xlink="http://www.w3.org/1999/xlink">
<g id="graph0" class="graph" transform="scale(1 1) rotate(0) translate(4 207)">
<title>dependencies</title>
<polygon fill="#ffffff" stroke="transparent" points="-4,4 -4,-207 798,-207 798,4 -4,4"/>
<text text-anchor="start" x="376.0091" y="-42.4" font-family="sans-serif" font-weight="bold" font-size="14.00" fill="#000000">Legend</text>
<polygon fill="#ffffb3" stroke="transparent" points="163,-10 163,-30 183,-30 183,-10 163,-10"/>
<text text-anchor="start" x="186.629" y="-15.4" font-family="sans-serif" font-size="14.00" fill="#000000"> &#160;Declarations</text>
<polygon fill="#8dd3c7" stroke="transparent" points="276,-10 276,-30 296,-30 296,-10 276,-10"/>
<text text-anchor="start" x="299.7251" y="-15.4" font-family="sans-serif" font-size="14.00" fill="#000000"> &#160;Module</text>
<polygon fill="#80b1d3" stroke="transparent" points="362,-10 362,-30 382,-30 382,-10 362,-10"/>
<text text-anchor="start" x="385.7812" y="-15.4" font-family="sans-serif" font-size="14.00" fill="#000000"> &#160;Bootstrap</text>
<polygon fill="#fdb462" stroke="transparent" points="459,-10 459,-30 479,-30 479,-10 459,-10"/>
<text text-anchor="start" x="482.6732" y="-15.4" font-family="sans-serif" font-size="14.00" fill="#000000"> &#160;Providers</text>
<polygon fill="#fb8072" stroke="transparent" points="555,-10 555,-30 575,-30 575,-10 555,-10"/>
<text text-anchor="start" x="578.7258" y="-15.4" font-family="sans-serif" font-size="14.00" fill="#000000"> &#160;Exports</text>
<g id="clust1" class="cluster">
<title>cluster_UsersModule</title>
<polygon fill="none" stroke="#000000" stroke-dasharray="1,5" points="8,-70 8,-195 786,-195 786,-70 8,-70"/>
</g>
<g id="clust2" class="cluster">
<title>cluster_UsersModule_declarations</title>
<polygon fill="none" stroke="#000000" points="440,-78 440,-130 778,-130 778,-78 440,-78"/>
</g>
<g id="clust5" class="cluster">
<title>cluster_UsersModule_imports</title>
<polygon fill="none" stroke="#000000" points="164,-78 164,-130 432,-130 432,-78 164,-78"/>
</g>
<g id="clust8" class="cluster">
<title>cluster_UsersModule_providers</title>
<polygon fill="none" stroke="#000000" points="16,-78 16,-130 156,-130 156,-78 16,-78"/>
</g>
<!-- OnboardComponent -->
<g id="node1" class="node">
<title>OnboardComponent</title>
<polygon fill="#ffffb3" stroke="#000000" points="770.3146,-122 639.6854,-122 639.6854,-86 770.3146,-86 770.3146,-122"/>
<text text-anchor="middle" x="705" y="-99.8" font-family="Times,serif" font-size="14.00" fill="#000000">OnboardComponent</text>
</g>
<!-- UsersModule -->
<g id="node3" class="node">
<title>UsersModule</title>
<polygon fill="#8dd3c7" stroke="#000000" points="420.9218,-187 417.9218,-191 396.9218,-191 393.9218,-187 329.0782,-187 329.0782,-151 420.9218,-151 420.9218,-187"/>
<text text-anchor="middle" x="375" y="-164.8" font-family="Times,serif" font-size="14.00" fill="#000000">UsersModule</text>
</g>
<!-- OnboardComponent&#45;&gt;UsersModule -->
<g id="edge1" class="edge">
<title>OnboardComponent&#45;&gt;UsersModule</title>
<path fill="none" stroke="#000000" d="M705,-122.2843C705,-143.3211 705,-175 705,-175 705,-175 430.8851,-175 430.8851,-175"/>
<polygon fill="#000000" stroke="#000000" points="430.8851,-171.5001 420.8851,-175 430.8851,-178.5001 430.8851,-171.5001"/>
</g>
<!-- UserOnboardingComponent -->
<g id="node2" class="node">
<title>UserOnboardingComponent</title>
<polygon fill="#ffffb3" stroke="#000000" points="622.1316,-122 447.8684,-122 447.8684,-86 622.1316,-86 622.1316,-122"/>
<text text-anchor="middle" x="535" y="-99.8" font-family="Times,serif" font-size="14.00" fill="#000000">UserOnboardingComponent</text>
</g>
<!-- UserOnboardingComponent&#45;&gt;UsersModule -->
<g id="edge2" class="edge">
<title>UserOnboardingComponent&#45;&gt;UsersModule</title>
<path fill="none" stroke="#000000" d="M535,-122.0225C535,-139.3734 535,-163 535,-163 535,-163 430.8496,-163 430.8496,-163"/>
<polygon fill="#000000" stroke="#000000" points="430.8496,-159.5001 420.8496,-163 430.8495,-166.5001 430.8496,-159.5001"/>
</g>
<!-- SharedModule -->
<g id="node4" class="node">
<title>SharedModule</title>
<polygon fill="#8dd3c7" stroke="#000000" points="424.4231,-122 421.4231,-126 400.4231,-126 397.4231,-122 325.5769,-122 325.5769,-86 424.4231,-86 424.4231,-122"/>
<text text-anchor="middle" x="375" y="-99.8" font-family="Times,serif" font-size="14.00" fill="#000000">SharedModule</text>
</g>
<!-- SharedModule&#45;&gt;UsersModule -->
<g id="edge3" class="edge">
<title>SharedModule&#45;&gt;UsersModule</title>
<path fill="none" stroke="#000000" d="M375,-122.1061C375,-122.1061 375,-140.991 375,-140.991"/>
<polygon fill="#000000" stroke="#000000" points="371.5001,-140.9909 375,-150.991 378.5001,-140.991 371.5001,-140.9909"/>
</g>
<!-- UsersRoutingModule -->
<g id="node5" class="node">
<title>UsersRoutingModule</title>
<polygon fill="#8dd3c7" stroke="#000000" points="308.0394,-122 305.0394,-126 284.0394,-126 281.0394,-122 171.9606,-122 171.9606,-86 308.0394,-86 308.0394,-122"/>
<text text-anchor="middle" x="240" y="-99.8" font-family="Times,serif" font-size="14.00" fill="#000000">UsersRoutingModule</text>
</g>
<!-- UsersRoutingModule&#45;&gt;UsersModule -->
<g id="edge4" class="edge">
<title>UsersRoutingModule&#45;&gt;UsersModule</title>
<path fill="none" stroke="#000000" d="M240,-122.0225C240,-139.3734 240,-163 240,-163 240,-163 318.9182,-163 318.9182,-163"/>
<polygon fill="#000000" stroke="#000000" points="318.9183,-166.5001 328.9182,-163 318.9182,-159.5001 318.9183,-166.5001"/>
</g>
<!-- UsersService -->
<g id="node6" class="node">
<title>UsersService</title>
<ellipse fill="#fdb462" stroke="#000000" cx="86" cy="-104" rx="61.9519" ry="18"/>
<text text-anchor="middle" x="86" y="-99.8" font-family="Times,serif" font-size="14.00" fill="#000000">UsersService</text>
</g>
<!-- UsersService&#45;&gt;UsersModule -->
<g id="edge5" class="edge">
<title>UsersService&#45;&gt;UsersModule</title>
<path fill="none" stroke="#000000" d="M86,-122.2843C86,-143.3211 86,-175 86,-175 86,-175 319.2071,-175 319.2071,-175"/>
<polygon fill="#000000" stroke="#000000" points="319.2071,-178.5001 329.2071,-175 319.2071,-171.5001 319.2071,-178.5001"/>
</g>
</g>
</svg>
