<?xml version="1.0" encoding="UTF-8" standalone="no"?>
<!DOCTYPE svg PUBLIC "-//W3C//DTD SVG 1.1//EN"
 "http://www.w3.org/Graphics/SVG/1.1/DTD/svg11.dtd">
<!-- Generated by graphviz version 2.40.1 (20161225.0304)
 -->
<!-- Title: dependencies Pages: 1 -->
<svg width="504pt" height="211pt"
 viewBox="0.00 0.00 504.00 211.00" xmlns="http://www.w3.org/2000/svg" xmlns:xlink="http://www.w3.org/1999/xlink">
<g id="graph0" class="graph" transform="scale(1 1) rotate(0) translate(4 207)">
<title>dependencies</title>
<polygon fill="#ffffff" stroke="transparent" points="-4,4 -4,-207 500,-207 500,4 -4,4"/>
<text text-anchor="start" x="227.0091" y="-42.4" font-family="sans-serif" font-weight="bold" font-size="14.00" fill="#000000">Legend</text>
<polygon fill="#ffffb3" stroke="transparent" points="14,-10 14,-30 34,-30 34,-10 14,-10"/>
<text text-anchor="start" x="37.629" y="-15.4" font-family="sans-serif" font-size="14.00" fill="#000000"> &#160;Declarations</text>
<polygon fill="#8dd3c7" stroke="transparent" points="127,-10 127,-30 147,-30 147,-10 127,-10"/>
<text text-anchor="start" x="150.7251" y="-15.4" font-family="sans-serif" font-size="14.00" fill="#000000"> &#160;Module</text>
<polygon fill="#80b1d3" stroke="transparent" points="213,-10 213,-30 233,-30 233,-10 213,-10"/>
<text text-anchor="start" x="236.7812" y="-15.4" font-family="sans-serif" font-size="14.00" fill="#000000"> &#160;Bootstrap</text>
<polygon fill="#fdb462" stroke="transparent" points="310,-10 310,-30 330,-30 330,-10 310,-10"/>
<text text-anchor="start" x="333.6732" y="-15.4" font-family="sans-serif" font-size="14.00" fill="#000000"> &#160;Providers</text>
<polygon fill="#fb8072" stroke="transparent" points="406,-10 406,-30 426,-30 426,-10 406,-10"/>
<text text-anchor="start" x="429.7258" y="-15.4" font-family="sans-serif" font-size="14.00" fill="#000000"> &#160;Exports</text>
<g id="clust1" class="cluster">
<title>cluster_UcRolesModule</title>
<polygon fill="none" stroke="#000000" stroke-dasharray="1,5" points="95,-70 95,-195 401,-195 401,-70 95,-70"/>
</g>
<g id="clust2" class="cluster">
<title>cluster_UcRolesModule_declarations</title>
<polygon fill="none" stroke="#000000" points="279,-78 279,-130 393,-130 393,-78 279,-78"/>
</g>
<g id="clust4" class="cluster">
<title>cluster_UcRolesModule_imports</title>
<polygon fill="none" stroke="#000000" points="103,-78 103,-130 271,-130 271,-78 103,-78"/>
</g>
<!-- UcComponent -->
<g id="node1" class="node">
<title>UcComponent</title>
<polygon fill="#ffffb3" stroke="#000000" points="384.6542,-122 287.3458,-122 287.3458,-86 384.6542,-86 384.6542,-122"/>
<text text-anchor="middle" x="336" y="-99.8" font-family="Times,serif" font-size="14.00" fill="#000000">UcComponent</text>
</g>
<!-- UcRolesModule -->
<g id="node2" class="node">
<title>UcRolesModule</title>
<polygon fill="#8dd3c7" stroke="#000000" points="314.7577,-187 311.7577,-191 290.7577,-191 287.7577,-187 207.2423,-187 207.2423,-151 314.7577,-151 314.7577,-187"/>
<text text-anchor="middle" x="261" y="-164.8" font-family="Times,serif" font-size="14.00" fill="#000000">UcRolesModule</text>
</g>
<!-- UcComponent&#45;&gt;UcRolesModule -->
<g id="edge1" class="edge">
<title>UcComponent&#45;&gt;UcRolesModule</title>
<path fill="none" stroke="#000000" d="M301.0259,-122.1061C301.0259,-122.1061 301.0259,-140.991 301.0259,-140.991"/>
<polygon fill="#000000" stroke="#000000" points="297.526,-140.9909 301.0259,-150.991 304.526,-140.991 297.526,-140.9909"/>
</g>
<!-- UcRolesRoutingModule -->
<g id="node3" class="node">
<title>UcRolesRoutingModule</title>
<polygon fill="#8dd3c7" stroke="#000000" points="263.3753,-122 260.3753,-126 239.3753,-126 236.3753,-122 110.6247,-122 110.6247,-86 263.3753,-86 263.3753,-122"/>
<text text-anchor="middle" x="187" y="-99.8" font-family="Times,serif" font-size="14.00" fill="#000000">UcRolesRoutingModule</text>
</g>
<!-- UcRolesRoutingModule&#45;&gt;UcRolesModule -->
<g id="edge2" class="edge">
<title>UcRolesRoutingModule&#45;&gt;UcRolesModule</title>
<path fill="none" stroke="#000000" d="M235.2795,-122.1061C235.2795,-122.1061 235.2795,-140.991 235.2795,-140.991"/>
<polygon fill="#000000" stroke="#000000" points="231.7795,-140.9909 235.2795,-150.991 238.7795,-140.991 231.7795,-140.9909"/>
</g>
</g>
</svg>
