<?xml version="1.0" encoding="UTF-8" standalone="no"?>
<!DOCTYPE svg PUBLIC "-//W3C//DTD SVG 1.1//EN"
 "http://www.w3.org/Graphics/SVG/1.1/DTD/svg11.dtd">
<!-- Generated by graphviz version 2.40.1 (20161225.0304)
 -->
<!-- Title: dependencies Pages: 1 -->
<svg width="1066pt" height="211pt"
 viewBox="0.00 0.00 1066.00 211.00" xmlns="http://www.w3.org/2000/svg" xmlns:xlink="http://www.w3.org/1999/xlink">
<g id="graph0" class="graph" transform="scale(1 1) rotate(0) translate(4 207)">
<title>dependencies</title>
<polygon fill="#ffffff" stroke="transparent" points="-4,4 -4,-207 1062,-207 1062,4 -4,4"/>
<text text-anchor="start" x="508.0091" y="-42.4" font-family="sans-serif" font-weight="bold" font-size="14.00" fill="#000000">Legend</text>
<polygon fill="#ffffb3" stroke="transparent" points="295,-10 295,-30 315,-30 315,-10 295,-10"/>
<text text-anchor="start" x="318.629" y="-15.4" font-family="sans-serif" font-size="14.00" fill="#000000"> &#160;Declarations</text>
<polygon fill="#8dd3c7" stroke="transparent" points="408,-10 408,-30 428,-30 428,-10 408,-10"/>
<text text-anchor="start" x="431.7251" y="-15.4" font-family="sans-serif" font-size="14.00" fill="#000000"> &#160;Module</text>
<polygon fill="#80b1d3" stroke="transparent" points="494,-10 494,-30 514,-30 514,-10 494,-10"/>
<text text-anchor="start" x="517.7812" y="-15.4" font-family="sans-serif" font-size="14.00" fill="#000000"> &#160;Bootstrap</text>
<polygon fill="#fdb462" stroke="transparent" points="591,-10 591,-30 611,-30 611,-10 591,-10"/>
<text text-anchor="start" x="614.6732" y="-15.4" font-family="sans-serif" font-size="14.00" fill="#000000"> &#160;Providers</text>
<polygon fill="#fb8072" stroke="transparent" points="687,-10 687,-30 707,-30 707,-10 687,-10"/>
<text text-anchor="start" x="710.7258" y="-15.4" font-family="sans-serif" font-size="14.00" fill="#000000"> &#160;Exports</text>
<g id="clust1" class="cluster">
<title>cluster_DashboardModule</title>
<polygon fill="none" stroke="#000000" stroke-dasharray="1,5" points="8,-70 8,-195 1050,-195 1050,-70 8,-70"/>
</g>
<g id="clust2" class="cluster">
<title>cluster_DashboardModule_declarations</title>
<polygon fill="none" stroke="#000000" points="206,-78 206,-130 1042,-130 1042,-78 206,-78"/>
</g>
<g id="clust8" class="cluster">
<title>cluster_DashboardModule_imports</title>
<polygon fill="none" stroke="#000000" points="16,-78 16,-130 198,-130 198,-78 16,-78"/>
</g>
<!-- AppOwnerComponent -->
<g id="node1" class="node">
<title>AppOwnerComponent</title>
<polygon fill="#ffffb3" stroke="#000000" points="1033.5282,-122 890.4718,-122 890.4718,-86 1033.5282,-86 1033.5282,-122"/>
<text text-anchor="middle" x="962" y="-99.8" font-family="Times,serif" font-size="14.00" fill="#000000">AppOwnerComponent</text>
</g>
<!-- DashboardModule -->
<g id="node6" class="node">
<title>DashboardModule</title>
<polygon fill="#8dd3c7" stroke="#000000" points="596.191,-187 593.191,-191 572.191,-191 569.191,-187 475.809,-187 475.809,-151 596.191,-151 596.191,-187"/>
<text text-anchor="middle" x="536" y="-164.8" font-family="Times,serif" font-size="14.00" fill="#000000">DashboardModule</text>
</g>
<!-- AppOwnerComponent&#45;&gt;DashboardModule -->
<g id="edge1" class="edge">
<title>AppOwnerComponent&#45;&gt;DashboardModule</title>
<path fill="none" stroke="#000000" d="M962,-122.2843C962,-143.3211 962,-175 962,-175 962,-175 606.1319,-175 606.1319,-175"/>
<polygon fill="#000000" stroke="#000000" points="606.1319,-171.5001 596.1319,-175 606.1318,-178.5001 606.1319,-171.5001"/>
</g>
<!-- DashboardComponent -->
<g id="node2" class="node">
<title>DashboardComponent</title>
<polygon fill="#ffffb3" stroke="#000000" points="871.9734,-122 730.0266,-122 730.0266,-86 871.9734,-86 871.9734,-122"/>
<text text-anchor="middle" x="801" y="-99.8" font-family="Times,serif" font-size="14.00" fill="#000000">DashboardComponent</text>
</g>
<!-- DashboardComponent&#45;&gt;DashboardModule -->
<g id="edge2" class="edge">
<title>DashboardComponent&#45;&gt;DashboardModule</title>
<path fill="none" stroke="#000000" d="M801,-122.0225C801,-139.3734 801,-163 801,-163 801,-163 606.1326,-163 606.1326,-163"/>
<polygon fill="#000000" stroke="#000000" points="606.1326,-159.5001 596.1326,-163 606.1326,-166.5001 606.1326,-159.5001"/>
</g>
<!-- NewApplicationComponent -->
<g id="node3" class="node">
<title>NewApplicationComponent</title>
<polygon fill="#ffffb3" stroke="#000000" points="711.8585,-122 538.1415,-122 538.1415,-86 711.8585,-86 711.8585,-122"/>
<text text-anchor="middle" x="625" y="-99.8" font-family="Times,serif" font-size="14.00" fill="#000000">NewApplicationComponent</text>
</g>
<!-- NewApplicationComponent&#45;&gt;DashboardModule -->
<g id="edge3" class="edge">
<title>NewApplicationComponent&#45;&gt;DashboardModule</title>
<path fill="none" stroke="#000000" d="M567.0831,-122.1061C567.0831,-122.1061 567.0831,-140.991 567.0831,-140.991"/>
<polygon fill="#000000" stroke="#000000" points="563.5832,-140.9909 567.0831,-150.991 570.5832,-140.991 563.5832,-140.9909"/>
</g>
<!-- QuickViewComponent -->
<g id="node4" class="node">
<title>QuickViewComponent</title>
<polygon fill="#ffffb3" stroke="#000000" points="519.8627,-122 374.1373,-122 374.1373,-86 519.8627,-86 519.8627,-122"/>
<text text-anchor="middle" x="447" y="-99.8" font-family="Times,serif" font-size="14.00" fill="#000000">QuickViewComponent</text>
</g>
<!-- QuickViewComponent&#45;&gt;DashboardModule -->
<g id="edge4" class="edge">
<title>QuickViewComponent&#45;&gt;DashboardModule</title>
<path fill="none" stroke="#000000" d="M497.918,-122.1061C497.918,-122.1061 497.918,-140.991 497.918,-140.991"/>
<polygon fill="#000000" stroke="#000000" points="494.418,-140.9909 497.918,-150.991 501.418,-140.991 494.418,-140.9909"/>
</g>
<!-- UserGraphComponent -->
<g id="node5" class="node">
<title>UserGraphComponent</title>
<polygon fill="#ffffb3" stroke="#000000" points="356.2408,-122 213.7592,-122 213.7592,-86 356.2408,-86 356.2408,-122"/>
<text text-anchor="middle" x="285" y="-99.8" font-family="Times,serif" font-size="14.00" fill="#000000">UserGraphComponent</text>
</g>
<!-- UserGraphComponent&#45;&gt;DashboardModule -->
<g id="edge5" class="edge">
<title>UserGraphComponent&#45;&gt;DashboardModule</title>
<path fill="none" stroke="#000000" d="M285,-122.0225C285,-139.3734 285,-163 285,-163 285,-163 465.8792,-163 465.8792,-163"/>
<polygon fill="#000000" stroke="#000000" points="465.8793,-166.5001 475.8792,-163 465.8792,-159.5001 465.8793,-166.5001"/>
</g>
<!-- DashboardRoutingModule -->
<g id="node7" class="node">
<title>DashboardRoutingModule</title>
<polygon fill="#8dd3c7" stroke="#000000" points="189.8089,-122 186.8089,-126 165.8089,-126 162.8089,-122 24.1911,-122 24.1911,-86 189.8089,-86 189.8089,-122"/>
<text text-anchor="middle" x="107" y="-99.8" font-family="Times,serif" font-size="14.00" fill="#000000">DashboardRoutingModule</text>
</g>
<!-- DashboardRoutingModule&#45;&gt;DashboardModule -->
<g id="edge6" class="edge">
<title>DashboardRoutingModule&#45;&gt;DashboardModule</title>
<path fill="none" stroke="#000000" d="M107,-122.2843C107,-143.3211 107,-175 107,-175 107,-175 465.8977,-175 465.8977,-175"/>
<polygon fill="#000000" stroke="#000000" points="465.8977,-178.5001 475.8977,-175 465.8976,-171.5001 465.8977,-178.5001"/>
</g>
</g>
</svg>
