<?xml version="1.0" encoding="UTF-8" standalone="no"?>
<!DOCTYPE svg PUBLIC "-//W3C//DTD SVG 1.1//EN"
 "http://www.w3.org/Graphics/SVG/1.1/DTD/svg11.dtd">
<!-- Generated by graphviz version 2.40.1 (20161225.0304)
 -->
<!-- Title: dependencies Pages: 1 -->
<svg width="1071pt" height="211pt"
 viewBox="0.00 0.00 1071.00 211.00" xmlns="http://www.w3.org/2000/svg" xmlns:xlink="http://www.w3.org/1999/xlink">
<g id="graph0" class="graph" transform="scale(1 1) rotate(0) translate(4 207)">
<title>dependencies</title>
<polygon fill="#ffffff" stroke="transparent" points="-4,4 -4,-207 1067,-207 1067,4 -4,4"/>
<text text-anchor="start" x="510.5091" y="-42.4" font-family="sans-serif" font-weight="bold" font-size="14.00" fill="#000000">Legend</text>
<polygon fill="#ffffb3" stroke="transparent" points="297.5,-10 297.5,-30 317.5,-30 317.5,-10 297.5,-10"/>
<text text-anchor="start" x="321.129" y="-15.4" font-family="sans-serif" font-size="14.00" fill="#000000"> &#160;Declarations</text>
<polygon fill="#8dd3c7" stroke="transparent" points="410.5,-10 410.5,-30 430.5,-30 430.5,-10 410.5,-10"/>
<text text-anchor="start" x="434.2251" y="-15.4" font-family="sans-serif" font-size="14.00" fill="#000000"> &#160;Module</text>
<polygon fill="#80b1d3" stroke="transparent" points="496.5,-10 496.5,-30 516.5,-30 516.5,-10 496.5,-10"/>
<text text-anchor="start" x="520.2812" y="-15.4" font-family="sans-serif" font-size="14.00" fill="#000000"> &#160;Bootstrap</text>
<polygon fill="#fdb462" stroke="transparent" points="593.5,-10 593.5,-30 613.5,-30 613.5,-10 593.5,-10"/>
<text text-anchor="start" x="617.1732" y="-15.4" font-family="sans-serif" font-size="14.00" fill="#000000"> &#160;Providers</text>
<polygon fill="#fb8072" stroke="transparent" points="689.5,-10 689.5,-30 709.5,-30 709.5,-10 689.5,-10"/>
<text text-anchor="start" x="713.2258" y="-15.4" font-family="sans-serif" font-size="14.00" fill="#000000"> &#160;Exports</text>
<g id="clust1" class="cluster">
<title>cluster_BusinessUnitModule</title>
<polygon fill="none" stroke="#000000" stroke-dasharray="1,5" points="8,-70 8,-195 1055,-195 1055,-70 8,-70"/>
</g>
<g id="clust2" class="cluster">
<title>cluster_BusinessUnitModule_declarations</title>
<polygon fill="none" stroke="#000000" points="542,-78 542,-130 1047,-130 1047,-78 542,-78"/>
</g>
<g id="clust7" class="cluster">
<title>cluster_BusinessUnitModule_imports</title>
<polygon fill="none" stroke="#000000" points="222,-78 222,-130 534,-130 534,-78 222,-78"/>
</g>
<g id="clust10" class="cluster">
<title>cluster_BusinessUnitModule_providers</title>
<polygon fill="none" stroke="#000000" points="16,-78 16,-130 214,-130 214,-78 16,-78"/>
</g>
<!-- AddComponent -->
<g id="node1" class="node">
<title>AddComponent</title>
<polygon fill="#ffffb3" stroke="#000000" points="1038.9399,-122 933.0601,-122 933.0601,-86 1038.9399,-86 1038.9399,-122"/>
<text text-anchor="middle" x="986" y="-99.8" font-family="Times,serif" font-size="14.00" fill="#000000">AddComponent</text>
</g>
<!-- BusinessUnitModule -->
<g id="node5" class="node">
<title>BusinessUnitModule</title>
<polygon fill="#8dd3c7" stroke="#000000" points="669.2134,-187 666.2134,-191 645.2134,-191 642.2134,-187 534.7866,-187 534.7866,-151 669.2134,-151 669.2134,-187"/>
<text text-anchor="middle" x="602" y="-164.8" font-family="Times,serif" font-size="14.00" fill="#000000">BusinessUnitModule</text>
</g>
<!-- AddComponent&#45;&gt;BusinessUnitModule -->
<g id="edge1" class="edge">
<title>AddComponent&#45;&gt;BusinessUnitModule</title>
<path fill="none" stroke="#000000" d="M986,-122.2843C986,-143.3211 986,-175 986,-175 986,-175 679.3271,-175 679.3271,-175"/>
<polygon fill="#000000" stroke="#000000" points="679.3271,-171.5001 669.3271,-175 679.3271,-178.5001 679.3271,-171.5001"/>
</g>
<!-- DetailsComponent -->
<g id="node2" class="node">
<title>DetailsComponent</title>
<polygon fill="#ffffb3" stroke="#000000" points="915.4846,-122 794.5154,-122 794.5154,-86 915.4846,-86 915.4846,-122"/>
<text text-anchor="middle" x="855" y="-99.8" font-family="Times,serif" font-size="14.00" fill="#000000">DetailsComponent</text>
</g>
<!-- DetailsComponent&#45;&gt;BusinessUnitModule -->
<g id="edge2" class="edge">
<title>DetailsComponent&#45;&gt;BusinessUnitModule</title>
<path fill="none" stroke="#000000" d="M855,-122.0225C855,-139.3734 855,-163 855,-163 855,-163 679.1351,-163 679.1351,-163"/>
<polygon fill="#000000" stroke="#000000" points="679.1352,-159.5001 669.1351,-163 679.1351,-166.5001 679.1352,-159.5001"/>
</g>
<!-- EditComponent -->
<g id="node3" class="node">
<title>EditComponent</title>
<polygon fill="#ffffb3" stroke="#000000" points="776.1667,-122 671.8333,-122 671.8333,-86 776.1667,-86 776.1667,-122"/>
<text text-anchor="middle" x="724" y="-99.8" font-family="Times,serif" font-size="14.00" fill="#000000">EditComponent</text>
</g>
<!-- EditComponent&#45;&gt;BusinessUnitModule -->
<g id="edge3" class="edge">
<title>EditComponent&#45;&gt;BusinessUnitModule</title>
<path fill="none" stroke="#000000" d="M671.6795,-104C665.4964,-104 661.331,-104 661.331,-104 661.331,-104 661.331,-140.8939 661.331,-140.8939"/>
<polygon fill="#000000" stroke="#000000" points="657.8311,-140.8938 661.331,-150.8939 664.8311,-140.8939 657.8311,-140.8938"/>
</g>
<!-- ListComponent -->
<g id="node4" class="node">
<title>ListComponent</title>
<polygon fill="#ffffb3" stroke="#000000" points="653.6109,-122 550.3891,-122 550.3891,-86 653.6109,-86 653.6109,-122"/>
<text text-anchor="middle" x="602" y="-99.8" font-family="Times,serif" font-size="14.00" fill="#000000">ListComponent</text>
</g>
<!-- ListComponent&#45;&gt;BusinessUnitModule -->
<g id="edge4" class="edge">
<title>ListComponent&#45;&gt;BusinessUnitModule</title>
<path fill="none" stroke="#000000" d="M602,-122.1061C602,-122.1061 602,-140.991 602,-140.991"/>
<polygon fill="#000000" stroke="#000000" points="598.5001,-140.9909 602,-150.991 605.5001,-140.991 598.5001,-140.9909"/>
</g>
<!-- BusinessUnitRoutingModule -->
<g id="node6" class="node">
<title>BusinessUnitRoutingModule</title>
<polygon fill="#8dd3c7" stroke="#000000" points="525.8313,-122 522.8313,-126 501.8313,-126 498.8313,-122 346.1687,-122 346.1687,-86 525.8313,-86 525.8313,-122"/>
<text text-anchor="middle" x="436" y="-99.8" font-family="Times,serif" font-size="14.00" fill="#000000">BusinessUnitRoutingModule</text>
</g>
<!-- BusinessUnitRoutingModule&#45;&gt;BusinessUnitModule -->
<g id="edge5" class="edge">
<title>BusinessUnitRoutingModule&#45;&gt;BusinessUnitModule</title>
<path fill="none" stroke="#000000" d="M526.002,-104C536.0022,-104 542.669,-104 542.669,-104 542.669,-104 542.669,-140.8939 542.669,-140.8939"/>
<polygon fill="#000000" stroke="#000000" points="539.1691,-140.8938 542.669,-150.8939 546.1691,-140.8939 539.1691,-140.8938"/>
</g>
<!-- SharedModule -->
<g id="node7" class="node">
<title>SharedModule</title>
<polygon fill="#8dd3c7" stroke="#000000" points="328.4231,-122 325.4231,-126 304.4231,-126 301.4231,-122 229.5769,-122 229.5769,-86 328.4231,-86 328.4231,-122"/>
<text text-anchor="middle" x="279" y="-99.8" font-family="Times,serif" font-size="14.00" fill="#000000">SharedModule</text>
</g>
<!-- SharedModule&#45;&gt;BusinessUnitModule -->
<g id="edge6" class="edge">
<title>SharedModule&#45;&gt;BusinessUnitModule</title>
<path fill="none" stroke="#000000" d="M279,-122.0225C279,-139.3734 279,-163 279,-163 279,-163 524.6818,-163 524.6818,-163"/>
<polygon fill="#000000" stroke="#000000" points="524.6818,-166.5001 534.6818,-163 524.6817,-159.5001 524.6818,-166.5001"/>
</g>
<!-- BusinessUnitService -->
<g id="node8" class="node">
<title>BusinessUnitService</title>
<ellipse fill="#fdb462" stroke="#000000" cx="115" cy="-104" rx="91.4867" ry="18"/>
<text text-anchor="middle" x="115" y="-99.8" font-family="Times,serif" font-size="14.00" fill="#000000">BusinessUnitService</text>
</g>
<!-- BusinessUnitService&#45;&gt;BusinessUnitModule -->
<g id="edge7" class="edge">
<title>BusinessUnitService&#45;&gt;BusinessUnitModule</title>
<path fill="none" stroke="#000000" d="M115,-122.2843C115,-143.3211 115,-175 115,-175 115,-175 524.796,-175 524.796,-175"/>
<polygon fill="#000000" stroke="#000000" points="524.7961,-178.5001 534.796,-175 524.796,-171.5001 524.7961,-178.5001"/>
</g>
</g>
</svg>
