<?xml version="1.0" encoding="UTF-8" standalone="no"?>
<!DOCTYPE svg PUBLIC "-//W3C//DTD SVG 1.1//EN"
 "http://www.w3.org/Graphics/SVG/1.1/DTD/svg11.dtd">
<!-- Generated by graphviz version 2.40.1 (20161225.0304)
 -->
<!-- Title: dependencies Pages: 1 -->
<svg width="830pt" height="284pt"
 viewBox="0.00 0.00 830.00 284.00" xmlns="http://www.w3.org/2000/svg" xmlns:xlink="http://www.w3.org/1999/xlink">
<g id="graph0" class="graph" transform="scale(1 1) rotate(0) translate(4 280)">
<title>dependencies</title>
<polygon fill="#ffffff" stroke="transparent" points="-4,4 -4,-280 826,-280 826,4 -4,4"/>
<text text-anchor="start" x="390.0091" y="-42.4" font-family="sans-serif" font-weight="bold" font-size="14.00" fill="#000000">Legend</text>
<polygon fill="#ffffb3" stroke="transparent" points="177,-10 177,-30 197,-30 197,-10 177,-10"/>
<text text-anchor="start" x="200.629" y="-15.4" font-family="sans-serif" font-size="14.00" fill="#000000"> &#160;Declarations</text>
<polygon fill="#8dd3c7" stroke="transparent" points="290,-10 290,-30 310,-30 310,-10 290,-10"/>
<text text-anchor="start" x="313.7251" y="-15.4" font-family="sans-serif" font-size="14.00" fill="#000000"> &#160;Module</text>
<polygon fill="#80b1d3" stroke="transparent" points="376,-10 376,-30 396,-30 396,-10 376,-10"/>
<text text-anchor="start" x="399.7812" y="-15.4" font-family="sans-serif" font-size="14.00" fill="#000000"> &#160;Bootstrap</text>
<polygon fill="#fdb462" stroke="transparent" points="473,-10 473,-30 493,-30 493,-10 473,-10"/>
<text text-anchor="start" x="496.6732" y="-15.4" font-family="sans-serif" font-size="14.00" fill="#000000"> &#160;Providers</text>
<polygon fill="#fb8072" stroke="transparent" points="569,-10 569,-30 589,-30 589,-10 569,-10"/>
<text text-anchor="start" x="592.7258" y="-15.4" font-family="sans-serif" font-size="14.00" fill="#000000"> &#160;Exports</text>
<g id="clust1" class="cluster">
<title>cluster_AppModule</title>
<polygon fill="none" stroke="#000000" stroke-dasharray="1,5" points="8,-70 8,-268 814,-268 814,-70 8,-70"/>
</g>
<g id="clust2" class="cluster">
<title>cluster_AppModule_declarations</title>
<polygon fill="none" stroke="#000000" points="684,-78 684,-130 806,-130 806,-78 684,-78"/>
</g>
<g id="clust4" class="cluster">
<title>cluster_AppModule_imports</title>
<polygon fill="none" stroke="#000000" points="338,-78 338,-130 676,-130 676,-78 338,-78"/>
</g>
<g id="clust6" class="cluster">
<title>cluster_AppModule_bootstrap</title>
<polygon fill="none" stroke="#000000" points="392,-208 392,-260 516,-260 516,-208 392,-208"/>
</g>
<g id="clust7" class="cluster">
<title>cluster_AppModule_providers</title>
<polygon fill="none" stroke="#000000" points="16,-78 16,-130 330,-130 330,-78 16,-78"/>
</g>
<!-- AppComponent -->
<g id="node1" class="node">
<title>AppComponent</title>
<polygon fill="#ffffb3" stroke="#000000" points="797.9399,-122 692.0601,-122 692.0601,-86 797.9399,-86 797.9399,-122"/>
<text text-anchor="middle" x="745" y="-99.8" font-family="Times,serif" font-size="14.00" fill="#000000">AppComponent</text>
</g>
<!-- AppModule -->
<g id="node2" class="node">
<title>AppModule</title>
<polygon fill="#8dd3c7" stroke="#000000" points="495.6571,-187 492.6571,-191 471.6571,-191 468.6571,-187 412.3429,-187 412.3429,-151 495.6571,-151 495.6571,-187"/>
<text text-anchor="middle" x="454" y="-164.8" font-family="Times,serif" font-size="14.00" fill="#000000">AppModule</text>
</g>
<!-- AppComponent&#45;&gt;AppModule -->
<g id="edge1" class="edge">
<title>AppComponent&#45;&gt;AppModule</title>
<path fill="none" stroke="#000000" d="M745,-122.2843C745,-143.3211 745,-175 745,-175 745,-175 505.6932,-175 505.6932,-175"/>
<polygon fill="#000000" stroke="#000000" points="505.6932,-171.5001 495.6932,-175 505.6932,-178.5001 505.6932,-171.5001"/>
</g>
<!-- AppComponent  -->
<g id="node6" class="node">
<title>AppComponent </title>
<polygon fill="#80b1d3" stroke="#000000" points="508.439,-252 399.561,-252 399.561,-216 508.439,-216 508.439,-252"/>
<text text-anchor="middle" x="454" y="-229.8" font-family="Times,serif" font-size="14.00" fill="#000000">AppComponent </text>
</g>
<!-- AppModule&#45;&gt;AppComponent  -->
<g id="edge5" class="edge">
<title>AppModule&#45;&gt;AppComponent </title>
<path fill="none" stroke="#000000" stroke-dasharray="1,5" d="M454,-187.1061C454,-187.1061 454,-205.991 454,-205.991"/>
<polygon fill="#000000" stroke="#000000" points="450.5001,-205.9909 454,-215.991 457.5001,-205.991 450.5001,-205.9909"/>
</g>
<!-- CoreModule -->
<g id="node3" class="node">
<title>CoreModule</title>
<polygon fill="#8dd3c7" stroke="#000000" points="668.2619,-122 665.2619,-126 644.2619,-126 641.2619,-122 581.7381,-122 581.7381,-86 668.2619,-86 668.2619,-122"/>
<text text-anchor="middle" x="625" y="-99.8" font-family="Times,serif" font-size="14.00" fill="#000000">CoreModule</text>
</g>
<!-- CoreModule&#45;&gt;AppModule -->
<g id="edge2" class="edge">
<title>CoreModule&#45;&gt;AppModule</title>
<path fill="none" stroke="#000000" d="M625,-122.0225C625,-139.3734 625,-163 625,-163 625,-163 505.8313,-163 505.8313,-163"/>
<polygon fill="#000000" stroke="#000000" points="505.8313,-159.5001 495.8313,-163 505.8313,-166.5001 505.8313,-159.5001"/>
</g>
<!-- FeatureModule -->
<g id="node4" class="node">
<title>FeatureModule</title>
<polygon fill="#8dd3c7" stroke="#000000" points="563.5285,-122 560.5285,-126 539.5285,-126 536.5285,-122 462.4715,-122 462.4715,-86 563.5285,-86 563.5285,-122"/>
<text text-anchor="middle" x="513" y="-99.8" font-family="Times,serif" font-size="14.00" fill="#000000">FeatureModule</text>
</g>
<!-- FeatureModule&#45;&gt;AppModule -->
<g id="edge3" class="edge">
<title>FeatureModule&#45;&gt;AppModule</title>
<path fill="none" stroke="#000000" d="M479.0323,-122.1061C479.0323,-122.1061 479.0323,-140.991 479.0323,-140.991"/>
<polygon fill="#000000" stroke="#000000" points="475.5323,-140.9909 479.0323,-150.991 482.5323,-140.991 475.5323,-140.9909"/>
</g>
<!-- SharedModule -->
<g id="node5" class="node">
<title>SharedModule</title>
<polygon fill="#8dd3c7" stroke="#000000" points="444.4231,-122 441.4231,-126 420.4231,-126 417.4231,-122 345.5769,-122 345.5769,-86 444.4231,-86 444.4231,-122"/>
<text text-anchor="middle" x="395" y="-99.8" font-family="Times,serif" font-size="14.00" fill="#000000">SharedModule</text>
</g>
<!-- SharedModule&#45;&gt;AppModule -->
<g id="edge4" class="edge">
<title>SharedModule&#45;&gt;AppModule</title>
<path fill="none" stroke="#000000" d="M428.1915,-122.1061C428.1915,-122.1061 428.1915,-140.991 428.1915,-140.991"/>
<polygon fill="#000000" stroke="#000000" points="424.6915,-140.9909 428.1915,-150.991 431.6915,-140.991 424.6915,-140.9909"/>
</g>
<!-- AppInsightService -->
<g id="node7" class="node">
<title>AppInsightService</title>
<ellipse fill="#fdb462" stroke="#000000" cx="239" cy="-104" rx="83.3867" ry="18"/>
<text text-anchor="middle" x="239" y="-99.8" font-family="Times,serif" font-size="14.00" fill="#000000">AppInsightService</text>
</g>
<!-- AppInsightService&#45;&gt;AppModule -->
<g id="edge6" class="edge">
<title>AppInsightService&#45;&gt;AppModule</title>
<path fill="none" stroke="#000000" d="M239,-122.0225C239,-139.3734 239,-163 239,-163 239,-163 402.2909,-163 402.2909,-163"/>
<polygon fill="#000000" stroke="#000000" points="402.2909,-166.5001 412.2909,-163 402.2909,-159.5001 402.2909,-166.5001"/>
</g>
<!-- AppService -->
<g id="node8" class="node">
<title>AppService</title>
<ellipse fill="#fdb462" stroke="#000000" cx="81" cy="-104" rx="56.7406" ry="18"/>
<text text-anchor="middle" x="81" y="-99.8" font-family="Times,serif" font-size="14.00" fill="#000000">AppService</text>
</g>
<!-- AppService&#45;&gt;AppModule -->
<g id="edge7" class="edge">
<title>AppService&#45;&gt;AppModule</title>
<path fill="none" stroke="#000000" d="M81,-122.2843C81,-143.3211 81,-175 81,-175 81,-175 402.2979,-175 402.2979,-175"/>
<polygon fill="#000000" stroke="#000000" points="402.2979,-178.5001 412.2979,-175 402.2979,-171.5001 402.2979,-178.5001"/>
</g>
</g>
</svg>
