<?xml version="1.0" encoding="UTF-8" standalone="no"?>
<!DOCTYPE svg PUBLIC "-//W3C//DTD SVG 1.1//EN"
 "http://www.w3.org/Graphics/SVG/1.1/DTD/svg11.dtd">
<!-- Generated by graphviz version 2.40.1 (20161225.0304)
 -->
<!-- Title: dependencies Pages: 1 -->
<svg width="2756pt" height="211pt"
 viewBox="0.00 0.00 2756.00 211.00" xmlns="http://www.w3.org/2000/svg" xmlns:xlink="http://www.w3.org/1999/xlink">
<g id="graph0" class="graph" transform="scale(1 1) rotate(0) translate(4 207)">
<title>dependencies</title>
<polygon fill="#ffffff" stroke="transparent" points="-4,4 -4,-207 2752,-207 2752,4 -4,4"/>
<text text-anchor="start" x="1353.0091" y="-42.4" font-family="sans-serif" font-weight="bold" font-size="14.00" fill="#000000">Legend</text>
<polygon fill="#ffffb3" stroke="transparent" points="1140,-10 1140,-30 1160,-30 1160,-10 1140,-10"/>
<text text-anchor="start" x="1163.629" y="-15.4" font-family="sans-serif" font-size="14.00" fill="#000000"> &#160;Declarations</text>
<polygon fill="#8dd3c7" stroke="transparent" points="1253,-10 1253,-30 1273,-30 1273,-10 1253,-10"/>
<text text-anchor="start" x="1276.7251" y="-15.4" font-family="sans-serif" font-size="14.00" fill="#000000"> &#160;Module</text>
<polygon fill="#80b1d3" stroke="transparent" points="1339,-10 1339,-30 1359,-30 1359,-10 1339,-10"/>
<text text-anchor="start" x="1362.7812" y="-15.4" font-family="sans-serif" font-size="14.00" fill="#000000"> &#160;Bootstrap</text>
<polygon fill="#fdb462" stroke="transparent" points="1436,-10 1436,-30 1456,-30 1456,-10 1436,-10"/>
<text text-anchor="start" x="1459.6732" y="-15.4" font-family="sans-serif" font-size="14.00" fill="#000000"> &#160;Providers</text>
<polygon fill="#fb8072" stroke="transparent" points="1532,-10 1532,-30 1552,-30 1552,-10 1532,-10"/>
<text text-anchor="start" x="1555.7258" y="-15.4" font-family="sans-serif" font-size="14.00" fill="#000000"> &#160;Exports</text>
<g id="clust1" class="cluster">
<title>cluster_HomeModule</title>
<polygon fill="none" stroke="#000000" stroke-dasharray="1,5" points="8,-70 8,-195 2740,-195 2740,-70 8,-70"/>
</g>
<g id="clust2" class="cluster">
<title>cluster_HomeModule_declarations</title>
<polygon fill="none" stroke="#000000" points="178,-78 178,-130 2732,-130 2732,-78 178,-78"/>
</g>
<g id="clust17" class="cluster">
<title>cluster_HomeModule_imports</title>
<polygon fill="none" stroke="#000000" points="16,-78 16,-130 170,-130 170,-78 16,-78"/>
</g>
<!-- AssetMonitoringComponent -->
<g id="node1" class="node">
<title>AssetMonitoringComponent</title>
<polygon fill="#ffffb3" stroke="#000000" points="2724.2105,-122 2547.7895,-122 2547.7895,-86 2724.2105,-86 2724.2105,-122"/>
<text text-anchor="middle" x="2636" y="-99.8" font-family="Times,serif" font-size="14.00" fill="#000000">AssetMonitoringComponent</text>
</g>
<!-- HomeModule -->
<g id="node15" class="node">
<title>HomeModule</title>
<polygon fill="#8dd3c7" stroke="#000000" points="1333.7619,-187 1330.7619,-191 1309.7619,-191 1306.7619,-187 1240.2381,-187 1240.2381,-151 1333.7619,-151 1333.7619,-187"/>
<text text-anchor="middle" x="1287" y="-164.8" font-family="Times,serif" font-size="14.00" fill="#000000">HomeModule</text>
</g>
<!-- AssetMonitoringComponent&#45;&gt;HomeModule -->
<g id="edge1" class="edge">
<title>AssetMonitoringComponent&#45;&gt;HomeModule</title>
<path fill="none" stroke="#000000" d="M2636,-122.3228C2636,-145.6602 2636,-183 2636,-183 2636,-183 1343.8274,-183 1343.8274,-183"/>
<polygon fill="#000000" stroke="#000000" points="1343.8274,-179.5001 1333.8274,-183 1343.8274,-186.5001 1343.8274,-179.5001"/>
</g>
<!-- BenefitsOfIotComponent -->
<g id="node2" class="node">
<title>BenefitsOfIotComponent</title>
<polygon fill="#ffffb3" stroke="#000000" points="2530.3033,-122 2371.6967,-122 2371.6967,-86 2530.3033,-86 2530.3033,-122"/>
<text text-anchor="middle" x="2451" y="-99.8" font-family="Times,serif" font-size="14.00" fill="#000000">BenefitsOfIotComponent</text>
</g>
<!-- BenefitsOfIotComponent&#45;&gt;HomeModule -->
<g id="edge2" class="edge">
<title>BenefitsOfIotComponent&#45;&gt;HomeModule</title>
<path fill="none" stroke="#000000" d="M2451,-122.2921C2451,-144.2057 2451,-178 2451,-178 2451,-178 1344.0718,-178 1344.0718,-178"/>
<polygon fill="#000000" stroke="#000000" points="1344.0719,-174.5001 1334.0718,-178 1344.0718,-181.5001 1344.0719,-174.5001"/>
</g>
<!-- CustomerSatisfactionComponent -->
<g id="node3" class="node">
<title>CustomerSatisfactionComponent</title>
<polygon fill="#ffffb3" stroke="#000000" points="2353.864,-122 2152.136,-122 2152.136,-86 2353.864,-86 2353.864,-122"/>
<text text-anchor="middle" x="2253" y="-99.8" font-family="Times,serif" font-size="14.00" fill="#000000">CustomerSatisfactionComponent</text>
</g>
<!-- CustomerSatisfactionComponent&#45;&gt;HomeModule -->
<g id="edge3" class="edge">
<title>CustomerSatisfactionComponent&#45;&gt;HomeModule</title>
<path fill="none" stroke="#000000" d="M2253,-122.0267C2253,-142.7672 2253,-174 2253,-174 2253,-174 1343.9186,-174 1343.9186,-174"/>
<polygon fill="#000000" stroke="#000000" points="1343.9187,-170.5001 1333.9186,-174 1343.9186,-177.5001 1343.9187,-170.5001"/>
</g>
<!-- DataManagementComponent -->
<g id="node4" class="node">
<title>DataManagementComponent</title>
<polygon fill="#ffffb3" stroke="#000000" points="2134.3431,-122 1953.6569,-122 1953.6569,-86 2134.3431,-86 2134.3431,-122"/>
<text text-anchor="middle" x="2044" y="-99.8" font-family="Times,serif" font-size="14.00" fill="#000000">DataManagementComponent</text>
</g>
<!-- DataManagementComponent&#45;&gt;HomeModule -->
<g id="edge4" class="edge">
<title>DataManagementComponent&#45;&gt;HomeModule</title>
<path fill="none" stroke="#000000" d="M2044,-122.1061C2044,-141.3391 2044,-169 2044,-169 2044,-169 1343.7825,-169 1343.7825,-169"/>
<polygon fill="#000000" stroke="#000000" points="1343.7825,-165.5001 1333.7825,-169 1343.7824,-172.5001 1343.7825,-165.5001"/>
</g>
<!-- DeviceManagementComponent -->
<g id="node5" class="node">
<title>DeviceManagementComponent</title>
<polygon fill="#ffffb3" stroke="#000000" points="1936.0576,-122 1741.9424,-122 1741.9424,-86 1936.0576,-86 1936.0576,-122"/>
<text text-anchor="middle" x="1839" y="-99.8" font-family="Times,serif" font-size="14.00" fill="#000000">DeviceManagementComponent</text>
</g>
<!-- DeviceManagementComponent&#45;&gt;HomeModule -->
<g id="edge5" class="edge">
<title>DeviceManagementComponent&#45;&gt;HomeModule</title>
<path fill="none" stroke="#000000" d="M1839,-122.302C1839,-140.2699 1839,-165 1839,-165 1839,-165 1344.0632,-165 1344.0632,-165"/>
<polygon fill="#000000" stroke="#000000" points="1344.0632,-161.5001 1334.0632,-165 1344.0632,-168.5001 1344.0632,-161.5001"/>
</g>
<!-- DpdhlAndIotComponent -->
<g id="node6" class="node">
<title>DpdhlAndIotComponent</title>
<polygon fill="#ffffb3" stroke="#000000" points="1723.9874,-122 1568.0126,-122 1568.0126,-86 1723.9874,-86 1723.9874,-122"/>
<text text-anchor="middle" x="1646" y="-99.8" font-family="Times,serif" font-size="14.00" fill="#000000">DpdhlAndIotComponent</text>
</g>
<!-- DpdhlAndIotComponent&#45;&gt;HomeModule -->
<g id="edge6" class="edge">
<title>DpdhlAndIotComponent&#45;&gt;HomeModule</title>
<path fill="none" stroke="#000000" d="M1646,-122.027C1646,-138.3976 1646,-160 1646,-160 1646,-160 1343.933,-160 1343.933,-160"/>
<polygon fill="#000000" stroke="#000000" points="1343.933,-156.5001 1333.933,-160 1343.9329,-163.5001 1343.933,-156.5001"/>
</g>
<!-- EventManagementComponent -->
<g id="node7" class="node">
<title>EventManagementComponent</title>
<polygon fill="#ffffb3" stroke="#000000" points="1549.5744,-122 1362.4256,-122 1362.4256,-86 1549.5744,-86 1549.5744,-122"/>
<text text-anchor="middle" x="1456" y="-99.8" font-family="Times,serif" font-size="14.00" fill="#000000">EventManagementComponent</text>
</g>
<!-- EventManagementComponent&#45;&gt;HomeModule -->
<g id="edge7" class="edge">
<title>EventManagementComponent&#45;&gt;HomeModule</title>
<path fill="none" stroke="#000000" d="M1456,-122.1871C1456,-137.1824 1456,-156 1456,-156 1456,-156 1344.0759,-156 1344.0759,-156"/>
<polygon fill="#000000" stroke="#000000" points="1344.076,-152.5001 1334.0759,-156 1344.0759,-159.5001 1344.076,-152.5001"/>
</g>
<!-- HomeComponent -->
<g id="node8" class="node">
<title>HomeComponent</title>
<polygon fill="#ffffb3" stroke="#000000" points="1344.5451,-122 1229.4549,-122 1229.4549,-86 1344.5451,-86 1344.5451,-122"/>
<text text-anchor="middle" x="1287" y="-99.8" font-family="Times,serif" font-size="14.00" fill="#000000">HomeComponent</text>
</g>
<!-- HomeComponent&#45;&gt;HomeModule -->
<g id="edge8" class="edge">
<title>HomeComponent&#45;&gt;HomeModule</title>
<path fill="none" stroke="#000000" d="M1287,-122.1061C1287,-122.1061 1287,-140.991 1287,-140.991"/>
<polygon fill="#000000" stroke="#000000" points="1283.5001,-140.9909 1287,-150.991 1290.5001,-140.991 1283.5001,-140.9909"/>
</g>
<!-- HowItWorksComponent -->
<g id="node9" class="node">
<title>HowItWorksComponent</title>
<polygon fill="#ffffb3" stroke="#000000" points="1211.4172,-122 1056.5828,-122 1056.5828,-86 1211.4172,-86 1211.4172,-122"/>
<text text-anchor="middle" x="1134" y="-99.8" font-family="Times,serif" font-size="14.00" fill="#000000">HowItWorksComponent</text>
</g>
<!-- HowItWorksComponent&#45;&gt;HomeModule -->
<g id="edge9" class="edge">
<title>HowItWorksComponent&#45;&gt;HomeModule</title>
<path fill="none" stroke="#000000" d="M1134,-122.1871C1134,-137.1824 1134,-156 1134,-156 1134,-156 1229.8465,-156 1229.8465,-156"/>
<polygon fill="#000000" stroke="#000000" points="1229.8466,-159.5001 1239.8465,-156 1229.8465,-152.5001 1229.8466,-159.5001"/>
</g>
<!-- PredectiveMaintenanceComponent -->
<g id="node10" class="node">
<title>PredectiveMaintenanceComponent</title>
<polygon fill="#ffffb3" stroke="#000000" points="1038.2142,-122 825.7858,-122 825.7858,-86 1038.2142,-86 1038.2142,-122"/>
<text text-anchor="middle" x="932" y="-99.8" font-family="Times,serif" font-size="14.00" fill="#000000">PredectiveMaintenanceComponent</text>
</g>
<!-- PredectiveMaintenanceComponent&#45;&gt;HomeModule -->
<g id="edge10" class="edge">
<title>PredectiveMaintenanceComponent&#45;&gt;HomeModule</title>
<path fill="none" stroke="#000000" d="M932,-122.027C932,-138.3976 932,-160 932,-160 932,-160 1230.2249,-160 1230.2249,-160"/>
<polygon fill="#000000" stroke="#000000" points="1230.2249,-163.5001 1240.2249,-160 1230.2249,-156.5001 1230.2249,-163.5001"/>
</g>
<!-- SecurityComponent -->
<g id="node11" class="node">
<title>SecurityComponent</title>
<polygon fill="#ffffb3" stroke="#000000" points="807.986,-122 680.014,-122 680.014,-86 807.986,-86 807.986,-122"/>
<text text-anchor="middle" x="744" y="-99.8" font-family="Times,serif" font-size="14.00" fill="#000000">SecurityComponent</text>
</g>
<!-- SecurityComponent&#45;&gt;HomeModule -->
<g id="edge11" class="edge">
<title>SecurityComponent&#45;&gt;HomeModule</title>
<path fill="none" stroke="#000000" d="M744,-122.302C744,-140.2699 744,-165 744,-165 744,-165 1230.2342,-165 1230.2342,-165"/>
<polygon fill="#000000" stroke="#000000" points="1230.2342,-168.5001 1240.2342,-165 1230.2341,-161.5001 1230.2342,-168.5001"/>
</g>
<!-- SmartEnergyComponent -->
<g id="node12" class="node">
<title>SmartEnergyComponent</title>
<polygon fill="#ffffb3" stroke="#000000" points="661.6993,-122 506.3007,-122 506.3007,-86 661.6993,-86 661.6993,-122"/>
<text text-anchor="middle" x="584" y="-99.8" font-family="Times,serif" font-size="14.00" fill="#000000">SmartEnergyComponent</text>
</g>
<!-- SmartEnergyComponent&#45;&gt;HomeModule -->
<g id="edge12" class="edge">
<title>SmartEnergyComponent&#45;&gt;HomeModule</title>
<path fill="none" stroke="#000000" d="M584,-122.1061C584,-141.3391 584,-169 584,-169 584,-169 1230.0565,-169 1230.0565,-169"/>
<polygon fill="#000000" stroke="#000000" points="1230.0566,-172.5001 1240.0565,-169 1230.0565,-165.5001 1230.0566,-172.5001"/>
</g>
<!-- TrackTraceComponent -->
<g id="node13" class="node">
<title>TrackTraceComponent</title>
<polygon fill="#ffffb3" stroke="#000000" points="487.8319,-122 342.1681,-122 342.1681,-86 487.8319,-86 487.8319,-122"/>
<text text-anchor="middle" x="415" y="-99.8" font-family="Times,serif" font-size="14.00" fill="#000000">TrackTraceComponent</text>
</g>
<!-- TrackTraceComponent&#45;&gt;HomeModule -->
<g id="edge13" class="edge">
<title>TrackTraceComponent&#45;&gt;HomeModule</title>
<path fill="none" stroke="#000000" d="M415,-122.0267C415,-142.7672 415,-174 415,-174 415,-174 1230.1175,-174 1230.1175,-174"/>
<polygon fill="#000000" stroke="#000000" points="1230.1175,-177.5001 1240.1175,-174 1230.1175,-170.5001 1230.1175,-177.5001"/>
</g>
<!-- WhatIsIotComponent -->
<g id="node14" class="node">
<title>WhatIsIotComponent</title>
<polygon fill="#ffffb3" stroke="#000000" points="323.8089,-122 186.1911,-122 186.1911,-86 323.8089,-86 323.8089,-122"/>
<text text-anchor="middle" x="255" y="-99.8" font-family="Times,serif" font-size="14.00" fill="#000000">WhatIsIotComponent</text>
</g>
<!-- WhatIsIotComponent&#45;&gt;HomeModule -->
<g id="edge14" class="edge">
<title>WhatIsIotComponent&#45;&gt;HomeModule</title>
<path fill="none" stroke="#000000" d="M255,-122.2921C255,-144.2057 255,-178 255,-178 255,-178 1229.9754,-178 1229.9754,-178"/>
<polygon fill="#000000" stroke="#000000" points="1229.9755,-181.5001 1239.9754,-178 1229.9754,-174.5001 1229.9755,-181.5001"/>
</g>
<!-- HomeRoutingModule -->
<g id="node16" class="node">
<title>HomeRoutingModule</title>
<polygon fill="#8dd3c7" stroke="#000000" points="162.3795,-122 159.3795,-126 138.3795,-126 135.3795,-122 23.6205,-122 23.6205,-86 162.3795,-86 162.3795,-122"/>
<text text-anchor="middle" x="93" y="-99.8" font-family="Times,serif" font-size="14.00" fill="#000000">HomeRoutingModule</text>
</g>
<!-- HomeRoutingModule&#45;&gt;HomeModule -->
<g id="edge15" class="edge">
<title>HomeRoutingModule&#45;&gt;HomeModule</title>
<path fill="none" stroke="#000000" d="M93,-122.3228C93,-145.6602 93,-183 93,-183 93,-183 1230.1938,-183 1230.1938,-183"/>
<polygon fill="#000000" stroke="#000000" points="1230.1938,-186.5001 1240.1938,-183 1230.1937,-179.5001 1230.1938,-186.5001"/>
</g>
</g>
</svg>
