<?xml version="1.0" encoding="UTF-8" standalone="no"?>
<!DOCTYPE svg PUBLIC "-//W3C//DTD SVG 1.1//EN"
 "http://www.w3.org/Graphics/SVG/1.1/DTD/svg11.dtd">
<!-- Generated by graphviz version 2.40.1 (20161225.0304)
 -->
<!-- Title: dependencies Pages: 1 -->
<svg width="504pt" height="211pt"
 viewBox="0.00 0.00 504.00 211.00" xmlns="http://www.w3.org/2000/svg" xmlns:xlink="http://www.w3.org/1999/xlink">
<g id="graph0" class="graph" transform="scale(1 1) rotate(0) translate(4 207)">
<title>dependencies</title>
<polygon fill="#ffffff" stroke="transparent" points="-4,4 -4,-207 500,-207 500,4 -4,4"/>
<text text-anchor="start" x="227.0091" y="-42.4" font-family="sans-serif" font-weight="bold" font-size="14.00" fill="#000000">Legend</text>
<polygon fill="#ffffb3" stroke="transparent" points="14,-10 14,-30 34,-30 34,-10 14,-10"/>
<text text-anchor="start" x="37.629" y="-15.4" font-family="sans-serif" font-size="14.00" fill="#000000"> &#160;Declarations</text>
<polygon fill="#8dd3c7" stroke="transparent" points="127,-10 127,-30 147,-30 147,-10 127,-10"/>
<text text-anchor="start" x="150.7251" y="-15.4" font-family="sans-serif" font-size="14.00" fill="#000000"> &#160;Module</text>
<polygon fill="#80b1d3" stroke="transparent" points="213,-10 213,-30 233,-30 233,-10 213,-10"/>
<text text-anchor="start" x="236.7812" y="-15.4" font-family="sans-serif" font-size="14.00" fill="#000000"> &#160;Bootstrap</text>
<polygon fill="#fdb462" stroke="transparent" points="310,-10 310,-30 330,-30 330,-10 310,-10"/>
<text text-anchor="start" x="333.6732" y="-15.4" font-family="sans-serif" font-size="14.00" fill="#000000"> &#160;Providers</text>
<polygon fill="#fb8072" stroke="transparent" points="406,-10 406,-30 426,-30 426,-10 406,-10"/>
<text text-anchor="start" x="429.7258" y="-15.4" font-family="sans-serif" font-size="14.00" fill="#000000"> &#160;Exports</text>
<g id="clust1" class="cluster">
<title>cluster_AssociationsModule</title>
<polygon fill="none" stroke="#000000" stroke-dasharray="1,5" points="40,-70 40,-195 456,-195 456,-70 40,-70"/>
</g>
<g id="clust2" class="cluster">
<title>cluster_AssociationsModule_declarations</title>
<polygon fill="none" stroke="#000000" points="248,-78 248,-130 448,-130 448,-78 248,-78"/>
</g>
<g id="clust4" class="cluster">
<title>cluster_AssociationsModule_imports</title>
<polygon fill="none" stroke="#000000" points="48,-78 48,-130 240,-130 240,-78 48,-78"/>
</g>
<!-- AssociationsViewComponent -->
<g id="node1" class="node">
<title>AssociationsViewComponent</title>
<polygon fill="#ffffb3" stroke="#000000" points="439.6923,-122 256.3077,-122 256.3077,-86 439.6923,-86 439.6923,-122"/>
<text text-anchor="middle" x="348" y="-99.8" font-family="Times,serif" font-size="14.00" fill="#000000">AssociationsViewComponent</text>
</g>
<!-- AssociationsModule -->
<g id="node2" class="node">
<title>AssociationsModule</title>
<polygon fill="#8dd3c7" stroke="#000000" points="311.5912,-187 308.5912,-191 287.5912,-191 284.5912,-187 180.4088,-187 180.4088,-151 311.5912,-151 311.5912,-187"/>
<text text-anchor="middle" x="246" y="-164.8" font-family="Times,serif" font-size="14.00" fill="#000000">AssociationsModule</text>
</g>
<!-- AssociationsViewComponent&#45;&gt;AssociationsModule -->
<g id="edge1" class="edge">
<title>AssociationsViewComponent&#45;&gt;AssociationsModule</title>
<path fill="none" stroke="#000000" d="M283.9747,-122.1061C283.9747,-122.1061 283.9747,-140.991 283.9747,-140.991"/>
<polygon fill="#000000" stroke="#000000" points="280.4748,-140.9909 283.9747,-150.991 287.4748,-140.991 280.4748,-140.9909"/>
</g>
<!-- AssociationsRoutingModule -->
<g id="node3" class="node">
<title>AssociationsRoutingModule</title>
<polygon fill="#8dd3c7" stroke="#000000" points="232.2091,-122 229.2091,-126 208.2091,-126 205.2091,-122 55.7909,-122 55.7909,-86 232.2091,-86 232.2091,-122"/>
<text text-anchor="middle" x="144" y="-99.8" font-family="Times,serif" font-size="14.00" fill="#000000">AssociationsRoutingModule</text>
</g>
<!-- AssociationsRoutingModule&#45;&gt;AssociationsModule -->
<g id="edge2" class="edge">
<title>AssociationsRoutingModule&#45;&gt;AssociationsModule</title>
<path fill="none" stroke="#000000" d="M206.2795,-122.1061C206.2795,-122.1061 206.2795,-140.991 206.2795,-140.991"/>
<polygon fill="#000000" stroke="#000000" points="202.7795,-140.9909 206.2795,-150.991 209.7795,-140.991 202.7795,-140.9909"/>
</g>
</g>
</svg>
