<?xml version="1.0" encoding="UTF-8" standalone="no"?>
<!DOCTYPE svg PUBLIC "-//W3C//DTD SVG 1.1//EN"
 "http://www.w3.org/Graphics/SVG/1.1/DTD/svg11.dtd">
<!-- Generated by graphviz version 2.40.1 (20161225.0304)
 -->
<!-- Title: dependencies Pages: 1 -->
<svg width="1197pt" height="211pt"
 viewBox="0.00 0.00 1197.00 211.00" xmlns="http://www.w3.org/2000/svg" xmlns:xlink="http://www.w3.org/1999/xlink">
<g id="graph0" class="graph" transform="scale(1 1) rotate(0) translate(4 207)">
<title>dependencies</title>
<polygon fill="#ffffff" stroke="transparent" points="-4,4 -4,-207 1193,-207 1193,4 -4,4"/>
<text text-anchor="start" x="573.5091" y="-42.4" font-family="sans-serif" font-weight="bold" font-size="14.00" fill="#000000">Legend</text>
<polygon fill="#ffffb3" stroke="transparent" points="360.5,-10 360.5,-30 380.5,-30 380.5,-10 360.5,-10"/>
<text text-anchor="start" x="384.129" y="-15.4" font-family="sans-serif" font-size="14.00" fill="#000000"> &#160;Declarations</text>
<polygon fill="#8dd3c7" stroke="transparent" points="473.5,-10 473.5,-30 493.5,-30 493.5,-10 473.5,-10"/>
<text text-anchor="start" x="497.2251" y="-15.4" font-family="sans-serif" font-size="14.00" fill="#000000"> &#160;Module</text>
<polygon fill="#80b1d3" stroke="transparent" points="559.5,-10 559.5,-30 579.5,-30 579.5,-10 559.5,-10"/>
<text text-anchor="start" x="583.2812" y="-15.4" font-family="sans-serif" font-size="14.00" fill="#000000"> &#160;Bootstrap</text>
<polygon fill="#fdb462" stroke="transparent" points="656.5,-10 656.5,-30 676.5,-30 676.5,-10 656.5,-10"/>
<text text-anchor="start" x="680.1732" y="-15.4" font-family="sans-serif" font-size="14.00" fill="#000000"> &#160;Providers</text>
<polygon fill="#fb8072" stroke="transparent" points="752.5,-10 752.5,-30 772.5,-30 772.5,-10 752.5,-10"/>
<text text-anchor="start" x="776.2258" y="-15.4" font-family="sans-serif" font-size="14.00" fill="#000000"> &#160;Exports</text>
<g id="clust1" class="cluster">
<title>cluster_ApplicationModule</title>
<polygon fill="none" stroke="#000000" stroke-dasharray="1,5" points="8,-70 8,-195 1181,-195 1181,-70 8,-70"/>
</g>
<g id="clust2" class="cluster">
<title>cluster_ApplicationModule_declarations</title>
<polygon fill="none" stroke="#000000" points="523,-78 523,-130 1173,-130 1173,-78 523,-78"/>
</g>
<g id="clust7" class="cluster">
<title>cluster_ApplicationModule_imports</title>
<polygon fill="none" stroke="#000000" points="212,-78 212,-130 515,-130 515,-78 212,-78"/>
</g>
<g id="clust10" class="cluster">
<title>cluster_ApplicationModule_providers</title>
<polygon fill="none" stroke="#000000" points="16,-78 16,-130 204,-130 204,-78 16,-78"/>
</g>
<!-- AllAppComponent -->
<g id="node1" class="node">
<title>AllAppComponent</title>
<polygon fill="#ffffb3" stroke="#000000" points="1164.8272,-122 1041.1728,-122 1041.1728,-86 1164.8272,-86 1164.8272,-122"/>
<text text-anchor="middle" x="1103" y="-99.8" font-family="Times,serif" font-size="14.00" fill="#000000">AllAppComponent</text>
</g>
<!-- ApplicationModule -->
<g id="node5" class="node">
<title>ApplicationModule</title>
<polygon fill="#8dd3c7" stroke="#000000" points="649.6485,-187 646.6485,-191 625.6485,-191 622.6485,-187 524.3515,-187 524.3515,-151 649.6485,-151 649.6485,-187"/>
<text text-anchor="middle" x="587" y="-164.8" font-family="Times,serif" font-size="14.00" fill="#000000">ApplicationModule</text>
</g>
<!-- AllAppComponent&#45;&gt;ApplicationModule -->
<g id="edge1" class="edge">
<title>AllAppComponent&#45;&gt;ApplicationModule</title>
<path fill="none" stroke="#000000" d="M1103,-122.2921C1103,-144.2057 1103,-178 1103,-178 1103,-178 659.7559,-178 659.7559,-178"/>
<polygon fill="#000000" stroke="#000000" points="659.7559,-174.5001 649.7559,-178 659.7558,-181.5001 659.7559,-174.5001"/>
</g>
<!-- BulkUploadComponent -->
<g id="node2" class="node">
<title>BulkUploadComponent</title>
<polygon fill="#ffffb3" stroke="#000000" points="1022.7716,-122 873.2284,-122 873.2284,-86 1022.7716,-86 1022.7716,-122"/>
<text text-anchor="middle" x="948" y="-99.8" font-family="Times,serif" font-size="14.00" fill="#000000">BulkUploadComponent</text>
</g>
<!-- BulkUploadComponent&#45;&gt;ApplicationModule -->
<g id="edge2" class="edge">
<title>BulkUploadComponent&#45;&gt;ApplicationModule</title>
<path fill="none" stroke="#000000" d="M948,-122.1061C948,-141.3391 948,-169 948,-169 948,-169 659.8814,-169 659.8814,-169"/>
<polygon fill="#000000" stroke="#000000" points="659.8814,-165.5001 649.8814,-169 659.8814,-172.5001 659.8814,-165.5001"/>
</g>
<!-- FavoriteApplicationComponent -->
<g id="node3" class="node">
<title>FavoriteApplicationComponent</title>
<polygon fill="#ffffb3" stroke="#000000" points="855.0842,-122 660.9158,-122 660.9158,-86 855.0842,-86 855.0842,-122"/>
<text text-anchor="middle" x="758" y="-99.8" font-family="Times,serif" font-size="14.00" fill="#000000">FavoriteApplicationComponent</text>
</g>
<!-- FavoriteApplicationComponent&#45;&gt;ApplicationModule -->
<g id="edge3" class="edge">
<title>FavoriteApplicationComponent&#45;&gt;ApplicationModule</title>
<path fill="none" stroke="#000000" d="M758,-122.027C758,-138.3976 758,-160 758,-160 758,-160 659.7031,-160 659.7031,-160"/>
<polygon fill="#000000" stroke="#000000" points="659.7031,-156.5001 649.7031,-160 659.7031,-163.5001 659.7031,-156.5001"/>
</g>
<!-- ViewComponent -->
<g id="node4" class="node">
<title>ViewComponent</title>
<polygon fill="#ffffb3" stroke="#000000" points="642.6513,-122 531.3487,-122 531.3487,-86 642.6513,-86 642.6513,-122"/>
<text text-anchor="middle" x="587" y="-99.8" font-family="Times,serif" font-size="14.00" fill="#000000">ViewComponent</text>
</g>
<!-- ViewComponent&#45;&gt;ApplicationModule -->
<g id="edge4" class="edge">
<title>ViewComponent&#45;&gt;ApplicationModule</title>
<path fill="none" stroke="#000000" d="M587,-122.1061C587,-122.1061 587,-140.991 587,-140.991"/>
<polygon fill="#000000" stroke="#000000" points="583.5001,-140.9909 587,-150.991 590.5001,-140.991 583.5001,-140.9909"/>
</g>
<!-- ApplicationRoutingModule -->
<g id="node6" class="node">
<title>ApplicationRoutingModule</title>
<polygon fill="#8dd3c7" stroke="#000000" points="507.266,-122 504.266,-126 483.266,-126 480.266,-122 336.734,-122 336.734,-86 507.266,-86 507.266,-122"/>
<text text-anchor="middle" x="422" y="-99.8" font-family="Times,serif" font-size="14.00" fill="#000000">ApplicationRoutingModule</text>
</g>
<!-- ApplicationRoutingModule&#45;&gt;ApplicationModule -->
<g id="edge5" class="edge">
<title>ApplicationRoutingModule&#45;&gt;ApplicationModule</title>
<path fill="none" stroke="#000000" d="M422,-122.027C422,-138.3976 422,-160 422,-160 422,-160 514.1499,-160 514.1499,-160"/>
<polygon fill="#000000" stroke="#000000" points="514.1499,-163.5001 524.1499,-160 514.1498,-156.5001 514.1499,-163.5001"/>
</g>
<!-- SharedModule -->
<g id="node7" class="node">
<title>SharedModule</title>
<polygon fill="#8dd3c7" stroke="#000000" points="318.4231,-122 315.4231,-126 294.4231,-126 291.4231,-122 219.5769,-122 219.5769,-86 318.4231,-86 318.4231,-122"/>
<text text-anchor="middle" x="269" y="-99.8" font-family="Times,serif" font-size="14.00" fill="#000000">SharedModule</text>
</g>
<!-- SharedModule&#45;&gt;ApplicationModule -->
<g id="edge6" class="edge">
<title>SharedModule&#45;&gt;ApplicationModule</title>
<path fill="none" stroke="#000000" d="M269,-122.1061C269,-141.3391 269,-169 269,-169 269,-169 514.1734,-169 514.1734,-169"/>
<polygon fill="#000000" stroke="#000000" points="514.1735,-172.5001 524.1734,-169 514.1734,-165.5001 514.1735,-172.5001"/>
</g>
<!-- ApplicationService -->
<g id="node8" class="node">
<title>ApplicationService</title>
<ellipse fill="#fdb462" stroke="#000000" cx="110" cy="-104" rx="85.6705" ry="18"/>
<text text-anchor="middle" x="110" y="-99.8" font-family="Times,serif" font-size="14.00" fill="#000000">ApplicationService</text>
</g>
<!-- ApplicationService&#45;&gt;ApplicationModule -->
<g id="edge7" class="edge">
<title>ApplicationService&#45;&gt;ApplicationModule</title>
<path fill="none" stroke="#000000" d="M110,-122.2921C110,-144.2057 110,-178 110,-178 110,-178 514.1501,-178 514.1501,-178"/>
<polygon fill="#000000" stroke="#000000" points="514.1501,-181.5001 524.1501,-178 514.15,-174.5001 514.1501,-181.5001"/>
</g>
</g>
</svg>
